{
.appVersion = "1342";
DisplayStrings = (
An,
A,
B
);
copyright = "Copyright © 2010 by __Designer__. All rights reserved.";
customParameters = (
{
name = panose;
value = (
2,
0,
5,
7,
8,
0,
0,
2,
0,
2
);
},
{
name = unicodeRanges;
value = (
0
);
},
{
name = fsType;
value = (
2
);
},
{
name = blueScale;
value = 0.03295;
},
{
name = glyphOrder;
value = (
.notdef,
.null,
CR,
space,
threequarters,
brokenbar,
minus,
multiply,
RS,
US,
onequarter,
exclam,
quotedbl,
numbersign,
dollar,
percent,
ampersand,
quotesingle,
parenleft,
parenright,
asterisk,
plus,
comma,
hyphen,
period,
slash,
zero,
one,
two,
three,
four,
five,
six,
seven,
eight,
nine,
colon,
semicolon,
less,
equal,
greater,
question,
at,
A,
B,
C,
D,
E,
F,
G,
H,
I,
J,
K,
L,
M,
N,
O,
P,
Q,
R,
S,
T,
U,
V,
W,
X,
Y,
Z,
Z.stroke,
bracketleft,
backslash,
bracketright,
asciicircum,
underscore,
grave,
a,
b,
c,
d,
e,
f,
g,
h,
i,
j,
k,
l,
m,
n,
o,
p,
q,
r,
s,
t,
u,
v,
w,
x,
y,
z,
z.alt,
z.stroke,
braceleft,
bar,
braceright,
asciitilde,
DEL,
Adieresis,
Aring,
Ccedilla,
Eacute,
Ntilde,
Odieresis,
Udieresis,
aacute,
agrave,
acircumflex,
adieresis,
atilde,
aring,
ccedilla,
eacute,
egrave,
ecircumflex,
edieresis,
iacute,
igrave,
icircumflex,
idieresis,
ntilde,
oacute,
ograve,
ocircumflex,
odieresis,
otilde,
uacute,
ugrave,
ucircumflex,
udieresis,
dagger,
degree,
cent,
sterling,
bullet,
paragraph,
germandbls,
registered,
copyright,
trademark,
acute,
dieresis,
notequal,
AE,
infinity,
plusminus,
lessequal,
greaterequal,
yen,
mu,
partialdiff,
pi,
integral,
ordfeminine,
ordmasculine,
summation,
Omega,
ae,
questiondown,
exclamdown,
logicalnot,
radical,
florin,
approxequal,
Delta,
guillemotleft,
guillemotright,
ellipsis,
nbspace,
Agrave,
Atilde,
Otilde,
OE,
oe,
endash,
emdash,
quotedblleft,
quotedblright,
quoteleft,
quoteright,
Euro,
ydieresis,
Ydieresis,
fraction,
currency,
guilsinglleft,
guilsinglright,
daggerdbl,
quotesinglbase,
quotedblbase,
perthousand,
Acircumflex,
Ecircumflex,
Aacute,
Edieresis,
Egrave,
Iacute,
Icircumflex,

glyphs = (
{
glyphname = threequarters;
lastChange = "2021-04-19 01:04:02 +0000";
layers = (
{
hints = (
{
horizontal = 1;
place = "{765, 29}";
type = Stem;
}
);
layerId = "61E7180A-0B32-4047-B910-001D8BB62225";
paths = (
{
closed = 1;
nodes = (
"505 594 OFFCURVE",
"473 559 OFFCURVE",
"445 525 CURVE SMOOTH",
"431 512 OFFCURVE",
"417 497 OFFCURVE",
"403 482 CURVE SMOOTH",
"382 462 OFFCURVE",
"362 441 OFFCURVE",
"346 421 CURVE",
"342 402 LINE",
"489 405 LINE",
"477 382 OFFCURVE",
"427 291 OFFCURVE",
"427 287 CURVE",
"445 276 OFFCURVE",
"486 291 OFFCURVE",
"490 295 CURVE",
"549 409 LINE",
"564 409 LINE",
"595 421 OFFCURVE",
"594 429 OFFCURVE",
"568 433 CURVE",
"563 433 LINE",
"575 456 OFFCURVE",
"602 508 OFFCURVE",
"602 511 CURVE",
"616 536 OFFCURVE",
"557 524 OFFCURVE",
"543 507 CURVE",
"524 469 OFFCURVE",
"517 457 OFFCURVE",
"505 431 CURVE",
"383 429 LINE",
"397 446 OFFCURVE",
"410 458 OFFCURVE",
"426 472 CURVE SMOOTH",
"497 532 OFFCURVE",
"614 630 OFFCURVE",
"615 646 CURVE",
"602 655 OFFCURVE",
"548 658 OFFCURVE",
"531 630 CURVE"
);
},
{
closed = 1;
nodes = (
"498 828 OFFCURVE",
"184 430 OFFCURVE",
"66 296 CURVE SMOOTH",
"55 284 OFFCURVE",
"59 276 OFFCURVE",
"76 287 CURVE SMOOTH",
"159 339 OFFCURVE",
"505 783 OFFCURVE",
"592 891 CURVE SMOOTH",
"607 911 OFFCURVE",
"563 914 OFFCURVE",
"548 896 CURVE"
);
},
{
closed = 1;
nodes = (
"318 902 OFFCURVE",
"291 915 OFFCURVE",
"260 915 CURVE SMOOTH",
"209 915 OFFCURVE",
"168 878 OFFCURVE",
"137 840 CURVE",
"134 823 OFFCURVE",
"143 827 OFFCURVE",
"150 833 CURVE SMOOTH",
"170 856 OFFCURVE",
"201 882 OFFCURVE",
"229 882 CURVE SMOOTH",
"240 882 OFFCURVE",
"256 876 OFFCURVE",
"256 866 CURVE SMOOTH",
"256 799 OFFCURVE",
"169 746 OFFCURVE",
"118 736 CURVE",
"109 732 OFFCURVE",
"107 718 OFFCURVE",
"131 724 CURVE SMOOTH",
"143 726 OFFCURVE",
"169 737 OFFCURVE",
"178 737 CURVE SMOOTH",
"197 737 OFFCURVE",
"209 721 OFFCURVE",
"209 699 CURVE SMOOTH",
"209 637 OFFCURVE",
"142 548 OFFCURVE",
"64 548 CURVE SMOOTH",
"43 548 OFFCURVE",
"24 564 OFFCURVE",
"17 582 CURVE",
"1 590 OFFCURVE",
"3 580 OFFCURVE",
"7 570 CURVE SMOOTH",
"17 543 OFFCURVE",
"39 532 OFFCURVE",
"68 532 CURVE SMOOTH",
"161 532 OFFCURVE",
"264 612 OFFCURVE",
"264 693 CURVE SMOOTH",
"264 732 OFFCURVE",
"232 749 OFFCURVE",
"198 754 CURVE",
"249 775 OFFCURVE",
"318 813 OFFCURVE",
"318 870 CURVE SMOOTH"
);
}
);
width = 626;
}
);
note = threequarters;
unicode = 00BE;
},
{
glyphname = brokenbar;
lastChange = "2021-04-19 01:04:02 +0000";
layers = (
{
hints = (
{
horizontal = 1;
place = "{-232, 21}";
target = up;
type = BottomGhost;
},
{
horizontal = 1;
place = "{753, -20}";
target = down;
type = TopGhost;
}
);
layerId = "61E7180A-0B32-4047-B910-001D8BB62225";
paths = (
{
closed = 1;
nodes = (
"430 1040 LINE",
"378 1040 LINE",
"288 616 LINE",
"336 611 LINE"
);
},
{
closed = 1;
nodes = (
"312 505 LINE",
"265 509 LINE",
"169 55 LINE",
"221 55 LINE"
);
}
);
width = 488;
}
);
note = brokenbar;
unicode = 00A6;
},
{
glyphname = minus;
lastChange = "2021-04-19 01:04:02 +0000";
layers = (
{
hints = (
{
horizontal = 1;
place = "{208, 24}";
type = Stem;
},
{
place = "{107, 256}";
type = Stem;
}
);
layerId = "61E7180A-0B32-4047-B910-001D8BB62225";
paths = (
{
closed = 1;
nodes = (
"364 497 LINE",
"364 517 LINE",
"363 519 LINE",
"109 519 LINE",
"107 517 LINE",
"107 497 LINE",
"109 496 LINE",
"363 496 LINE"
);
}
);
width = 375;
}
);
note = minus;
unicode = 2212;
},
{
glyphname = multiply;
lastChange = "2021-04-19 01:04:02 +0000";
layers = (
{
hints = (
{
horizontal = 1;
place = "{102, 21}";
target = up;
type = BottomGhost;
},
{
horizontal = 1;
place = "{312, -20}";
target = down;
type = TopGhost;
}
);
layerId = "61E7180A-0B32-4047-B910-001D8BB62225";
paths = (
{
closed = 1;
nodes = (
"261 574 LINE",
"261 578 OFFCURVE",
"255 595 OFFCURVE",
"251 595 CURVE",
"176 515 LINE",
"134 600 LINE",
"130 599 OFFCURVE",
"115 584 OFFCURVE",
"115 580 CURVE",
"158 496 LINE",
"83 415 LINE",
"83 413 OFFCURVE",
"91 395 OFFCURVE",
"95 394 CURVE",
"169 474 LINE",
"212 389 LINE",
"216 390 OFFCURVE",
"229 405 OFFCURVE",
"230 409 CURVE",
"188 493 LINE"
);
}
);
width = 306;
}
);
note = multiply;
unicode = 00D7;
},
{
glyphname = onequarter;
lastChange = "2021-04-19 01:04:02 +0000";
layers = (
{
hints = (
{
horizontal = 1;
place = "{765, 29}";
type = Stem;
}
);
layerId = "61E7180A-0B32-4047-B910-001D8BB62225";
paths = (
{
closed = 1;
nodes = (
"498 828 OFFCURVE",
"184 430 OFFCURVE",
"66 296 CURVE SMOOTH",
"55 284 OFFCURVE",
"59 276 OFFCURVE",
"76 287 CURVE SMOOTH",
"159 339 OFFCURVE",
"505 783 OFFCURVE",
"592 891 CURVE SMOOTH",
"607 911 OFFCURVE",
"563 914 OFFCURVE",
"548 896 CURVE"
);
},
{
closed = 1;
nodes = (
"232 906 OFFCURVE",
"220 892 OFFCURVE",
"212 884 CURVE SMOOTH",
"184 855 OFFCURVE",
"142 813 OFFCURVE",
"110 789 CURVE SMOOTH",
"94 777 LINE",
"72 754 OFFCURVE",
"92 761 OFFCURVE",
"105 768 CURVE",
"129 787 OFFCURVE",
"162 801 OFFCURVE",
"182 817 CURVE",
"32 539 LINE",
"31 529 OFFCURVE",
"79 532 OFFCURVE",
"87 545 CURVE",
"151 661 OFFCURVE",
"204 777 OFFCURVE",
"267 891 CURVE",
"273 910 OFFCURVE",
"267 909 OFFCURVE",
"247 907 CURVE SMOOTH"
);
},
{
closed = 1;
nodes = (
"505 594 OFFCURVE",
"473 559 OFFCURVE",
"445 525 CURVE SMOOTH",
"431 512 OFFCURVE",
"417 497 OFFCURVE",
"403 482 CURVE SMOOTH",
"382 462 OFFCURVE",
"362 441 OFFCURVE",
"346 421 CURVE",
"342 402 LINE",
"489 405 LINE",
"477 382 OFFCURVE",
"427 291 OFFCURVE",
"427 287 CURVE",
"445 276 OFFCURVE",
"486 291 OFFCURVE",
"490 295 CURVE",
"549 409 LINE",
"564 409 LINE",
"595 421 OFFCURVE",
"594 429 OFFCURVE",
"568 433 CURVE",
"563 433 LINE",
"575 456 OFFCURVE",
"602 508 OFFCURVE",
"602 511 CURVE",
"616 536 OFFCURVE",
"557 524 OFFCURVE",
"543 507 CURVE",
"524 469 OFFCURVE",
"517 457 OFFCURVE",
"505 431 CURVE",
"383 429 LINE",
"397 446 OFFCURVE",
"410 458 OFFCURVE",
"426 472 CURVE SMOOTH",
"497 532 OFFCURVE",
"614 630 OFFCURVE",
"615 646 CURVE",
"602 655 OFFCURVE",
"548 658 OFFCURVE",
"531 630 CURVE"
);
}
);
width = 626;
}
);
note = onequarter;
unicode = 00BC;
},
{
glyphname = exclam;
lastChange = "2021-04-19 01:04:02 +0000";
layers = (
{
hints = (
{
horizontal = 1;
place = "{-15, 83}";
type = Stem;
}
);
layerId = "61E7180A-0B32-4047-B910-001D8BB62225";
paths = (
{
closed = 1;
nodes = (
"541 907 LINE",
"536 910 LINE",
"509 909 OFFCURVE",
"466 917 OFFCURVE",
"453 890 CURVE SMOOTH",
"197 403 LINE",
"196 397 LINE",
"206 395 LINE",
"244 452 OFFCURVE",
"532 871 OFFCURVE",
"543 902 CURVE"
);
},
{
closed = 1;
nodes = (
"208 338 OFFCURVE",
"192 356 OFFCURVE",
"169 356 CURVE SMOOTH",
"146 356 OFFCURVE",
"123 338 OFFCURVE",
"121 315 CURVE SMOOTH",
"117 292 OFFCURVE",
"131 273 OFFCURVE",
"155 273 CURVE SMOOTH",
"178 273 OFFCURVE",
"200 292 OFFCURVE",
"204 315 CURVE SMOOTH"
);
}
);
width = 352;
}
);
note = exclam;
unicode = 0021;
},
{
glyphname = quotedbl;
lastChange = "2021-04-19 01:04:02 +0000";
layers = (
{
hints = (
{
horizontal = 1;
place = "{418, 20}";
type = Stem;
}
);
layerId = "61E7180A-0B32-4047-B910-001D8BB62225";
paths = (
{
closed = 1;
nodes = (
"331 941 OFFCURVE",
"324 947 OFFCURVE",
"310 947 CURVE SMOOTH",
"292 947 OFFCURVE",
"279 935 OFFCURVE",
"280 915 CURVE SMOOTH",
"288 749 LINE",
"299 749 LINE",
"306 779 OFFCURVE",
"339 899 OFFCURVE",
"332 927 CURVE SMOOTH"
);
},
{
closed = 1;
nodes = (
"221 942 OFFCURVE",
"213 947 OFFCURVE",
"201 947 CURVE SMOOTH",
"184 947 OFFCURVE",
"170 931 OFFCURVE",
"172 915 CURVE SMOOTH",
"180 749 LINE",
"190 749 LINE",
"198 780 OFFCURVE",
"229 899 OFFCURVE",
"224 929 CURVE SMOOTH"
);
}
);
width = 320;
}
);
note = quotedbl;
unicode = 0022;
},
{
glyphname = numbersign;
lastChange = "2021-04-19 01:04:02 +0000";
layers = (
{
hints = (
{
horizontal = 1;
place = "{0, 277}";
type = Stem;
},
{
horizontal = 1;
place = "{419, 48}";
type = Stem;
}
);
layerId = "61E7180A-0B32-4047-B910-001D8BB62225";
paths = (
{
closed = 1;
nodes = (
"722 754 LINE",
"574 754 LINE",
"714 988 LINE",
"659 988 LINE",
"520 754 LINE",
"379 754 LINE",
"520 988 LINE",
"465 988 LINE",
"326 754 LINE",
"155 754 LINE",
"126 706 LINE",
"296 706 LINE",
"212 565 LINE",
"55 565 LINE",
"25 517 LINE",
"184 517 LINE",
"46 288 LINE",
"99 288 LINE",
"239 517 LINE",
"377 517 LINE",
"240 288 LINE",
"292 288 LINE",
"433 517 LINE",
"594 517 LINE",
"623 565 LINE",
"461 565 LINE",
"545 706 LINE",
"694 706 LINE"
);
},
{
closed = 1;
nodes = (
"490 706 LINE",
"406 565 LINE",
"265 565 LINE",
"351 706 LINE"
);
}
);
width = 750;
}
);
note = numbersign;
unicode = 0023;
},
{
glyphname = dollar;
lastChange = "2021-04-19 01:04:02 +0000";
layers = (
{
hints = (
{
horizontal = 1;
place = "{423, 88}";
type = Stem;
},
{
place = "{159, 63}";
type = Stem;
},
{
place = "{279, 63}";
type = Stem;
},
{
place = "{456, 23}";
type = Stem;
}
);
layerId = "61E7180A-0B32-4047-B910-001D8BB62225";
paths = (
{
closed = 1;
nodes = (
"477 815 OFFCURVE",
"457 854 OFFCURVE",
"403 863 CURVE",
"437 923 LINE",
"405 918 LINE",
"377 866 LINE",
"285 866 OFFCURVE",
"158 819 OFFCURVE",
"158 710 CURVE SMOOTH",
"158 662 OFFCURVE",
"189 618 OFFCURVE",
"218 582 CURVE",
"68 308 LINE",
"28 316 OFFCURVE",
"-11 335 OFFCURVE",
"-40 364 CURVE",
"-50 364 LINE",
"-54 360 OFFCURVE",
"-67 347 OFFCURVE",
"-67 340 CURVE",
"-43 308 OFFCURVE",
"19 295 OFFCURVE",
"56 288 CURVE",
"21 226 LINE",
"55 232 LINE",
"83 285 LINE",
"194 285 OFFCURVE",
"340 352 OFFCURVE",
"340 481 CURVE SMOOTH",
"340 536 OFFCURVE",
"306 587 OFFCURVE",
"273 630 CURVE",
"391 843 LINE",
"419 836 OFFCURVE",
"449 823 OFFCURVE",
"454 783 CURVE",
"452 791 OFFCURVE",
"434 799 OFFCURVE",
"423 799 CURVE SMOOTH",
"397 799 OFFCURVE",
"379 781 OFFCURVE",
"378 757 CURVE SMOOTH",
"377 732 OFFCURVE",
"397 710 OFFCURVE",
"422 710 CURVE SMOOTH",
"454 710 OFFCURVE",
"477 742 OFFCURVE",
"477 777 CURVE SMOOTH"
);
},
{
closed = 1;
nodes = (
"257 651 LINE",
"240 679 OFFCURVE",
"221 702 OFFCURVE",
"221 736 CURVE SMOOTH",
"221 803 OFFCURVE",
"292 847 OFFCURVE",
"352 847 CURVE SMOOTH",
"356 847 OFFCURVE",
"360 847 OFFCURVE",
"366 847 CURVE"
);
},
{
closed = 1;
nodes = (
"277 369 OFFCURVE",
"181 306 OFFCURVE",
"95 306 CURVE",
"236 561 LINE",
"257 533 OFFCURVE",
"277 498 OFFCURVE",
"277 462 CURVE SMOOTH"
);
}
);
width = 452;
}
);
note = dollar;
unicode = 0024;
},
{
glyphname = percent;
lastChange = "2021-04-19 01:04:02 +0000";
layers = (
{
hints = (
{
horizontal = 1;
place = "{-29, 23}";
type = Stem;
},
{
horizontal = 1;
place = "{291, 32}";
type = Stem;
},
{
horizontal = 1;
place = "{383, 23}";
type = Stem;
},
{
horizontal = 1;
place = "{417, 107}";
type = Stem;
},
{
horizontal = 1;
place = "{704, 32}";
type = Stem;
},
{
place = "{63, 56}";
type = Stem;
},
{
place = "{194, 66}";
type = Stem;
},
{
place = "{280, 56}";
type = Stem;
},
{
place = "{540, 27}";
type = Stem;
}
);
layerId = "61E7180A-0B32-4047-B910-001D8BB62225";
paths = (
{
closed = 1;
nodes = (
"623 951 LINE",
"623 963 OFFCURVE",
"600 958 OFFCURVE",
"598 955 CURVE SMOOTH",
"583 947 OFFCURVE",
"461 801 OFFCURVE",
"415 766 CURVE SMOOTH",
"342 708 OFFCURVE",
"268 671 OFFCURVE",
"240 722 CURVE",
"310 787 OFFCURVE",
"425 1020 OFFCURVE",
"275 1024 CURVE SMOOTH",
"208 1024 OFFCURVE",
"123 946 OFFCURVE",
"83 855 CURVE SMOOTH",
"46 765 OFFCURVE",
"56 673 OFFCURVE",
"133 670 CURVE SMOOTH",
"163 670 OFFCURVE",
"193 683 OFFCURVE",
"220 705 CURVE",
"273 650 OFFCURVE",
"360 695 OFFCURVE",
"440 762 CURVE",
"287 574 OFFCURVE",
"135 385 OFFCURVE",
"-34 208 CURVE",
"-32 204 LINE",
"5 204 LINE"
);
},
{
closed = 1;
nodes = (
"425 612 OFFCURVE",
"340 533 OFFCURVE",
"302 441 CURVE SMOOTH",
"264 352 OFFCURVE",
"275 260 OFFCURVE",
"351 259 CURVE SMOOTH",
"492 255 OFFCURVE",
"670 606 OFFCURVE",
"493 610 CURVE SMOOTH"
);
},
{
closed = 1;
nodes = (
"360 972 OFFCURVE",
"285 811 OFFCURVE",
"256 771 CURVE",
"259 775 OFFCURVE",
"259 777 OFFCURVE",
"259 781 CURVE SMOOTH",
"259 799 OFFCURVE",
"245 811 OFFCURVE",
"228 811 CURVE SMOOTH",
"204 811 OFFCURVE",
"194 791 OFFCURVE",
"194 768 CURVE SMOOTH",
"193 753 OFFCURVE",
"200 734 OFFCURVE",
"209 718 CURVE",
"185 698 OFFCURVE",
"161 689 OFFCURVE",
"141 694 CURVE SMOOTH",
"105 705 OFFCURVE",
"115 775 OFFCURVE",
"153 858 CURVE SMOOTH",
"192 938 OFFCURVE",
"252 1001 OFFCURVE",
"296 989 CURVE SMOOTH"
);
},
{
closed = 1;
nodes = (
"509 419 OFFCURVE",
"489 377 OFFCURVE",
"474 358 CURVE SMOOTH",
"450 328 OFFCURVE",
"405 268 OFFCURVE",
"359 281 CURVE SMOOTH",
"323 292 OFFCURVE",
"332 362 OFFCURVE",
"371 445 CURVE SMOOTH",
"409 525 OFFCURVE",
"470 590 OFFCURVE",
"515 576 CURVE SMOOTH",
"549 565 OFFCURVE",
"543 513 OFFCURVE",
"525 461 CURVE SMOOTH"
);
}
);
width = 624;
}
);
note = percent;
unicode = 0025;
},
{
glyphname = ampersand;
lastChange = "2021-04-19 01:04:02 +0000";
layers = (
{
hints = (
{
horizontal = 1;
place = "{-46, 13}";
type = Stem;
},
{
horizontal = 1;
place = "{247, 39}";
type = Stem;
},
{
horizontal = 1;
place = "{339, 17}";
type = Stem;
},
{
horizontal = 1;
place = "{385, 17}";
type = Stem;
},
{
horizontal = 1;
place = "{544, 94}";
type = Stem;
},
{
horizontal = 1;
place = "{679, 27}";
type = Stem;
},
{
place = "{11, 99}";
type = Stem;
},
{
place = "{275, 54}";
type = Stem;
},
{
place = "{450, 17}";
type = Stem;
},
{
place = "{505, 52}";
type = Stem;
},
{
place = "{674, 27}";
type = Stem;
},
{
place = "{734, 16}";
type = Stem;
}
);
layerId = "61E7180A-0B32-4047-B910-001D8BB62225";
paths = (
{
closed = 1;
nodes = (
"728 721 OFFCURVE",
"717 713 OFFCURVE",
"724 702 CURVE SMOOTH",
"777 622 OFFCURVE",
"590 572 OFFCURVE",
"541 572 CURVE SMOOTH",
"364 572 LINE SMOOTH",
"159 572 OFFCURVE",
"107 427 OFFCURVE",
"284 332 CURVE SMOOTH",
"296 327 OFFCURVE",
"295 348 OFFCURVE",
"284 354 CURVE SMOOTH",
"232 381 OFFCURVE",
"212 415 OFFCURVE",
"217 446 CURVE SMOOTH",
"236 561 OFFCURVE",
"511 563 OFFCURVE",
"505 452 CURVE SMOOTH",
"501 373 OFFCURVE",
"405 256 OFFCURVE",
"263 256 CURVE SMOOTH",
"28 256 OFFCURVE",
"78 635 OFFCURVE",
"316 670 CURVE",
"336 650 OFFCURVE",
"373 626 OFFCURVE",
"417 626 CURVE SMOOTH",
"488 626 OFFCURVE",
"478 685 OFFCURVE",
"421 690 CURVE SMOOTH",
"390 691 OFFCURVE",
"358 687 OFFCURVE",
"336 687 CURVE",
"306 753 OFFCURVE",
"364 843 OFFCURVE",
"410 884 CURVE SMOOTH",
"477 943 OFFCURVE",
"553 967 OFFCURVE",
"606 967 CURVE SMOOTH",
"642 966 OFFCURVE",
"682 951 OFFCURVE",
"674 907 CURVE",
"670 915 OFFCURVE",
"653 925 OFFCURVE",
"641 925 CURVE SMOOTH",
"614 926 OFFCURVE",
"594 907 OFFCURVE",
"592 879 CURVE SMOOTH",
"591 854 OFFCURVE",
"612 831 OFFCURVE",
"639 831 CURVE SMOOTH",
"674 831 OFFCURVE",
"701 867 OFFCURVE",
"701 906 CURVE SMOOTH",
"701 973 OFFCURVE",
"635 993 OFFCURVE",
"580 994 CURVE SMOOTH",
"456 996 OFFCURVE",
"277 918 OFFCURVE",
"275 775 CURVE SMOOTH",
"275 744 OFFCURVE",
"284 710 OFFCURVE",
"303 685 CURVE",
"-58 646 OFFCURVE",
"-99 243 OFFCURVE",
"263 243 CURVE SMOOTH",
"485 243 OFFCURVE",
"630 449 OFFCURVE",
"521 540 CURVE",
"654 537 OFFCURVE",
"796 618 OFFCURVE",
"734 710 CURVE SMOOTH"
);
},
{
closed = 1;
nodes = (
"456 670 OFFCURVE",
"466 643 OFFCURVE",
"417 643 CURVE SMOOTH",
"385 643 OFFCURVE",
"360 654 OFFCURVE",
"344 674 CURVE",
"369 674 OFFCURVE",
"393 674 OFFCURVE",
"419 673 CURVE SMOOTH"
);
}
);
width = 610;
}
);
note = ampersand;
unicode = 0026;
},
{
glyphname = quotesingle;
lastChange = "2021-04-19 01:04:02 +0000";
layers = (
{
hints = (
{
horizontal = 1;
place = "{480, 83}";
type = Stem;
},
{
place = "{162, 27}";
type = Stem;
}
);
layerId = "61E7180A-0B32-4047-B910-001D8BB62225";
paths = (
{
closed = 1;
nodes = (
"189 820 OFFCURVE",
"177 850 OFFCURVE",
"147 850 CURVE SMOOTH",
"125 850 OFFCURVE",
"103 831 OFFCURVE",
"99 808 CURVE SMOOTH",
"95 785 OFFCURVE",
"111 766 OFFCURVE",
"134 766 CURVE SMOOTH",
"145 766 OFFCURVE",
"154 771 OFFCURVE",
"163 776 CURVE",
"157 730 OFFCURVE",
"123 702 OFFCURVE",
"86 689 CURVE SMOOTH",
"74 685 OFFCURVE",
"75 674 OFFCURVE",
"88 678 CURVE SMOOTH",
"131 691 OFFCURVE",
"189 729 OFFCURVE",
"189 795 CURVE SMOOTH"
);
}
);
width = 159;
}
);
note = quotesingle;
unicode = 0027;
},
{
glyphname = parenleft;
lastChange = "2021-04-19 01:04:02 +0000";
layers = (
{
hints = (
{
horizontal = 1;
place = "{-60, 23}";
type = Stem;
},
{
place = "{25, 59}";
type = Stem;
}
);
layerId = "61E7180A-0B32-4047-B910-001D8BB62225";
paths = (
{
closed = 1;
nodes = (
"268 988 OFFCURVE",
"80 761 OFFCURVE",
"42 614 CURVE SMOOTH",
"-19 383 OFFCURVE",
"88 212 OFFCURVE",
"232 228 CURVE SMOOTH",
"264 232 OFFCURVE",
"264 253 OFFCURVE",
"239 251 CURVE SMOOTH",
"88 232 OFFCURVE",
"50 437 OFFCURVE",
"110 622 CURVE SMOOTH",
"147 738 OFFCURVE",
"268 965 OFFCURVE",
"498 1025 CURVE SMOOTH",
"528 1033 OFFCURVE",
"532 1055 OFFCURVE",
"498 1047 CURVE SMOOTH"
);
}
);
width = 352;
}
);
note = parenleft;
unicode = 0028;
},
{
glyphname = parenright;
lastChange = "2021-04-19 01:04:02 +0000";
layers = (
{
hints = (
{
horizontal = 1;
place = "{746, 23}";
type = Stem;
},
{
place = "{453, 59}";
type = Stem;
}
);
layerId = "61E7180A-0B32-4047-B910-001D8BB62225";
paths = (
{
closed = 1;
nodes = (
"553 899 OFFCURVE",
"448 1072 OFFCURVE",
"304 1055 CURVE SMOOTH",
"272 1051 OFFCURVE",
"272 1029 OFFCURVE",
"299 1032 CURVE SMOOTH",
"448 1049 OFFCURVE",
"486 847 OFFCURVE",
"426 661 CURVE SMOOTH",
"389 544 OFFCURVE",
"268 318 OFFCURVE",
"39 257 CURVE SMOOTH",
"8 249 OFFCURVE",
"4 228 OFFCURVE",
"38 236 CURVE SMOOTH",
"268 296 OFFCURVE",
"457 521 OFFCURVE",
"494 670 CURVE SMOOTH"
);
}
);
width = 521;
}
);
note = parenright;
unicode = 0029;
},
{
glyphname = asterisk;
lastChange = "2021-04-19 01:04:02 +0000";
layers = (
{
hints = (
{
horizontal = 1;
place = "{359, 34}";
type = Stem;
}
);
layerId = "61E7180A-0B32-4047-B910-001D8BB62225";
paths = (
{
closed = 1;
nodes = (
"257 678 LINE",
"343 771 LINE SMOOTH",
"369 799 OFFCURVE",
"356 828 OFFCURVE",
"336 807 CURVE SMOOTH",
"220 690 LINE",
"201 725 OFFCURVE",
"182 762 OFFCURVE",
"159 805 CURVE SMOOTH",
"143 838 OFFCURVE",
"113 831 OFFCURVE",
"126 804 CURVE SMOOTH",
"147 760 OFFCURVE",
"166 718 OFFCURVE",
"184 678 CURVE",
"38 678 LINE SMOOTH",
"1 678 OFFCURVE",
"19 632 OFFCURVE",
"36 634 CURVE SMOOTH",
"169 638 LINE",
"68 537 LINE SMOOTH",
"42 509 OFFCURVE",
"84 492 OFFCURVE",
"98 505 CURVE SMOOTH",
"208 624 LINE",
"229 575 OFFCURVE",
"247 536 OFFCURVE",
"257 512 CURVE SMOOTH",
"275 478 OFFCURVE",
"304 520 OFFCURVE",
"296 536 CURVE SMOOTH",
"276 572 OFFCURVE",
"260 606 OFFCURVE",
"243 642 CURVE",
"375 646 LINE SMOOTH",
"410 647 OFFCURVE",
"422 678 OFFCURVE",
"394 678 CURVE SMOOTH"
);
}
);
width = 433;
}
);
note = asterisk;
unicode = 002A;
},
{
glyphname = plus;
lastChange = "2021-04-19 01:04:02 +0000";
layers = (
{
hints = (
{
horizontal = 1;
place = "{204, 36}";
type = Stem;
}
);
layerId = "61E7180A-0B32-4047-B910-001D8BB62225";
paths = (
{
closed = 1;
nodes = (
"421 528 OFFCURVE",
"373 527 OFFCURVE",
"332 528 CURVE",
"340 570 OFFCURVE",
"354 641 OFFCURVE",
"363 678 CURVE SMOOTH",
"369 705 OFFCURVE",
"340 697 OFFCURVE",
"335 674 CURVE SMOOTH",
"324 634 OFFCURVE",
"308 565 OFFCURVE",
"300 528 CURVE",
"247 529 OFFCURVE",
"182 531 OFFCURVE",
"159 531 CURVE SMOOTH",
"130 531 OFFCURVE",
"133 481 OFFCURVE",
"147 482 CURVE SMOOTH",
"177 485 OFFCURVE",
"243 488 OFFCURVE",
"289 492 CURVE",
"276 437 OFFCURVE",
"260 379 OFFCURVE",
"256 356 CURVE SMOOTH",
"248 327 OFFCURVE",
"302 342 OFFCURVE",
"304 356 CURVE SMOOTH",
"307 386 OFFCURVE",
"319 445 OFFCURVE",
"327 493 CURVE",
"370 497 OFFCURVE",
"422 500 OFFCURVE",
"461 500 CURVE SMOOTH",
"488 500 OFFCURVE",
"485 525 OFFCURVE",
"464 527 CURVE SMOOTH"
);
}
);
width = 461;
}
);
note = plus;
unicode = 002B;
},
{
glyphname = comma;
lastChange = "2021-04-19 01:04:02 +0000";
layers = (
{
hints = (
{
horizontal = 1;
place = "{-15, 83}";
type = Stem;
},
{
place = "{84, 27}";
type = Stem;
}
);
layerId = "61E7180A-0B32-4047-B910-001D8BB62225";
paths = (
{
closed = 1;
nodes = (
"115 334 OFFCURVE",
"99 356 OFFCURVE",
"71 356 CURVE SMOOTH",
"47 356 OFFCURVE",
"25 338 OFFCURVE",
"23 315 CURVE SMOOTH",
"19 292 OFFCURVE",
"34 273 OFFCURVE",
"56 273 CURVE SMOOTH",
"67 273 OFFCURVE",
"76 277 OFFCURVE",
"84 284 CURVE",
"79 239 OFFCURVE",
"46 208 OFFCURVE",
"8 196 CURVE SMOOTH",
"-5 192 OFFCURVE",
"-3 180 OFFCURVE",
"11 185 CURVE SMOOTH",
"52 200 OFFCURVE",
"115 241 OFFCURVE",
"115 308 CURVE SMOOTH"
);
}
);
width = 154;
}
);
note = comma;
unicode = 002C;
},
{
glyphname = hyphen;
lastChange = "2021-04-19 01:04:02 +0000";
layers = (
{
hints = (
{
horizontal = 1;
place = "{212, 27}";
type = Stem;
},
{
place = "{147, 260}";
type = Stem;
}
);
layerId = "61E7180A-0B32-4047-B910-001D8BB62225";
paths = (
{
closed = 1;
nodes = (
"417 500 OFFCURVE",
"409 525 OFFCURVE",
"386 527 CURVE SMOOTH",
"269 529 OFFCURVE",
"208 531 OFFCURVE",
"165 531 CURVE SMOOTH",
"135 531 OFFCURVE",
"151 481 OFFCURVE",
"165 482 CURVE SMOOTH",
"225 489 OFFCURVE",
"297 500 OFFCURVE",
"390 500 CURVE SMOOTH"
);
}
);
width = 409;
}
);
note = hyphen;
unicode = 002D;
},
{
glyphname = period;
lastChange = "2021-04-19 01:04:02 +0000";
layers = (
{
hints = (
{
horizontal = 1;
place = "{-15, 83}";
type = Stem;
}
);
layerId = "61E7180A-0B32-4047-B910-001D8BB62225";
paths = (
{
closed = 1;
nodes = (
"190 338 OFFCURVE",
"174 356 OFFCURVE",
"151 356 CURVE SMOOTH",
"129 356 OFFCURVE",
"107 338 OFFCURVE",
"103 315 CURVE SMOOTH",
"99 292 OFFCURVE",
"115 273 OFFCURVE",
"138 273 CURVE SMOOTH",
"161 273 OFFCURVE",
"182 292 OFFCURVE",
"186 315 CURVE SMOOTH"
);
}
);
width = 209;
}
);
note = period;
unicode = 002E;
},
{
glyphname = slash;
lastChange = "2021-04-19 01:04:02 +0000";
layers = (
{
hints = (
{
horizontal = 1;
place = "{765, 29}";
type = Stem;
}
);
layerId = "61E7180A-0B32-4047-B910-001D8BB62225";
paths = (
{
closed = 1;
nodes = (
"425 742 OFFCURVE",
"127 358 OFFCURVE",
"27 271 CURVE SMOOTH",
"7 253 OFFCURVE",
"17 237 OFFCURVE",
"44 255 CURVE SMOOTH",
"168 335 OFFCURVE",
"586 887 OFFCURVE",
"752 1080 CURVE SMOOTH",
"776 1107 OFFCURVE",
"722 1119 OFFCURVE",
"702 1092 CURVE SMOOTH"
);
}
);
width = 551;
}
);
note = slash;
unicode = 002F;
},
{
glyphname = zero;
lastChange = "2021-04-19 01:04:02 +0000";
layers = (
{
hints = (
{
horizontal = 1;
place = "{-11, 20}";
type = Stem;
},
{
horizontal = 1;
place = "{563, 19}";
type = Stem;
},
{
place = "{52, 60}";
type = Stem;
},
{
place = "{469, 39}";
type = Stem;
}
);
layerId = "61E7180A-0B32-4047-B910-001D8BB62225";
paths = (
{
closed = 1;
nodes = (
"508 820 OFFCURVE",
"484 870 OFFCURVE",
"414 870 CURVE SMOOTH",
"245 870 OFFCURVE",
"52 560 OFFCURVE",
"52 407 CURVE SMOOTH",
"52 339 OFFCURVE",
"87 276 OFFCURVE",
"162 276 CURVE SMOOTH",
"344 276 OFFCURVE",
"508 599 OFFCURVE",
"508 758 CURVE SMOOTH"
);
},
{
closed = 1;
nodes = (
"469 657 OFFCURVE",
"311 296 OFFCURVE",
"174 296 CURVE SMOOTH",
"127 296 OFFCURVE",
"113 331 OFFCURVE",
"113 373 CURVE SMOOTH",
"113 485 OFFCURVE",
"284 851 OFFCURVE",
"415 851 CURVE SMOOTH",
"458 851 OFFCURVE",
"469 815 OFFCURVE",
"469 777 CURVE SMOOTH"
);
}
);
width = 505;
}
);
note = zero;
unicode = 0030;
},
{
glyphname = one;
lastChange = "2021-04-19 01:04:02 +0000";
layers = (
{
hints = (
{
horizontal = 1;
place = "{-3, 20}";
type = Stem;
}
);
layerId = "61E7180A-0B32-4047-B910-001D8BB62225";
paths = (
{
closed = 1;
nodes = (
"429 854 LINE",
"429 859 LINE",
"426 859 OFFCURVE",
"425 860 OFFCURVE",
"422 859 CURVE",
"391 856 LINE SMOOTH",
"374 855 OFFCURVE",
"356 835 OFFCURVE",
"346 823 CURVE SMOOTH",
"288 762 OFFCURVE",
"229 720 OFFCURVE",
"162 669 CURVE",
"159 662 LINE",
"163 654 LINE",
"168 654 LINE",
"228 690 OFFCURVE",
"280 732 OFFCURVE",
"332 779 CURVE",
"241 618 OFFCURVE",
"151 456 OFFCURVE",
"60 293 CURVE",
"62 288 LINE",
"63 288 OFFCURVE",
"68 285 OFFCURVE",
"71 285 CURVE SMOOTH",
"83 287 OFFCURVE",
"113 287 OFFCURVE",
"123 292 CURVE",
"423 843 LINE"
);
}
);
width = 381;
}
);
note = one;
unicode = 0031;
},
{
glyphname = two;
lastChange = "2021-04-19 01:04:02 +0000";
layers = (
{
hints = (
{
horizontal = 1;
place = "{-12, 56}";
type = Stem;
},
{
horizontal = 1;
place = "{548, 31}";
type = Stem;
},
{
place = "{434, 71}";
type = Stem;
}
);
layerId = "61E7180A-0B32-4047-B910-001D8BB62225";
paths = (
{
closed = 1;
nodes = (
"505 838 OFFCURVE",
"465 867 OFFCURVE",
"414 867 CURVE SMOOTH",
"312 867 OFFCURVE",
"235 769 OFFCURVE",
"204 682 CURVE",
"205 675 LINE",
"217 675 LINE",
"221 679 LINE",
"247 745 OFFCURVE",
"311 835 OFFCURVE",
"387 835 CURVE SMOOTH",
"417 835 OFFCURVE",
"436 823 OFFCURVE",
"436 791 CURVE SMOOTH",
"436 677 OFFCURVE",
"204 469 OFFCURVE",
"122 395 CURVE",
"115 398 OFFCURVE",
"106 397 OFFCURVE",
"99 397 CURVE SMOOTH",
"94 394 OFFCURVE",
"3 295 OFFCURVE",
"1 288 CURVE",
"15 280 LINE",
"84 335 LINE",
"109 324 OFFCURVE",
"212 276 OFFCURVE",
"241 276 CURVE SMOOTH",
"295 276 OFFCURVE",
"369 356 OFFCURVE",
"401 395 CURVE",
"401 399 LINE",
"393 405 LINE",
"381 401 OFFCURVE",
"336 332 OFFCURVE",
"280 332 CURVE SMOOTH",
"256 332 OFFCURVE",
"168 377 OFFCURVE",
"142 389 CURVE",
"218 453 OFFCURVE",
"505 674 OFFCURVE",
"505 783 CURVE SMOOTH"
);
}
);
width = 490;
}
);
note = two;
unicode = 0032;
},
{
glyphname = three;
lastChange = "2021-04-19 01:04:02 +0000";
layers = (
{
hints = (
{
horizontal = 1;
place = "{-11, 23}";
type = Stem;
},
{
horizontal = 1;
place = "{549, 32}";
type = Stem;
},
{
place = "{332, 68}";
type = Stem;
},
{
place = "{421, 68}";
type = Stem;
}
);
layerId = "61E7180A-0B32-4047-B910-001D8BB62225";
paths = (
{
closed = 1;
nodes = (
"489 851 OFFCURVE",
"453 868 OFFCURVE",
"413 868 CURVE SMOOTH",
"336 868 OFFCURVE",
"275 813 OFFCURVE",
"229 758 CURVE",
"229 753 LINE",
"236 746 LINE",
"241 746 LINE",
"273 783 OFFCURVE",
"328 836 OFFCURVE",
"381 836 CURVE SMOOTH",
"405 836 OFFCURVE",
"419 825 OFFCURVE",
"419 800 CURVE SMOOTH",
"419 702 OFFCURVE",
"261 626 OFFCURVE",
"188 598 CURVE",
"184 592 LINE",
"185 583 LINE",
"192 580 LINE",
"214 586 OFFCURVE",
"240 594 OFFCURVE",
"263 594 CURVE SMOOTH",
"300 594 OFFCURVE",
"332 574 OFFCURVE",
"332 532 CURVE SMOOTH",
"332 425 OFFCURVE",
"196 299 OFFCURVE",
"92 299 CURVE SMOOTH",
"71 299 OFFCURVE",
"42 304 OFFCURVE",
"23 314 CURVE",
"17 312 LINE",
"11 306 LINE",
"11 300 LINE",
"36 281 OFFCURVE",
"72 276 OFFCURVE",
"103 276 CURVE SMOOTH",
"218 276 OFFCURVE",
"401 401 OFFCURVE",
"401 524 CURVE SMOOTH",
"401 596 OFFCURVE",
"324 616 OFFCURVE",
"265 616 CURVE",
"344 645 OFFCURVE",
"489 706 OFFCURVE",
"489 807 CURVE SMOOTH"
);
}
);
width = 461;
}
);
note = three;
unicode = 0033;
},
{
glyphname = four;
lastChange = "2021-04-19 01:04:02 +0000";
layers = (
{
hints = (
{
horizontal = 1;
place = "{189, 21}";
type = Stem;
}
);
layerId = "61E7180A-0B32-4047-B910-001D8BB62225";
paths = (
{
closed = 1;
nodes = (
"486 859 LINE",
"480 863 LINE",
"426 852 OFFCURVE",
"409 859 OFFCURVE",
"377 816 CURVE SMOOTH",
"332 758 OFFCURVE",
"288 706 OFFCURVE",
"240 653 CURVE SMOOTH",
"192 598 OFFCURVE",
"127 541 OFFCURVE",
"83 485 CURVE SMOOTH",
"82 484 OFFCURVE",
"80 481 OFFCURVE",
"79 478 CURVE",
"79 470 LINE",
"324 477 LINE",
"315 461 OFFCURVE",
"224 292 OFFCURVE",
"224 285 CURVE SMOOTH",
"224 281 LINE",
"228 280 LINE",
"236 280 OFFCURVE",
"288 291 OFFCURVE",
"292 296 CURVE SMOOTH",
"304 307 OFFCURVE",
"375 456 OFFCURVE",
"387 480 CURVE",
"417 481 LINE",
"423 485 LINE",
"429 497 LINE",
"422 501 LINE",
"398 501 LINE",
"405 513 OFFCURVE",
"465 630 OFFCURVE",
"465 634 CURVE SMOOTH",
"465 641 LINE",
"458 643 LINE",
"441 642 OFFCURVE",
"410 643 OFFCURVE",
"401 624 CURVE SMOOTH",
"336 497 LINE",
"118 493 LINE",
"150 523 OFFCURVE",
"489 820 OFFCURVE",
"488 852 CURVE SMOOTH"
);
}
);
width = 466;
}
);
note = four;
unicode = 0034;
},
{
glyphname = five;
lastChange = "2021-04-19 01:04:02 +0000";
layers = (
{
hints = (
{
horizontal = 1;
place = "{-13, 19}";
type = Stem;
},
{
horizontal = 1;
place = "{326, 27}";
type = Stem;
},
{
horizontal = 1;
place = "{496, 64}";
type = Stem;
},
{
place = "{318, 67}";
type = Stem;
}
);
layerId = "61E7180A-0B32-4047-B910-001D8BB62225";
paths = (
{
closed = 1;
nodes = (
"505 868 LINE",
"445 823 OFFCURVE",
"336 870 OFFCURVE",
"275 844 CURVE",
"261 833 OFFCURVE",
"123 592 OFFCURVE",
"114 565 CURVE",
"114 559 LINE",
"119 557 LINE",
"162 578 OFFCURVE",
"204 614 OFFCURVE",
"252 614 CURVE SMOOTH",
"293 614 OFFCURVE",
"318 590 OFFCURVE",
"318 549 CURVE SMOOTH",
"318 437 OFFCURVE",
"173 293 OFFCURVE",
"60 293 CURVE SMOOTH",
"40 293 OFFCURVE",
"17 296 OFFCURVE",
"-3 303 CURVE",
"-7 300 LINE",
"-12 293 LINE",
"-12 287 LINE",
"4 276 OFFCURVE",
"40 275 OFFCURVE",
"59 275 CURVE SMOOTH",
"188 275 OFFCURVE",
"385 413 OFFCURVE",
"385 552 CURVE SMOOTH",
"385 612 OFFCURVE",
"340 639 OFFCURVE",
"284 639 CURVE SMOOTH",
"240 639 OFFCURVE",
"188 619 OFFCURVE",
"150 594 CURVE",
"260 787 LINE",
"344 781 OFFCURVE",
"473 769 OFFCURVE",
"509 867 CURVE"
);
}
);
width = 448;
}
);
note = five;
unicode = 0035;
},
{
glyphname = six;
lastChange = "2021-04-19 01:04:02 +0000";
layers = (
{
hints = (
{
horizontal = 1;
place = "{-11, 23}";
type = Stem;
},
{
horizontal = 1;
place = "{308, 31}";
type = Stem;
},
{
place = "{38, 59}";
type = Stem;
},
{
place = "{340, 63}";
type = Stem;
}
);
layerId = "61E7180A-0B32-4047-B910-001D8BB62225";
paths = (
{
closed = 1;
nodes = (
"429 879 LINE",
"422 878 LINE",
"283 781 OFFCURVE",
"38 567 OFFCURVE",
"38 385 CURVE SMOOTH",
"38 316 OFFCURVE",
"79 276 OFFCURVE",
"146 276 CURVE SMOOTH",
"263 276 OFFCURVE",
"402 433 OFFCURVE",
"402 547 CURVE SMOOTH",
"402 591 OFFCURVE",
"378 626 OFFCURVE",
"331 626 CURVE SMOOTH",
"241 626 OFFCURVE",
"163 513 OFFCURVE",
"145 436 CURVE",
"147 429 LINE",
"157 430 LINE",
"161 436 LINE",
"182 490 OFFCURVE",
"240 595 OFFCURVE",
"307 595 CURVE SMOOTH",
"332 595 OFFCURVE",
"340 578 OFFCURVE",
"340 555 CURVE SMOOTH",
"340 470 OFFCURVE",
"247 300 OFFCURVE",
"151 300 CURVE SMOOTH",
"115 300 OFFCURVE",
"96 328 OFFCURVE",
"96 362 CURVE SMOOTH",
"96 457 OFFCURVE",
"177 586 OFFCURVE",
"232 659 CURVE SMOOTH",
"272 710 OFFCURVE",
"315 758 OFFCURVE",
"362 801 CURVE SMOOTH",
"383 820 OFFCURVE",
"413 839 OFFCURVE",
"430 859 CURVE SMOOTH",
"433 862 OFFCURVE",
"433 866 OFFCURVE",
"436 867 CURVE"
);
}
);
width = 423;
}
);
note = six;
unicode = 0036;
},
{
glyphname = seven;
lastChange = "2021-04-19 01:04:02 +0000";
layers = (
{
hints = (
{
horizontal = 1;
place = "{54, 79}";
type = Stem;
},
{
horizontal = 1;
place = "{560, 126}";
type = Stem;
}
);
layerId = "61E7180A-0B32-4047-B910-001D8BB62225";
paths = (
{
closed = 1;
nodes = (
"476 852 LINE",
"470 859 LINE",
"465 859 OFFCURVE",
"456 851 OFFCURVE",
"452 848 CURVE",
"402 855 OFFCURVE",
"354 855 OFFCURVE",
"307 855 CURVE SMOOTH",
"188 855 OFFCURVE",
"172 831 OFFCURVE",
"141 725 CURVE",
"142 718 LINE",
"145 717 LINE",
"174 718 OFFCURVE",
"161 789 OFFCURVE",
"249 789 CURVE SMOOTH",
"303 789 OFFCURVE",
"356 787 OFFCURVE",
"409 785 CURVE",
"371 738 OFFCURVE",
"24 328 OFFCURVE",
"23 289 CURVE",
"24 285 LINE",
"31 283 LINE",
"51 284 OFFCURVE",
"87 283 OFFCURVE",
"102 292 CURVE SMOOTH",
"106 295 OFFCURVE",
"146 366 OFFCURVE",
"151 374 CURVE SMOOTH",
"209 461 OFFCURVE",
"260 553 OFFCURVE",
"322 637 CURVE SMOOTH",
"374 706 OFFCURVE",
"427 775 OFFCURVE",
"474 846 CURVE"
);
}
);
width = 490;
}
);
note = seven;
unicode = 0037;
},
{
glyphname = eight;
lastChange = "2021-04-19 01:04:02 +0000";
layers = (
{
hints = (
{
horizontal = 1;
place = "{-11, 21}";
type = Stem;
},
{
horizontal = 1;
place = "{580, -20}";
target = down;
type = TopGhost;
},
{
place = "{15, 47}";
type = Stem;
},
{
place = "{267, 64}";
type = Stem;
},
{
place = "{427, 36}";
type = Stem;
}
);
layerId = "61E7180A-0B32-4047-B910-001D8BB62225";
paths = (
{
closed = 1;
nodes = (
"464 844 OFFCURVE",
"421 867 OFFCURVE",
"371 867 CURVE SMOOTH",
"284 867 OFFCURVE",
"202 792 OFFCURVE",
"202 704 CURVE SMOOTH",
"202 677 OFFCURVE",
"208 649 OFFCURVE",
"220 623 CURVE",
"149 571 OFFCURVE",
"15 469 OFFCURVE",
"15 374 CURVE SMOOTH",
"15 310 OFFCURVE",
"71 276 OFFCURVE",
"129 276 CURVE SMOOTH",
"225 276 OFFCURVE",
"331 360 OFFCURVE",
"331 461 CURVE SMOOTH",
"331 505 OFFCURVE",
"330 533 OFFCURVE",
"312 574 CURVE",
"370 624 OFFCURVE",
"464 706 OFFCURVE",
"464 791 CURVE SMOOTH"
);
},
{
closed = 1;
nodes = (
"427 717 OFFCURVE",
"359 638 OFFCURVE",
"304 594 CURVE",
"289 634 OFFCURVE",
"268 693 OFFCURVE",
"268 737 CURVE SMOOTH",
"268 792 OFFCURVE",
"315 847 OFFCURVE",
"373 847 CURVE SMOOTH",
"407 847 OFFCURVE",
"427 827 OFFCURVE",
"427 791 CURVE SMOOTH"
);
},
{
closed = 1;
nodes = (
"267 373 OFFCURVE",
"206 297 OFFCURVE",
"131 297 CURVE SMOOTH",
"84 297 OFFCURVE",
"60 327 OFFCURVE",
"60 371 CURVE SMOOTH",
"60 468 OFFCURVE",
"154 552 OFFCURVE",
"224 604 CURVE",
"244 557 OFFCURVE",
"267 494 OFFCURVE",
"267 445 CURVE SMOOTH"
);
}
);
width = 422;
}
);
note = eight;
unicode = 0038;
},
{
glyphname = nine;
lastChange = "2021-04-19 01:04:02 +0000";
layers = (
{
hints = (
{
horizontal = 1;
place = "{209, 59}";
type = Stem;
},
{
horizontal = 1;
place = "{559, 21}";
target = up;
type = BottomGhost;
},
{
place = "{75, 58}";
type = Stem;
},
{
place = "{381, 60}";
type = Stem;
}
);
layerId = "61E7180A-0B32-4047-B910-001D8BB62225";
paths = (
{
closed = 1;
nodes = (
"441 807 OFFCURVE",
"411 867 OFFCURVE",
"342 867 CURVE SMOOTH",
"226 867 OFFCURVE",
"75 689 OFFCURVE",
"75 575 CURVE SMOOTH",
"75 531 OFFCURVE",
"99 497 OFFCURVE",
"146 497 CURVE SMOOTH",
"235 497 OFFCURVE",
"308 619 OFFCURVE",
"336 691 CURVE",
"335 697 LINE",
"324 698 LINE",
"320 694 LINE",
"296 639 OFFCURVE",
"252 555 OFFCURVE",
"182 555 CURVE SMOOTH",
"147 555 OFFCURVE",
"131 579 OFFCURVE",
"131 611 CURVE SMOOTH",
"131 699 OFFCURVE",
"229 847 OFFCURVE",
"324 847 CURVE SMOOTH",
"367 847 OFFCURVE",
"381 815 OFFCURVE",
"381 777 CURVE SMOOTH",
"381 753 OFFCURVE",
"377 728 OFFCURVE",
"370 705 CURVE SMOOTH",
"324 524 OFFCURVE",
"212 386 OFFCURVE",
"63 280 CURVE",
"59 275 LINE",
"63 265 LINE",
"70 265 LINE",
"213 360 OFFCURVE",
"441 559 OFFCURVE",
"441 746 CURVE SMOOTH"
);
}
);
width = 437;
}
);
note = nine;
unicode = 0039;
},
{
glyphname = colon;
lastChange = "2021-04-19 01:04:02 +0000";
layers = (
{
hints = (
{
horizontal = 1;
place = "{-15, 83}";
type = Stem;
},
{
horizontal = 1;
place = "{212, 83}";
type = Stem;
}
);
layerId = "61E7180A-0B32-4047-B910-001D8BB62225";
paths = (
{
closed = 1;
nodes = (
"260 563 OFFCURVE",
"244 582 OFFCURVE",
"221 582 CURVE SMOOTH",
"198 582 OFFCURVE",
"176 563 OFFCURVE",
"173 540 CURVE SMOOTH",
"169 517 OFFCURVE",
"184 498 OFFCURVE",
"208 498 CURVE SMOOTH",
"230 498 OFFCURVE",
"252 517 OFFCURVE",
"256 540 CURVE SMOOTH"
);
},
{
closed = 1;
nodes = (
"149 338 OFFCURVE",
"134 356 OFFCURVE",
"111 356 CURVE SMOOTH",
"87 356 OFFCURVE",
"67 338 OFFCURVE",
"63 315 CURVE SMOOTH",
"59 292 OFFCURVE",
"75 273 OFFCURVE",
"96 273 CURVE SMOOTH",
"119 273 OFFCURVE",
"142 292 OFFCURVE",
"145 315 CURVE SMOOTH"
);
}
);
width = 257;
}
);
note = colon;
unicode = 003A;
},
{
glyphname = semicolon;
lastChange = "2021-04-19 01:04:02 +0000";
layers = (
{
hints = (
{
horizontal = 1;
place = "{-15, 83}";
type = Stem;
},
{
horizontal = 1;
place = "{212, 83}";
type = Stem;
},
{
place = "{126, 27}";
type = Stem;
}
);
layerId = "61E7180A-0B32-4047-B910-001D8BB62225";
paths = (
{
closed = 1;
nodes = (
"260 563 OFFCURVE",
"244 582 OFFCURVE",
"221 582 CURVE SMOOTH",
"198 582 OFFCURVE",
"176 563 OFFCURVE",
"173 540 CURVE SMOOTH",
"169 517 OFFCURVE",
"184 498 OFFCURVE",
"208 498 CURVE SMOOTH",
"230 498 OFFCURVE",
"252 517 OFFCURVE",
"256 540 CURVE SMOOTH"
);
},
{
closed = 1;
nodes = (
"151 328 OFFCURVE",
"139 356 OFFCURVE",
"111 356 CURVE SMOOTH",
"87 356 OFFCURVE",
"67 338 OFFCURVE",
"63 315 CURVE SMOOTH",
"59 292 OFFCURVE",
"75 273 OFFCURVE",
"96 273 CURVE SMOOTH",
"107 273 OFFCURVE",
"117 277 OFFCURVE",
"126 284 CURVE",
"119 239 OFFCURVE",
"86 208 OFFCURVE",
"48 196 CURVE SMOOTH",
"36 192 OFFCURVE",
"39 180 OFFCURVE",
"51 185 CURVE SMOOTH",
"94 200 OFFCURVE",
"151 236 OFFCURVE",
"151 302 CURVE SMOOTH"
);
}
);
width = 256;
}
);
note = semicolon;
unicode = 003B;
},
{
glyphname = less;
lastChange = "2021-04-19 01:04:02 +0000";
layers = (
{
hints = (
{
horizontal = 1;
place = "{21, 21}";
target = up;
type = BottomGhost;
}
);
layerId = "61E7180A-0B32-4047-B910-001D8BB62225";
paths = (
{
closed = 1;
nodes = (
"334 594 LINE",
"327 596 LINE",
"316 598 OFFCURVE",
"135 481 OFFCURVE",
"113 468 CURVE",
"125 417 OFFCURVE",
"131 359 OFFCURVE",
"151 312 CURVE",
"153 310 OFFCURVE",
"155 308 OFFCURVE",
"159 308 CURVE",
"166 312 LINE",
"172 322 LINE",
"172 458 LINE",
"200 480 OFFCURVE",
"316 556 OFFCURVE",
"335 586 CURVE"
);
}
);
width = 331;
}
);
note = less;
unicode = 003C;
},
{
glyphname = equal;
lastChange = "2021-04-19 01:04:02 +0000";
layers = (
{
hints = (
{
horizontal = 1;
place = "{196, 48}";
type = Stem;
},
{
horizontal = 1;
place = "{296, 48}";
type = Stem;
},
{
place = "{147, 264}";
type = Stem;
}
);
layerId = "61E7180A-0B32-4047-B910-001D8BB62225";
paths = (
{
closed = 1;
nodes = (
"411 632 OFFCURVE",
"327 631 OFFCURVE",
"312 631 CURVE SMOOTH",
"165 631 LINE SMOOTH",
"154 631 OFFCURVE",
"147 622 OFFCURVE",
"147 612 CURVE SMOOTH",
"147 603 OFFCURVE",
"153 583 OFFCURVE",
"165 583 CURVE SMOOTH",
"192 583 OFFCURVE",
"216 590 OFFCURVE",
"243 592 CURVE SMOOTH",
"292 598 OFFCURVE",
"344 600 OFFCURVE",
"394 600 CURVE SMOOTH",
"401 600 OFFCURVE",
"411 602 OFFCURVE",
"411 611 CURVE SMOOTH"
);
},
{
closed = 1;
nodes = (
"411 532 OFFCURVE",
"327 531 OFFCURVE",
"312 531 CURVE SMOOTH",
"165 531 LINE SMOOTH",
"154 531 OFFCURVE",
"147 521 OFFCURVE",
"147 512 CURVE SMOOTH",
"147 503 OFFCURVE",
"153 482 OFFCURVE",
"165 482 CURVE SMOOTH",
"192 482 OFFCURVE",
"216 489 OFFCURVE",
"243 492 CURVE SMOOTH",
"292 497 OFFCURVE",
"344 500 OFFCURVE",
"394 500 CURVE SMOOTH",
"401 500 OFFCURVE",
"411 501 OFFCURVE",
"411 511 CURVE SMOOTH"
);
}
);
width = 461;
}
);
note = equal;
unicode = 003D;
},
{
glyphname = greater;
lastChange = "2021-04-19 01:04:02 +0000";
layers = (
{
hints = (
{
horizontal = 1;
place = "{21, 21}";
target = up;
type = BottomGhost;
},
{
horizontal = 1;
place = "{308, -20}";
target = down;
type = TopGhost;
}
);
layerId = "61E7180A-0B32-4047-B910-001D8BB62225";
paths = (
{
closed = 1;
nodes = (
"249 438 LINE",
"239 488 OFFCURVE",
"232 545 OFFCURVE",
"213 592 CURVE",
"204 596 LINE",
"196 592 LINE",
"194 590 OFFCURVE",
"193 586 OFFCURVE",
"192 583 CURVE",
"190 446 LINE",
"186 444 OFFCURVE",
"27 336 OFFCURVE",
"27 315 CURVE",
"28 311 LINE",
"31 310 OFFCURVE",
"35 308 OFFCURVE",
"36 308 CURVE SMOOTH",
"43 310 LINE"
);
}
);
width = 331;
}
);
note = greater;
unicode = 003E;
},
{
glyphname = question;
lastChange = "2021-04-19 01:04:02 +0000";
layers = (
{
hints = (
{
horizontal = 1;
place = "{-15, 83}";
type = Stem;
},
{
horizontal = 1;
place = "{607, 44}";
type = Stem;
},
{
place = "{208, 117}";
type = Stem;
},
{
place = "{419, 72}";
type = Stem;
}
);
layerId = "61E7180A-0B32-4047-B910-001D8BB62225";
paths = (
{
closed = 1;
nodes = (
"582 910 OFFCURVE",
"429 988 OFFCURVE",
"288 907 CURVE SMOOTH",
"261 891 OFFCURVE",
"228 871 OFFCURVE",
"216 842 CURVE SMOOTH",
"186 772 OFFCURVE",
"248 730 OFFCURVE",
"302 771 CURVE SMOOTH",
"348 807 OFFCURVE",
"320 876 OFFCURVE",
"261 844 CURVE SMOOTH",
"245 835 OFFCURVE",
"230 824 OFFCURVE",
"226 808 CURVE",
"222 832 OFFCURVE",
"252 863 OFFCURVE",
"283 878 CURVE SMOOTH",
"381 925 OFFCURVE",
"473 871 OFFCURVE",
"385 758 CURVE SMOOTH",
"310 666 OFFCURVE",
"206 556 OFFCURVE",
"182 456 CURVE SMOOTH",
"180 442 OFFCURVE",
"196 437 OFFCURVE",
"201 449 CURVE SMOOTH",
"252 584 OFFCURVE",
"340 635 OFFCURVE",
"426 734 CURVE SMOOTH"
);
},
{
closed = 1;
nodes = (
"208 338 OFFCURVE",
"192 356 OFFCURVE",
"169 356 CURVE SMOOTH",
"146 356 OFFCURVE",
"123 338 OFFCURVE",
"121 315 CURVE SMOOTH",
"117 292 OFFCURVE",
"131 273 OFFCURVE",
"155 273 CURVE SMOOTH",
"178 273 OFFCURVE",
"200 292 OFFCURVE",
"204 315 CURVE SMOOTH"
);
}
);
width = 385;
}
);
note = question;
unicode = 003F;
},
{
glyphname = at;
lastChange = "2021-04-19 01:04:02 +0000";
layers = (
{
hints = (
{
horizontal = 1;
place = "{-149, 23}";
type = Stem;
},
{
horizontal = 1;
place = "{39, 35}";
type = Stem;
},
{
horizontal = 1;
place = "{461, 31}";
type = Stem;
},
{
horizontal = 1;
place = "{662, 21}";
target = up;
type = BottomGhost;
},
{
place = "{76, 48}";
type = Stem;
},
{
place = "{283, 58}";
type = Stem;
},
{
place = "{907, 40}";
type = Stem;
}
);
layerId = "61E7180A-0B32-4047-B910-001D8BB62225";
paths = (
{
closed = 1;
nodes = (
"934 903 OFFCURVE",
"768 970 OFFCURVE",
"616 970 CURVE SMOOTH",
"336 970 OFFCURVE",
"54 722 OFFCURVE",
"76 431 CURVE SMOOTH",
"94 224 OFFCURVE",
"268 139 OFFCURVE",
"453 139 CURVE SMOOTH",
"575 139 OFFCURVE",
"686 180 OFFCURVE",
"783 244 CURVE",
"799 252 OFFCURVE",
"783 272 OFFCURVE",
"771 260 CURVE",
"682 200 OFFCURVE",
"574 161 OFFCURVE",
"461 161 CURVE SMOOTH",
"300 161 OFFCURVE",
"139 240 OFFCURVE",
"126 419 CURVE SMOOTH",
"103 694 OFFCURVE",
"346 949 OFFCURVE",
"618 949 CURVE SMOOTH",
"758 949 OFFCURVE",
"894 890 OFFCURVE",
"907 730 CURVE SMOOTH",
"915 610 OFFCURVE",
"858 478 OFFCURVE",
"768 406 CURVE SMOOTH",
"710 359 OFFCURVE",
"565 307 OFFCURVE",
"592 434 CURVE SMOOTH",
"607 511 OFFCURVE",
"682 645 OFFCURVE",
"710 670 CURVE",
"691 667 OFFCURVE",
"673 675 OFFCURVE",
"657 677 CURVE SMOOTH",
"616 679 OFFCURVE",
"598 649 OFFCURVE",
"570 594 CURVE SMOOTH",
"537 533 OFFCURVE",
"503 470 OFFCURVE",
"457 417 CURVE SMOOTH",
"398 348 OFFCURVE",
"328 336 OFFCURVE",
"340 425 CURVE SMOOTH",
"348 473 OFFCURVE",
"382 536 OFFCURVE",
"393 553 CURVE SMOOTH",
"438 628 OFFCURVE",
"504 702 OFFCURVE",
"561 734 CURVE SMOOTH",
"607 760 OFFCURVE",
"655 750 OFFCURVE",
"670 702 CURVE",
"690 698 OFFCURVE",
"699 720 OFFCURVE",
"682 738 CURVE SMOOTH",
"610 819 OFFCURVE",
"465 771 OFFCURVE",
"389 681 CURVE SMOOTH",
"198 453 OFFCURVE",
"293 230 OFFCURVE",
"440 370 CURVE SMOOTH",
"477 406 OFFCURVE",
"511 456 OFFCURVE",
"531 489 CURVE",
"493 356 OFFCURVE",
"568 330 OFFCURVE",
"610 332 CURVE SMOOTH",
"659 332 OFFCURVE",
"737 356 OFFCURVE",
"773 386 CURVE SMOOTH",
"874 466 OFFCURVE",
"958 596 OFFCURVE",
"947 732 CURVE SMOOTH"
);
}
);
width = 961;
}
);
note = at;
unicode = 0040;
},
{
glyphname = A;
lastChange = "2021-04-19 01:04:44 +0000";
layers = (
{
background = {
paths = (
{
closed = 1;
nodes = (
"665 734 LINE",
"631 734 OFFCURVE",
"566 601 OFFCURVE",
"493 512 CURVE SMOOTH",
"444 454 OFFCURVE",
"394 403 OFFCURVE",
"344 360 CURVE SMOOTH",
"272 302 OFFCURVE",
"210 272 OFFCURVE",
"156 272 CURVE SMOOTH",
"108 272 OFFCURVE",
"80 300 OFFCURVE",
"72 355 CURVE SMOOTH",
"71 361 OFFCURVE",
"71 368 OFFCURVE",
"71 375 CURVE SMOOTH",
"71 410 OFFCURVE",
"83 459 OFFCURVE",
"109 522 CURVE SMOOTH",
"134 585 OFFCURVE",
"180 664 OFFCURVE",
"248 759 CURVE",
"306 741 OFFCURVE",
"379 731 OFFCURVE",
"467 731 CURVE SMOOTH",
"556 731 OFFCURVE",
"632 743 OFFCURVE",
"696 765 CURVE SMOOTH",
"738 780 OFFCURVE",
"770 797 OFFCURVE",
"793 817 CURVE SMOOTH",
"838 855 OFFCURVE",
"861 895 OFFCURVE",
"861 935 CURVE SMOOTH",
"861 1010 OFFCURVE",
"794 1062 OFFCURVE",
"689 1062 CURVE SMOOTH",
"520 1062 OFFCURVE",
"357 975 OFFCURVE",
"201 801 CURVE",
"126 836 OFFCURVE",
"87 884 OFFCURVE",
"87 920 CURVE SMOOTH",
"87 928 OFFCURVE",
"89 937 OFFCURVE",
"92 945 CURVE SMOOTH",
"96 954 OFFCURVE",
"96 961 OFFCURVE",
"92 967 CURVE",
"86 973 OFFCURVE",
"80 971 OFFCURVE",
"74 962 CURVE",
"64 956 OFFCURVE",
"59 940 OFFCURVE",
"59 914 CURVE SMOOTH",
"59 889 OFFCURVE",
"67 867 OFFCURVE",
"83 849 CURVE SMOOTH",
"105 825 OFFCURVE",
"138 802 OFFCURVE",
"183 780 CURVE",
"151 744 OFFCURVE",
"121 701 OFFCURVE",
"95 653 CURVE SMOOTH",
"44 563 OFFCURVE",
"19 479 OFFCURVE",
"19 401 CURVE SMOOTH",
"19 323 OFFCURVE",
"43 274 OFFCURVE",
"91 254 CURVE",
"106 246 OFFCURVE",
"119 242 OFFCURVE",
"130 242 CURVE SMOOTH",
"141 242 OFFCURVE",
"149 243 OFFCURVE",
"154 243 CURVE SMOOTH",
"202 248 OFFCURVE",
"247 263 OFFCURVE",
"287 287 CURVE SMOOTH",
"363 336 OFFCURVE",
"434 401 OFFCURVE",
"502 481 CURVE",
"479 451 OFFCURVE",
"464 389 OFFCURVE",
"464 331 CURVE SMOOTH",
"464 303 OFFCURVE",
"470 278 OFFCURVE",
"484 257 CURVE SMOOTH",
"510 215 OFFCURVE",
"571 218 OFFCURVE",
"623 250 CURVE SMOOTH",
"649 266 OFFCURVE",
"672 287 OFFCURVE",
"690 311 CURVE SMOOTH",
"724 357 OFFCURVE",
"755 411 OFFCURVE",
"783 471 CURVE SMOOTH",
"792 493 OFFCURVE",
"776 497 OFFCURVE",
"766 475 CURVE SMOOTH",
"746 429 OFFCURVE",
"717 382 OFFCURVE",
"679 333 CURVE SMOOTH",
"636 281 OFFCURVE",
"599 255 OFFCURVE",
"567 255 CURVE SMOOTH",
"545 255 OFFCURVE",
"526 276 OFFCURVE",
"526 322 CURVE SMOOTH",
"526 382 OFFCURVE",
"544 450 OFFCURVE",
"582 524 CURVE SMOOTH",
"606 574 OFFCURVE",
"633 615 OFFCURVE",
"663 647 CURVE SMOOTH",
"679 665 OFFCURVE",
"688 685 OFFCURVE",
"688 705 CURVE SMOOTH",
"688 725 OFFCURVE",
"680 734 OFFCURVE",
"665 734 CURVE"
);
},
{
closed = 1;
nodes = (
"820 947 LINE",
"820 897 OFFCURVE",
"795 855 OFFCURVE",
"747 821 CURVE SMOOTH",
"684 777 OFFCURVE",
"584 755 OFFCURVE",
"448 755 CURVE SMOOTH",
"375 755 OFFCURVE",
"314 763 OFFCURVE",
"264 779 CURVE",
"328 855 OFFCURVE",
"377 905 OFFCURVE",
"448 957 CURVE SMOOTH",
"484 983 OFFCURVE",
"522 1003 OFFCURVE",
"563 1016 CURVE SMOOTH",
"638 1041 OFFCURVE",
"735 1045 OFFCURVE",
"784 1013 CURVE SMOOTH",
"808 998 OFFCURVE",
"820 976 OFFCURVE",
"820 947 CURVE"
);
}
);
};
hints = (
{
horizontal = 1;
place = "{750, 27}";
type = Stem;
},
{
place = "{823, 42}";
type = Stem;
}
);
layerId = "61E7180A-0B32-4047-B910-001D8BB62225";
paths = (
{
closed = 1;
nodes = (
"864 1012 OFFCURVE",
"799 1064 OFFCURVE",
"691 1064 CURVE SMOOTH",
"496 1064 OFFCURVE",
"328 943 OFFCURVE",
"201 803 CURVE",
"165 819 OFFCURVE",
"135 840 OFFCURVE",
"113 866 CURVE SMOOTH",
"90 891 OFFCURVE",
"79 915 OFFCURVE",
"91 945 CURVE SMOOTH",
"103 969 OFFCURVE",
"86 980 OFFCURVE",
"74 963 CURVE",
"51 947 OFFCURVE",
"55 883 OFFCURVE",
"83 851 CURVE SMOOTH",
"107 823 OFFCURVE",
"143 800 OFFCURVE",
"184 781 CURVE",
"149 742 OFFCURVE",
"119 698 OFFCURVE",
"95 654 CURVE SMOOTH",
"-7 472 OFFCURVE",
"-7 293 OFFCURVE",
"91 252 CURVE SMOOTH",
"233 192 OFFCURVE",
"421 383 OFFCURVE",
"504 481 CURVE",
"458 421 OFFCURVE",
"433 224 OFFCURVE",
"545 224 CURVE SMOOTH",
"602 224 OFFCURVE",
"658 264 OFFCURVE",
"693 310 CURVE SMOOTH",
"730 359 OFFCURVE",
"768 430 OFFCURVE",
"787 470 CURVE SMOOTH",
"797 494 OFFCURVE",
"779 493 OFFCURVE",
"769 474 CURVE SMOOTH",
"746 425 OFFCURVE",
"713 373 OFFCURVE",
"682 332 CURVE SMOOTH",
"602 233 OFFCURVE",
"503 208 OFFCURVE",
"533 378 CURVE SMOOTH",
"552 477 OFFCURVE",
"610 584 OFFCURVE",
"666 647 CURVE SMOOTH",
"724 710 OFFCURVE",
"670 792 OFFCURVE",
"608 675 CURVE SMOOTH",
"555 578 OFFCURVE",
"449 446 OFFCURVE",
"344 359 CURVE SMOOTH",
"159 205 OFFCURVE",
"0 251 OFFCURVE",
"103 507 CURVE SMOOTH",
"139 596 OFFCURVE",
"212 709 OFFCURVE",
"248 760 CURVE",
"343 730 OFFCURVE",
"438 726 OFFCURVE",
"552 737 CURVE SMOOTH",
"787 758 OFFCURVE",
"864 863 OFFCURVE",
"864 937 CURVE SMOOTH"
);
},
{
closed = 1;
nodes = (
"823 850 OFFCURVE",
"718 775 OFFCURVE",
"552 761 CURVE SMOOTH",
"425 750 OFFCURVE",
"343 754 OFFCURVE",
"264 780 CURVE",
"377 915 OFFCURVE",
"507 1039 OFFCURVE",
"694 1039 CURVE SMOOTH",
"768 1039 OFFCURVE",
"823 1008 OFFCURVE",
"823 949 CURVE SMOOTH"
);
}
);
width = 716;
}
);
note = A;
unicode = 0041;
},
{
glyphname = B;
lastChange = "2021-04-19 01:05:45 +0000";
layers = (
{
background = {
paths = (
{
closed = 1;
nodes = (
"964 615 QCURVE SMOOTH",
"909 651 OFFCURVE",
"845 671 QCURVE",
"911 674 OFFCURVE",
"1041 725 OFFCURVE",
"1070 775 QCURVE SMOOTH",
"1092 813 OFFCURVE",
"1092 888 OFFCURVE",
"1060 924 QCURVE SMOOTH",
"1000 989 OFFCURVE",
"864 1024 QCURVE",
"868 1034 OFFCURVE",
"905 1058 OFFCURVE",
"912 1071 OFFCURVE",
"906 1071 QCURVE",
"905 1072 OFFCURVE",
"898 1072 OFFCURVE",
"856 1056 OFFCURVE",
"828 1032 QCURVE",
"725 1054 OFFCURVE",
"526 1054 OFFCURVE",
"434 1041 QCURVE SMOOTH",
"244 1014 OFFCURVE",
"146 904 QCURVE SMOOTH",
"85 837 OFFCURVE",
"85 768 QCURVE SMOOTH",
"85 667 OFFCURVE",
"191 630 QCURVE",
"243 621 LINE",
"284 621 OFFCURVE",
"325 643 QCURVE SMOOTH",
"392 681 OFFCURVE",
"403 754 QCURVE SMOOTH",
"403 755 LINE SMOOTH",
"402 768 OFFCURVE",
"392 769 QCURVE SMOOTH",
"382 769 OFFCURVE",
"382 748 OFFCURVE",
"361 706 OFFCURVE",
"314 661 OFFCURVE",
"264 647 OFFCURVE",
"226 647 OFFCURVE",
"201 654 QCURVE SMOOTH",
"130 676 OFFCURVE",
"130 749 QCURVE SMOOTH",
"130 804 OFFCURVE",
"181 865 QCURVE SMOOTH",
"265 966 OFFCURVE",
"421 999 QCURVE SMOOTH",
"535 1024 OFFCURVE",
"725 1024 OFFCURVE",
"804 1010 QCURVE",
"747 945 LINE SMOOTH",
"690 882 OFFCURVE",
"580 702 OFFCURVE",
"509 555 OFFCURVE",
"415 402 OFFCURVE",
"371 359 QCURVE",
"347 371 OFFCURVE",
"247 425 OFFCURVE",
"179 449 OFFCURVE",
"137 449 QCURVE SMOOTH",
"73 449 OFFCURVE",
"37 409 QCURVE SMOOTH",
"14 383 OFFCURVE",
"14 337 OFFCURVE",
"21 320 QCURVE SMOOTH",
"52 248 OFFCURVE",
"182 248 QCURVE SMOOTH",
"292 248 OFFCURVE",
"391 321 QCURVE",
"500 272 OFFCURVE",
"657 252 QCURVE SMOOTH",
"681 249 OFFCURVE",
"706 249 QCURVE SMOOTH",
"774 249 OFFCURVE",
"846 272 QCURVE SMOOTH",
"943 303 OFFCURVE",
"1001 373 QCURVE SMOOTH",
"1042 422 OFFCURVE",
"1042 479 QCURVE SMOOTH",
"1042 564 OFFCURVE"
);
},
{
closed = 1;
nodes = (
"656 279 QCURVE SMOOTH",
"526 292 OFFCURVE",
"413 339 QCURVE",
"451 375 LINE",
"525 455 OFFCURVE",
"799 926 OFFCURVE",
"852 999 QCURVE",
"1028 958 OFFCURVE",
"1028 864 QCURVE SMOOTH",
"1028 820 OFFCURVE",
"983 770 QCURVE SMOOTH",
"955 739 OFFCURVE",
"876 700 OFFCURVE",
"820 699 OFFCURVE",
"742 705 OFFCURVE",
"723 705 QCURVE SMOOTH",
"694 704 OFFCURVE",
"694 685 QCURVE",
"698 676 OFFCURVE",
"755 656 OFFCURVE",
"848 627 OFFCURVE",
"880 612 QCURVE SMOOTH",
"967 570 OFFCURVE",
"967 488 QCURVE SMOOTH",
"967 409 OFFCURVE",
"882 341 QCURVE SMOOTH",
"804 277 OFFCURVE",
"692 277 QCURVE SMOOTH",
"675 277 OFFCURVE"
);
},
{
closed = 1;
nodes = (
"173 279 QCURVE SMOOTH",
"103 279 OFFCURVE",
"81 324 QCURVE SMOOTH",
"73 340 OFFCURVE",
"73 375 OFFCURVE",
"109 418 OFFCURVE",
"170 418 OFFCURVE",
"232 396 OFFCURVE",
"349 340 QCURVE",
"268 279 OFFCURVE"
);
}
);
};
hints = (
{
horizontal = 1;
place = "{386, 28}";
type = Stem;
}
);
layerId = "61E7180A-0B32-4047-B910-001D8BB62225";
paths = (
{
closed = 1;
nodes = (
"1140 895 OFFCURVE",
"1037 984 OFFCURVE",
"864 1028 CURVE",
"867 1033 OFFCURVE",
"880 1047 OFFCURVE",
"894 1056 CURVE SMOOTH",
"918 1071 OFFCURVE",
"915 1084 OFFCURVE",
"883 1071 CURVE SMOOTH",
"867 1064 OFFCURVE",
"846 1052 OFFCURVE",
"828 1036 CURVE",
"712 1061 OFFCURVE",
"572 1065 OFFCURVE",
"433 1045 CURVE SMOOTH",
"79 996 OFFCURVE",
"-17 704 OFFCURVE",
"188 632 CURVE SMOOTH",
"276 602 OFFCURVE",
"386 658 OFFCURVE",
"401 757 CURVE SMOOTH",
"401 758 LINE SMOOTH",
"401 780 OFFCURVE",
"381 772 OFFCURVE",
"381 766 CURVE",
"385 737 OFFCURVE",
"316 619 OFFCURVE",
"198 657 CURVE SMOOTH",
"50 702 OFFCURVE",
"141 943 OFFCURVE",
"419 1004 CURVE SMOOTH",
"555 1032 OFFCURVE",
"693 1033 OFFCURVE",
"804 1014 CURVE",
"746 949 LINE SMOOTH",
"575 758 OFFCURVE",
"503 489 OFFCURVE",
"369 360 CURVE",
"306 391 OFFCURVE",
"260 421 OFFCURVE",
"224 434 CURVE SMOOTH",
"-3 513 OFFCURVE",
"-72 276 OFFCURVE",
"133 252 CURVE SMOOTH",
"224 240 OFFCURVE",
"312 264 OFFCURVE",
"389 322 CURVE",
"452 293 OFFCURVE",
"529 268 OFFCURVE",
"657 252 CURVE SMOOTH",
"838 230 OFFCURVE",
"1089 347 OFFCURVE",
"1036 531 CURVE SMOOTH",
"1013 606 OFFCURVE",
"911 653 OFFCURVE",
"846 674 CURVE",
"921 677 OFFCURVE",
"1028 705 OFFCURVE",
"1072 779 CURVE SMOOTH"
);
},
{
closed = 1;
nodes = (
"1132 886 OFFCURVE",
"963 704 OFFCURVE",
"839 702 CURVE SMOOTH",
"761 702 OFFCURVE",
"694 722 OFFCURVE",
"694 687 CURVE",
"704 666 OFFCURVE",
"803 653 OFFCURVE",
"880 614 CURVE SMOOTH",
"1076 521 OFFCURVE",
"918 256 OFFCURVE",
"655 280 CURVE SMOOTH",
"552 289 OFFCURVE",
"473 314 OFFCURVE",
"411 340 CURVE",
"425 352 OFFCURVE",
"437 363 OFFCURVE",
"449 377 CURVE SMOOTH",
"583 521 OFFCURVE",
"718 819 OFFCURVE",
"852 1004 CURVE",
"887 996 OFFCURVE",
"919 985 OFFCURVE",
"947 972 CURVE SMOOTH"
);
},
{
closed = 1;
nodes = (
"293 300 OFFCURVE",
"232 276 OFFCURVE",
"158 280 CURVE SMOOTH",
"27 287 OFFCURVE",
"44 461 OFFCURVE",
"198 409 CURVE SMOOTH",
"257 387 OFFCURVE",
"300 363 OFFCURVE",
"347 340 CURVE"
);
}
);
width = 1047;
}
);
note = B;
unicode = 0042;
},
{
glyphname = C;
lastChange = "2021-04-19 01:04:02 +0000";
layers = (
{
hints = (
{
horizontal = 1;
place = "{-102, 35}";
type = Stem;
},
{
horizontal = 1;
place = "{204, -20}";
target = down;
type = TopGhost;
},
{
horizontal = 1;
place = "{308, 27}";
type = Stem;
},
{
horizontal = 1;
place = "{745, 39}";
type = Stem;
},
{
place = "{59, 67}";
type = Stem;
},
{
place = "{166, 27}";
type = Stem;
},
{
place = "{809, 46}";
type = Stem;
}
);
layerId = "61E7180A-0B32-4047-B910-001D8BB62225";
paths = (
{
closed = 1;
nodes = (
"795 492 OFFCURVE",
"780 498 OFFCURVE",
"772 481 CURVE SMOOTH",
"730 395 OFFCURVE",
"694 330 OFFCURVE",
"607 279 CURVE SMOOTH",
"508 220 OFFCURVE",
"378 204 OFFCURVE",
"271 236 CURVE SMOOTH",
"9 316 OFFCURVE",
"174 724 OFFCURVE",
"210 771 CURVE",
"263 662 OFFCURVE",
"355 615 OFFCURVE",
"460 600 CURVE SMOOTH",
"874 540 OFFCURVE",
"1016 1024 OFFCURVE",
"624 1068 CURVE SMOOTH",
"465 1085 OFFCURVE",
"315 1024 OFFCURVE",
"206 883 CURVE",
"196 938 OFFCURVE",
"188 1012 OFFCURVE",
"198 1075 CURVE SMOOTH",
"204 1103 OFFCURVE",
"182 1096 OFFCURVE",
"178 1080 CURVE SMOOTH",
"158 1005 OFFCURVE",
"166 911 OFFCURVE",
"182 850 CURVE",
"43 674 OFFCURVE",
"-21 324 OFFCURVE",
"232 217 CURVE SMOOTH",
"377 155 OFFCURVE",
"520 192 OFFCURVE",
"622 263 CURVE SMOOTH",
"708 323 OFFCURVE",
"741 383 OFFCURVE",
"784 472 CURVE SMOOTH"
);
},
{
closed = 1;
nodes = (
"927 988 OFFCURVE",
"838 584 OFFCURVE",
"474 624 CURVE SMOOTH",
"364 637 OFFCURVE",
"276 687 OFFCURVE",
"230 803 CURVE",
"330 955 OFFCURVE",
"484 1052 OFFCURVE",
"634 1029 CURVE SMOOTH"
);
}
);
width = 714;
}
);
note = C;
unicode = 0043;
},
{
glyphname = D;
lastChange = "2021-04-19 01:04:02 +0000";
layers = (
{
hints = (
{
horizontal = 1;
place = "{-39, 31}";
type = Stem;
},
{
horizontal = 1;
place = "{130, 34}";
type = Stem;
},
{
horizontal = 1;
place = "{336, 27}";
type = Stem;
},
{
horizontal = 1;
place = "{734, 31}";
type = Stem;
},
{
place = "{71, 47}";
type = Stem;
},
{
place = "{373, 20}";
type = Stem;
},
{
place = "{4, 66}";
type = Stem;
}
);
layerId = "61E7180A-0B32-4047-B910-001D8BB62225";
paths = (
{
closed = 1;
nodes = (
"1048 718 OFFCURVE",
"959 870 OFFCURVE",
"823 959 CURVE",
"839 984 OFFCURVE",
"855 1008 OFFCURVE",
"870 1028 CURVE SMOOTH",
"872 1032 OFFCURVE",
"886 1047 OFFCURVE",
"899 1056 CURVE SMOOTH",
"923 1071 OFFCURVE",
"921 1084 OFFCURVE",
"888 1071 CURVE SMOOTH",
"871 1064 OFFCURVE",
"821 1029 OFFCURVE",
"804 1014 CURVE",
"779 985 LINE",
"674 1040 OFFCURVE",
"549 1064 OFFCURVE",
"425 1045 CURVE SMOOTH",
"11 985 OFFCURVE",
"5 694 OFFCURVE",
"181 632 CURVE SMOOTH",
"269 602 OFFCURVE",
"379 658 OFFCURVE",
"393 757 CURVE SMOOTH",
"397 776 OFFCURVE",
"374 776 OFFCURVE",
"373 766 CURVE SMOOTH",
"371 730 OFFCURVE",
"310 619 OFFCURVE",
"192 657 CURVE SMOOTH",
"43 702 OFFCURVE",
"127 951 OFFCURVE",
"405 1010 CURVE SMOOTH",
"529 1036 OFFCURVE",
"653 1013 OFFCURVE",
"750 954 CURVE",
"594 779 OFFCURVE",
"517 503 OFFCURVE",
"369 360 CURVE",
"336 377 OFFCURVE",
"255 421 OFFCURVE",
"216 434 CURVE SMOOTH",
"-11 513 OFFCURVE",
"-79 276 OFFCURVE",
"126 252 CURVE SMOOTH",
"222 240 OFFCURVE",
"304 264 OFFCURVE",
"377 324 CURVE",
"441 296 OFFCURVE",
"519 268 OFFCURVE",
"650 252 CURVE SMOOTH",
"831 230 OFFCURVE",
"1010 340 OFFCURVE",
"1028 528 CURVE SMOOTH"
);
},
{
closed = 1;
nodes = (
"950 387 OFFCURVE",
"823 264 OFFCURVE",
"649 280 CURVE SMOOTH",
"541 289 OFFCURVE",
"464 314 OFFCURVE",
"401 342 CURVE",
"414 352 OFFCURVE",
"426 364 OFFCURVE",
"440 378 CURVE SMOOTH",
"549 497 OFFCURVE",
"681 737 OFFCURVE",
"799 922 CURVE",
"911 832 OFFCURVE",
"982 690 OFFCURVE",
"965 525 CURVE SMOOTH"
);
},
{
closed = 1;
nodes = (
"288 300 OFFCURVE",
"224 276 OFFCURVE",
"151 280 CURVE SMOOTH",
"28 285 OFFCURVE",
"46 458 OFFCURVE",
"192 409 CURVE SMOOTH",
"252 387 OFFCURVE",
"295 363 OFFCURVE",
"343 340 CURVE"
);
}
);
width = 1020;
}
);
note = D;
unicode = 0044;
},
{
glyphname = E;
lastChange = "2021-04-19 01:04:02 +0000";
layers = (
{
hints = (
{
horizontal = 1;
place = "{-55, 23}";
type = Stem;
}
);
layerId = "61E7180A-0B32-4047-B910-001D8BB62225";
paths = (
{
closed = 1;
nodes = (
"764 561 OFFCURVE",
"730 544 OFFCURVE",
"776 533 CURVE SMOOTH",
"831 520 OFFCURVE",
"795 449 OFFCURVE",
"721 391 CURVE SMOOTH",
"634 324 OFFCURVE",
"485 255 OFFCURVE",
"330 255 CURVE SMOOTH",
"-16 255 OFFCURVE",
"63 592 OFFCURVE",
"272 650 CURVE SMOOTH",
"401 686 OFFCURVE",
"525 642 OFFCURVE",
"537 682 CURVE",
"552 753 OFFCURVE",
"299 702 OFFCURVE",
"326 860 CURVE SMOOTH",
"348 989 OFFCURVE",
"557 1084 OFFCURVE",
"714 1069 CURVE SMOOTH",
"899 1051 OFFCURVE",
"787 871 OFFCURVE",
"694 862 CURVE SMOOTH",
"650 856 OFFCURVE",
"641 831 OFFCURVE",
"698 843 CURVE SMOOTH",
"900 888 OFFCURVE",
"953 1067 OFFCURVE",
"718 1093 CURVE SMOOTH",
"559 1112 OFFCURVE",
"264 1008 OFFCURVE",
"249 835 CURVE SMOOTH",
"244 776 OFFCURVE",
"314 730 OFFCURVE",
"370 710 CURVE",
"338 709 OFFCURVE",
"303 702 OFFCURVE",
"268 693 CURVE SMOOTH",
"-60 594 OFFCURVE",
"-79 232 OFFCURVE",
"326 232 CURVE SMOOTH",
"492 232 OFFCURVE",
"662 285 OFFCURVE",
"762 364 CURVE SMOOTH",
"851 433 OFFCURVE",
"871 509 OFFCURVE",
"797 545 CURVE SMOOTH"
);
}
);
width = 819;
}
);
note = E;
unicode = 0045;
},
{
glyphname = F;
lastChange = "2021-04-19 01:04:02 +0000";
layers = (
{
hints = (
{
horizontal = 1;
place = "{-131, 47}";
type = Stem;
}
);
layerId = "61E7180A-0B32-4047-B910-001D8BB62225";
paths = (
{
closed = 1;
nodes = (
"1399 887 OFFCURVE",
"1390 899 OFFCURVE",
"1375 867 CURVE SMOOTH",
"1337 787 OFFCURVE",
"1112 871 OFFCURVE",
"1045 906 CURVE",
"1060 919 OFFCURVE",
"1083 934 OFFCURVE",
"1106 925 CURVE",
"1128 899 OFFCURVE",
"1132 941 OFFCURVE",
"1106 949 CURVE SMOOTH",
"1060 962 OFFCURVE",
"1032 930 OFFCURVE",
"1021 918 CURVE",
"959 957 OFFCURVE",
"863 1004 OFFCURVE",
"752 1034 CURVE SMOOTH",
"421 1128 OFFCURVE",
"248 799 OFFCURVE",
"415 705 CURVE SMOOTH",
"496 658 OFFCURVE",
"622 694 OFFCURVE",
"651 792 CURVE SMOOTH",
"663 828 OFFCURVE",
"635 811 OFFCURVE",
"634 788 CURVE SMOOTH",
"635 760 OFFCURVE",
"525 665 OFFCURVE",
"425 728 CURVE SMOOTH",
"332 785 OFFCURVE",
"461 1037 OFFCURVE",
"734 996 CURVE SMOOTH",
"833 982 OFFCURVE",
"923 943 OFFCURVE",
"1008 900 CURVE",
"989 879 OFFCURVE",
"910 753 OFFCURVE",
"863 638 CURVE",
"766 654 OFFCURVE",
"659 658 OFFCURVE",
"614 556 CURVE SMOOTH",
"608 545 OFFCURVE",
"618 531 OFFCURVE",
"630 547 CURVE SMOOTH",
"677 615 OFFCURVE",
"811 600 OFFCURVE",
"848 600 CURVE",
"753 381 OFFCURVE",
"594 194 OFFCURVE",
"370 204 CURVE SMOOTH",
"224 210 OFFCURVE",
"42 318 OFFCURVE",
"76 515 CURVE SMOOTH",
"88 583 OFFCURVE",
"129 614 OFFCURVE",
"154 631 CURVE SMOOTH",
"184 653 OFFCURVE",
"205 667 OFFCURVE",
"173 658 CURVE SMOOTH",
"143 649 OFFCURVE",
"87 610 OFFCURVE",
"68 553 CURVE SMOOTH",
"-3 334 OFFCURVE",
"147 157 OFFCURVE",
"382 157 CURVE SMOOTH",
"706 157 OFFCURVE",
"815 409 OFFCURVE",
"884 598 CURVE",
"935 591 OFFCURVE",
"1052 594 OFFCURVE",
"1088 602 CURVE SMOOTH",
"1119 610 OFFCURVE",
"1120 624 OFFCURVE",
"1085 622 CURVE SMOOTH",
"1044 620 OFFCURVE",
"958 620 OFFCURVE",
"896 628 CURVE",
"925 694 OFFCURVE",
"966 815 OFFCURVE",
"1030 887 CURVE",
"1049 879 OFFCURVE",
"1148 820 OFFCURVE",
"1265 801 CURVE SMOOTH",
"1333 791 OFFCURVE",
"1387 821 OFFCURVE",
"1394 863 CURVE"
);
}
);
width = 1053;
}
);
note = F;
unicode = 0046;
},
{
glyphname = G;
lastChange = "2021-04-19 01:04:02 +0000";
layers = (
{
hints = (
{
horizontal = 1;
place = "{-113, 27}";
type = Stem;
}
);
layerId = "61E7180A-0B32-4047-B910-001D8BB62225";
paths = (
{
closed = 1;
nodes = (
"714 190 OFFCURVE",
"643 200 OFFCURVE",
"553 201 CURVE",
"627 322 OFFCURVE",
"677 421 OFFCURVE",
"690 533 CURVE SMOOTH",
"698 584 OFFCURVE",
"630 624 OFFCURVE",
"571 488 CURVE SMOOTH",
"543 421 OFFCURVE",
"360 314 OFFCURVE",
"228 356 CURVE SMOOTH",
"110 395 OFFCURVE",
"71 561 OFFCURVE",
"159 752 CURVE",
"224 709 OFFCURVE",
"326 681 OFFCURVE",
"423 682 CURVE SMOOTH",
"848 689 OFFCURVE",
"917 1057 OFFCURVE",
"606 1106 CURVE SMOOTH",
"445 1131 OFFCURVE",
"241 1032 OFFCURVE",
"135 859 CURVE SMOOTH",
"127 846 OFFCURVE",
"119 832 OFFCURVE",
"113 819 CURVE",
"51 892 OFFCURVE",
"39 989 OFFCURVE",
"106 1072 CURVE SMOOTH",
"122 1093 OFFCURVE",
"107 1096 OFFCURVE",
"92 1080 CURVE SMOOTH",
"0 986 OFFCURVE",
"19 870 OFFCURVE",
"96 789 CURVE",
"-12 561 OFFCURVE",
"67 367 OFFCURVE",
"193 324 CURVE SMOOTH",
"359 268 OFFCURVE",
"549 409 OFFCURVE",
"610 465 CURVE",
"606 449 LINE SMOOTH",
"584 355 OFFCURVE",
"553 284 OFFCURVE",
"504 201 CURVE",
"441 200 OFFCURVE",
"343 193 OFFCURVE",
"291 185 CURVE SMOOTH",
"40 150 OFFCURVE",
"-162 -11 OFFCURVE",
"25 -79 CURVE SMOOTH",
"138 -121 OFFCURVE",
"411 -11 OFFCURVE",
"540 176 CURVE",
"620 176 OFFCURVE",
"720 169 OFFCURVE",
"766 157 CURVE SMOOTH",
"804 147 OFFCURVE",
"803 168 OFFCURVE",
"775 176 CURVE SMOOTH"
);
},
{
closed = 1;
nodes = (
"858 1039 OFFCURVE",
"779 748 OFFCURVE",
"440 714 CURVE SMOOTH",
"336 704 OFFCURVE",
"235 730 OFFCURVE",
"172 779 CURVE",
"181 796 OFFCURVE",
"192 815 OFFCURVE",
"204 833 CURVE SMOOTH",
"297 988 OFFCURVE",
"474 1096 OFFCURVE",
"611 1076 CURVE SMOOTH"
);
},
{
closed = 1;
nodes = (
"370 5 OFFCURVE",
"141 -74 OFFCURVE",
"51 -54 CURVE SMOOTH",
"-96 -23 OFFCURVE",
"125 131 OFFCURVE",
"303 158 CURVE SMOOTH",
"359 168 OFFCURVE",
"425 172 OFFCURVE",
"488 174 CURVE"
);
}
);
width = 702;
}
);
note = G;
unicode = 0047;
},
{
glyphname = H;
lastChange = "2021-04-19 01:04:02 +0000";
layers = (
{
hints = (
{
horizontal = 1;
place = "{326, 31}";
type = Stem;
},
{
horizontal = 1;
place = "{339, 35}";
type = Stem;
}
);
layerId = "61E7180A-0B32-4047-B910-001D8BB62225";
paths = (
{
closed = 1;
nodes = (
"1568 1060 OFFCURVE",
"1522 1055 OFFCURVE",
"1483 1040 CURVE SMOOTH",
"1404 1013 OFFCURVE",
"1280 686 OFFCURVE",
"1265 645 CURVE",
"1194 645 OFFCURVE",
"1059 662 OFFCURVE",
"923 662 CURVE",
"941 705 OFFCURVE",
"1016 915 OFFCURVE",
"1053 989 CURVE",
"1093 989 OFFCURVE",
"1173 1016 OFFCURVE",
"1173 1064 CURVE SMOOTH",
"1173 1092 OFFCURVE",
"1144 1100 OFFCURVE",
"1115 1092 CURVE SMOOTH",
"1083 1081 OFFCURVE",
"1044 1024 OFFCURVE",
"1037 1012 CURVE",
"842 992 OFFCURVE",
"512 1018 OFFCURVE",
"449 764 CURVE SMOOTH",
"415 632 OFFCURVE",
"529 521 OFFCURVE",
"650 565 CURVE SMOOTH",
"722 591 OFFCURVE",
"788 686 OFFCURVE",
"750 771 CURVE SMOOTH",
"742 785 OFFCURVE",
"726 779 OFFCURVE",
"737 762 CURVE SMOOTH",
"750 744 OFFCURVE",
"722 611 OFFCURVE",
"649 584 CURVE SMOOTH",
"547 547 OFFCURVE",
"482 638 OFFCURVE",
"517 748 CURVE SMOOTH",
"590 980 OFFCURVE",
"827 965 OFFCURVE",
"1024 988 CURVE",
"1002 945 OFFCURVE",
"927 787 OFFCURVE",
"876 662 CURVE",
"867 662 OFFCURVE",
"838 662 OFFCURVE",
"838 662 CURVE",
"811 658 OFFCURVE",
"784 638 OFFCURVE",
"775 623 CURVE SMOOTH",
"760 598 OFFCURVE",
"791 607 OFFCURVE",
"803 612 CURVE SMOOTH",
"821 622 OFFCURVE",
"842 628 OFFCURVE",
"863 628 CURVE",
"796 453 OFFCURVE",
"665 251 OFFCURVE",
"383 188 CURVE SMOOTH",
"243 155 OFFCURVE",
"-3 209 OFFCURVE",
"27 429 CURVE SMOOTH",
"38 512 OFFCURVE",
"95 574 OFFCURVE",
"129 587 CURVE SMOOTH",
"139 591 OFFCURVE",
"147 602 OFFCURVE",
"127 602 CURVE SMOOTH",
"95 600 OFFCURVE",
"21 539 OFFCURVE",
"4 473 CURVE SMOOTH",
"-62 222 OFFCURVE",
"163 91 OFFCURVE",
"393 119 CURVE SMOOTH",
"653 153 OFFCURVE",
"836 393 OFFCURVE",
"915 626 CURVE",
"1006 622 OFFCURVE",
"1210 614 OFFCURVE",
"1256 614 CURVE",
"1231 544 OFFCURVE",
"1131 302 OFFCURVE",
"1222 255 CURVE SMOOTH",
"1257 236 OFFCURVE",
"1301 248 OFFCURVE",
"1336 281 CURVE SMOOTH",
"1382 326 OFFCURVE",
"1406 360 OFFCURVE",
"1458 470 CURVE SMOOTH",
"1470 494 OFFCURVE",
"1454 500 OFFCURVE",
"1443 477 CURVE SMOOTH",
"1411 413 OFFCURVE",
"1369 334 OFFCURVE",
"1317 296 CURVE SMOOTH",
"1296 280 OFFCURVE",
"1274 281 OFFCURVE",
"1261 296 CURVE SMOOTH",
"1217 344 OFFCURVE",
"1296 553 OFFCURVE",
"1313 614 CURVE",
"1343 615 OFFCURVE",
"1386 622 OFFCURVE",
"1411 641 CURVE SMOOTH",
"1428 653 OFFCURVE",
"1422 659 OFFCURVE",
"1403 653 CURVE SMOOTH",
"1387 646 OFFCURVE",
"1343 646 OFFCURVE",
"1323 646 CURVE",
"1403 879 OFFCURVE",
"1512 1032 OFFCURVE",
"1530 1041 CURVE SMOOTH"
);
},
{
closed = 1;
nodes = (
"1136 1063 OFFCURVE",
"1156 1028 OFFCURVE",
"1072 1014 CURVE",
"1085 1032 OFFCURVE",
"1115 1068 OFFCURVE",
"1124 1063 CURVE"
);
}
);
width = 1388;
}
);
note = H;
unicode = 0048;
},
{
glyphname = I;
lastChange = "2021-04-19 01:04:02 +0000";
layers = (
{
hints = (
{
horizontal = 1;
place = "{-157, 32}";
type = Stem;
},
{
horizontal = 1;
place = "{241, 25}";
type = Stem;
},
{
horizontal = 1;
place = "{805, 32}";
type = Stem;
},
{
place = "{-19, 32}";
type = Stem;
},
{
place = "{490, 67}";
type = Stem;
},
{
place = "{772, 25}";
type = Stem;
},
{
place = "{1164, 38}";
type = Stem;
}
);
layerId = "61E7180A-0B32-4047-B910-001D8BB62225";
paths = (
{
closed = 1;
nodes = (
"1201 1124 OFFCURVE",
"1175 1130 OFFCURVE",
"1144 1120 CURVE SMOOTH",
"1112 1110 OFFCURVE",
"1076 1055 OFFCURVE",
"1068 1039 CURVE",
"878 1006 OFFCURVE",
"547 930 OFFCURVE",
"494 693 CURVE SMOOTH",
"469 574 OFFCURVE",
"574 498 OFFCURVE",
"681 540 CURVE SMOOTH",
"762 571 OFFCURVE",
"824 673 OFFCURVE",
"785 748 CURVE SMOOTH",
"777 766 OFFCURVE",
"760 744 OFFCURVE",
"764 738 CURVE",
"780 724 OFFCURVE",
"785 606 OFFCURVE",
"679 563 CURVE SMOOTH",
"594 529 OFFCURVE",
"540 596 OFFCURVE",
"561 693 CURVE SMOOTH",
"610 910 OFFCURVE",
"871 973 OFFCURVE",
"1052 1012 CURVE",
"1030 976 OFFCURVE",
"959 846 OFFCURVE",
"900 687 CURVE SMOOTH",
"847 541 OFFCURVE",
"683 247 OFFCURVE",
"391 173 CURVE SMOOTH",
"230 133 OFFCURVE",
"-32 208 OFFCURVE",
"21 426 CURVE SMOOTH",
"43 509 OFFCURVE",
"107 574 OFFCURVE",
"143 588 CURVE SMOOTH",
"153 594 OFFCURVE",
"163 603 OFFCURVE",
"142 602 CURVE SMOOTH",
"110 600 OFFCURVE",
"29 537 OFFCURVE",
"4 470 CURVE SMOOTH",
"-91 220 OFFCURVE",
"127 94 OFFCURVE",
"410 141 CURVE SMOOTH",
"556 165 OFFCURVE",
"697 245 OFFCURVE",
"807 387 CURVE SMOOTH",
"967 592 OFFCURVE",
"959 792 OFFCURVE",
"1083 1017 CURVE",
"1092 1017 OFFCURVE",
"1112 1026 OFFCURVE",
"1124 1026 CURVE",
"1163 1040 OFFCURVE",
"1203 1056 OFFCURVE",
"1202 1096 CURVE SMOOTH"
);
},
{
closed = 1;
nodes = (
"1166 1092 OFFCURVE",
"1189 1060 OFFCURVE",
"1100 1043 CURVE",
"1115 1061 OFFCURVE",
"1144 1096 OFFCURVE",
"1154 1092 CURVE"
);
}
);
width = 917;
}
);
note = I;
unicode = 0049;
},
{
glyphname = J;
lastChange = "2021-04-19 01:04:02 +0000";
layers = (
{
hints = (
{
horizontal = 1;
place = "{-373, 31}";
type = Stem;
},
{
horizontal = 1;
place = "{209, 27}";
type = Stem;
},
{
horizontal = 1;
place = "{434, -20}";
target = down;
type = TopGhost;
},
{
horizontal = 1;
place = "{775, 32}";
type = Stem;
},
{
place = "{-64, 34}";
type = Stem;
},
{
place = "{863, 23}";
type = Stem;
},
{
place = "{1238, 39}";
type = Stem;
}
);
layerId = "61E7180A-0B32-4047-B910-001D8BB62225";
paths = (
{
closed = 1;
nodes = (
"1277 1092 OFFCURVE",
"1250 1100 OFFCURVE",
"1221 1092 CURVE SMOOTH",
"1187 1081 OFFCURVE",
"1148 1026 OFFCURVE",
"1139 1012 CURVE",
"955 988 OFFCURVE",
"618 894 OFFCURVE",
"580 662 CURVE SMOOTH",
"561 543 OFFCURVE",
"654 469 OFFCURVE",
"762 507 CURVE SMOOTH",
"847 537 OFFCURVE",
"910 635 OFFCURVE",
"876 713 CURVE",
"860 733 OFFCURVE",
"839 714 OFFCURVE",
"855 705 CURVE",
"871 689 OFFCURVE",
"871 570 OFFCURVE",
"762 531 CURVE SMOOTH",
"678 500 OFFCURVE",
"634 563 OFFCURVE",
"647 655 CURVE SMOOTH",
"679 851 OFFCURVE",
"959 959 OFFCURVE",
"1122 985 CURVE",
"1100 950 OFFCURVE",
"1032 835 OFFCURVE",
"961 679 CURVE SMOOTH",
"867 470 OFFCURVE",
"694 32 OFFCURVE",
"342 -47 CURVE SMOOTH",
"180 -82 OFFCURVE",
"-86 3 OFFCURVE",
"-23 222 CURVE SMOOTH",
"1 304 OFFCURVE",
"70 366 OFFCURVE",
"105 381 CURVE SMOOTH",
"115 385 OFFCURVE",
"127 395 OFFCURVE",
"106 394 CURVE SMOOTH",
"74 393 OFFCURVE",
"-11 332 OFFCURVE",
"-38 267 CURVE SMOOTH",
"-143 15 OFFCURVE",
"68 -118 OFFCURVE",
"354 -79 CURVE SMOOTH",
"485 -60 OFFCURVE",
"699 44 OFFCURVE",
"817 228 CURVE SMOOTH",
"997 507 OFFCURVE",
"1021 766 OFFCURVE",
"1152 989 CURVE",
"1160 989 OFFCURVE",
"1183 997 OFFCURVE",
"1195 997 CURVE",
"1234 1009 OFFCURVE",
"1276 1024 OFFCURVE",
"1277 1065 CURVE SMOOTH"
);
},
{
closed = 1;
nodes = (
"1240 1063 OFFCURVE",
"1260 1029 OFFCURVE",
"1170 1014 CURVE",
"1187 1032 OFFCURVE",
"1217 1068 OFFCURVE",
"1229 1063 CURVE"
);
}
);
width = 972;
}
);
note = J;
unicode = 004A;
},
{
glyphname = K;
lastChange = "2021-04-19 01:04:02 +0000";
layers = (
{
hints = (
{
horizontal = 1;
place = "{-185, 43}";
type = Stem;
}
);
layerId = "61E7180A-0B32-4047-B910-001D8BB62225";
paths = (
{
closed = 1;
nodes = (
"1647 1136 OFFCURVE",
"1627 1156 OFFCURVE",
"1604 1120 CURVE SMOOTH",
"1396 801 OFFCURVE",
"974 563 OFFCURVE",
"900 570 CURVE",
"883 561 OFFCURVE",
"894 415 OFFCURVE",
"950 291 CURVE SMOOTH",
"998 185 OFFCURVE",
"1084 103 OFFCURVE",
"1194 103 CURVE SMOOTH",
"1280 103 OFFCURVE",
"1384 170 OFFCURVE",
"1420 244 CURVE SMOOTH",
"1434 272 OFFCURVE",
"1415 272 OFFCURVE",
"1407 252 CURVE",
"1369 180 OFFCURVE",
"1277 146 OFFCURVE",
"1199 146 CURVE SMOOTH",
"1120 146 OFFCURVE",
"1061 205 OFFCURVE",
"1020 303 CURVE SMOOTH",
"969 417 OFFCURVE",
"947 553 OFFCURVE",
"959 548 CURVE",
"1132 592 OFFCURVE",
"1469 840 OFFCURVE",
"1629 1108 CURVE SMOOTH"
);
},
{
closed = 1;
nodes = (
"1083 1081 OFFCURVE",
"1044 1024 OFFCURVE",
"1037 1012 CURVE",
"950 1004 OFFCURVE",
"829 1001 OFFCURVE",
"720 977 CURVE SMOOTH",
"308 884 OFFCURVE",
"430 489 OFFCURVE",
"655 571 CURVE SMOOTH",
"726 598 OFFCURVE",
"779 699 OFFCURVE",
"750 771 CURVE SMOOTH",
"744 784 OFFCURVE",
"730 787 OFFCURVE",
"732 777 CURVE SMOOTH",
"744 713 OFFCURVE",
"716 614 OFFCURVE",
"649 590 CURVE SMOOTH",
"461 521 OFFCURVE",
"436 864 OFFCURVE",
"732 947 CURVE SMOOTH",
"825 973 OFFCURVE",
"934 977 OFFCURVE",
"1024 988 CURVE",
"989 919 OFFCURVE",
"890 698 OFFCURVE",
"871 654 CURVE SMOOTH",
"795 482 OFFCURVE",
"666 241 OFFCURVE",
"379 176 CURVE SMOOTH",
"239 145 OFFCURVE",
"-3 209 OFFCURVE",
"27 429 CURVE SMOOTH",
"39 519 OFFCURVE",
"109 572 OFFCURVE",
"127 580 CURVE SMOOTH",
"135 584 OFFCURVE",
"135 596 OFFCURVE",
"119 594 CURVE SMOOTH",
"94 591 OFFCURVE",
"23 545 OFFCURVE",
"4 473 CURVE SMOOTH",
"-62 222 OFFCURVE",
"190 87 OFFCURVE",
"418 121 CURVE SMOOTH",
"872 189 OFFCURVE",
"902 716 OFFCURVE",
"1053 989 CURVE",
"1215 1006 OFFCURVE",
"1190 1114 OFFCURVE",
"1115 1092 CURVE SMOOTH"
);
},
{
closed = 1;
nodes = (
"1106 1021 OFFCURVE",
"1092 1017 OFFCURVE",
"1072 1014 CURVE",
"1081 1026 OFFCURVE",
"1097 1047 OFFCURVE",
"1111 1056 CURVE SMOOTH",
"1144 1084 OFFCURVE",
"1160 1048 OFFCURVE",
"1116 1026 CURVE SMOOTH"
);
}
);
width = 1150;
}
);
note = K;
unicode = 004B;
},
{
glyphname = L;
lastChange = "2021-04-19 01:04:02 +0000";
layers = (
{
hints = (
{
horizontal = 1;
place = "{-115, 28}";
type = Stem;
},
{
horizontal = 1;
place = "{90, 47}";
type = Stem;
},
{
horizontal = 1;
place = "{322, 23}";
type = Stem;
},
{
horizontal = 1;
place = "{801, 60}";
type = Stem;
},
{
place = "{-5, 21}";
type = Stem;
},
{
place = "{244, 48}";
type = Stem;
},
{
place = "{825, 39}";
type = Stem;
},
{
place = "{921, 42}";
type = Stem;
}
);
layerId = "61E7180A-0B32-4047-B910-001D8BB62225";
paths = (
{
closed = 1;
nodes = (
"954 1167 OFFCURVE",
"758 1245 OFFCURVE",
"600 850 CURVE",
"600 850 OFFCURVE",
"527 662 OFFCURVE",
"515 634 CURVE",
"192 596 OFFCURVE",
"260 949 OFFCURVE",
"466 974 CURVE SMOOTH",
"511 980 OFFCURVE",
"507 1001 OFFCURVE",
"465 992 CURVE SMOOTH",
"121 913 OFFCURVE",
"212 600 OFFCURVE",
"501 610 CURVE",
"465 535 OFFCURVE",
"433 474 OFFCURVE",
"395 415 CURVE",
"322 429 OFFCURVE",
"214 425 OFFCURVE",
"143 405 CURVE SMOOTH",
"-127 323 OFFCURVE",
"15 95 OFFCURVE",
"225 197 CURVE SMOOTH",
"291 228 OFFCURVE",
"351 288 OFFCURVE",
"403 360 CURVE",
"531 336 OFFCURVE",
"670 307 OFFCURVE",
"766 220 CURVE SMOOTH",
"835 161 OFFCURVE",
"832 59 OFFCURVE",
"816 24 CURVE SMOOTH",
"808 7 OFFCURVE",
"787 -29 OFFCURVE",
"829 -7 CURVE SMOOTH",
"838 -3 OFFCURVE",
"847 7 OFFCURVE",
"855 21 CURVE SMOOTH",
"879 63 OFFCURVE",
"859 182 OFFCURVE",
"762 256 CURVE SMOOTH",
"670 328 OFFCURVE",
"532 382 OFFCURVE",
"433 406 CURVE",
"441 418 OFFCURVE",
"448 429 OFFCURVE",
"454 441 CURVE SMOOTH",
"490 505 OFFCURVE",
"513 553 OFFCURVE",
"543 614 CURVE",
"757 650 OFFCURVE",
"980 871 OFFCURVE",
"962 1075 CURVE SMOOTH"
);
},
{
closed = 1;
nodes = (
"922 867 OFFCURVE",
"738 681 OFFCURVE",
"557 641 CURVE",
"598 726 OFFCURVE",
"646 815 OFFCURVE",
"646 815 CURVE",
"801 1120 OFFCURVE",
"919 1120 OFFCURVE",
"921 1052 CURVE SMOOTH"
);
},
{
closed = 1;
nodes = (
"316 299 OFFCURVE",
"264 252 OFFCURVE",
"209 225 CURVE SMOOTH",
"25 137 OFFCURVE",
"-88 300 OFFCURVE",
"155 363 CURVE SMOOTH",
"220 381 OFFCURVE",
"297 381 OFFCURVE",
"364 367 CURVE"
);
}
);
width = 716;
}
);
note = L;
unicode = 004C;
},
{
glyphname = M;
lastChange = "2021-04-19 01:04:02 +0000";
layers = (
{
hints = (
{
horizontal = 1;
place = "{119, 21}";
type = Stem;
},
{
horizontal = 1;
place = "{682, 25}";
type = Stem;
},
{
horizontal = 1;
place = "{795, 21}";
type = Stem;
},
{
place = "{17, 56}";
type = Stem;
},
{
place = "{433, 34}";
type = Stem;
},
{
place = "{647, 55}";
type = Stem;
},
{
place = "{1207, 60}";
type = Stem;
},
{
place = "{1392, 68}";
type = Stem;
},
{
horizontal = 1;
place = "{630, 51}";
type = Stem;
}
);
layerId = "61E7180A-0B32-4047-B910-001D8BB62225";
paths = (
{
closed = 1;
nodes = (
"1147 180 OFFCURVE",
"1333 594 OFFCURVE",
"1422 768 CURVE SMOOTH",
"1537 1000 OFFCURVE",
"1386 1064 OFFCURVE",
"1154 775 CURVE SMOOTH",
"1072 671 OFFCURVE",
"996 565 OFFCURVE",
"955 501 CURVE",
"996 626 OFFCURVE",
"1041 748 OFFCURVE",
"1053 876 CURVE SMOOTH",
"1069 1048 OFFCURVE",
"903 1008 OFFCURVE",
"827 914 CURVE SMOOTH",
"754 827 OFFCURVE",
"721 776 OFFCURVE",
"662 670 CURVE SMOOTH",
"646 638 OFFCURVE",
"637 643 OFFCURVE",
"650 682 CURVE SMOOTH",
"674 748 OFFCURVE",
"694 819 OFFCURVE",
"702 882 CURVE SMOOTH",
"738 1281 OFFCURVE",
"190 1083 OFFCURVE",
"46 745 CURVE SMOOTH",
"-55 505 OFFCURVE",
"135 358 OFFCURVE",
"284 419 CURVE SMOOTH",
"501 509 OFFCURVE",
"521 761 OFFCURVE",
"354 737 CURVE SMOOTH",
"306 730 OFFCURVE",
"331 714 OFFCURVE",
"348 716 CURVE SMOOTH",
"509 737 OFFCURVE",
"413 486 OFFCURVE",
"284 438 CURVE SMOOTH",
"151 390 OFFCURVE",
"15 501 OFFCURVE",
"99 734 CURVE SMOOTH",
"196 1002 OFFCURVE",
"698 1284 OFFCURVE",
"643 883 CURVE SMOOTH",
"620 720 OFFCURVE",
"484 378 OFFCURVE",
"398 245 CURVE",
"389 213 OFFCURVE",
"465 214 OFFCURVE",
"481 252 CURVE SMOOTH",
"618 557 OFFCURVE",
"669 678 OFFCURVE",
"843 895 CURVE SMOOTH",
"923 994 OFFCURVE",
"1008 1001 OFFCURVE",
"992 871 CURVE SMOOTH",
"951 540 OFFCURVE",
"808 320 OFFCURVE",
"792 288 CURVE",
"773 259 OFFCURVE",
"846 220 OFFCURVE",
"883 308 CURVE SMOOTH",
"919 395 OFFCURVE",
"1091 659 OFFCURVE",
"1154 738 CURVE SMOOTH",
"1335 963 OFFCURVE",
"1446 974 OFFCURVE",
"1365 789 CURVE SMOOTH",
"1301 641 OFFCURVE",
"1219 485 OFFCURVE",
"1207 364 CURVE SMOOTH",
"1191 194 OFFCURVE",
"1324 177 OFFCURVE",
"1365 173 CURVE SMOOTH",
"1406 169 OFFCURVE",
"1419 192 OFFCURVE",
"1382 189 CURVE SMOOTH"
);
}
);
width = 1336;
}
);
note = M;
unicode = 004D;
},
{
glyphname = N;
lastChange = "2021-04-19 01:04:02 +0000";
layers = (
{
hints = (
{
horizontal = 1;
place = "{-147, 27}";
type = Stem;
},
{
horizontal = 1;
place = "{123, 19}";
type = Stem;
},
{
horizontal = 1;
place = "{429, 23}";
type = Stem;
},
{
horizontal = 1;
place = "{768, 29}";
type = Stem;
},
{
place = "{-3, 60}";
type = Stem;
},
{
place = "{425, 38}";
type = Stem;
},
{
place = "{639, 55}";
type = Stem;
},
{
place = "{855, 58}";
type = Stem;
},
{
horizontal = 1;
place = "{720, 47}";
type = Stem;
}
);
layerId = "61E7180A-0B32-4047-B910-001D8BB62225";
paths = (
{
closed = 1;
nodes = (
"1197 1068 OFFCURVE",
"1081 1072 OFFCURVE",
"988 1028 CURVE SMOOTH",
"910 992 OFFCURVE",
"824 910 OFFCURVE",
"749 819 CURVE SMOOTH",
"698 758 OFFCURVE",
"653 694 OFFCURVE",
"616 638 CURVE SMOOTH",
"598 608 OFFCURVE",
"559 535 OFFCURVE",
"611 649 CURVE SMOOTH",
"646 724 OFFCURVE",
"686 805 OFFCURVE",
"694 883 CURVE SMOOTH",
"725 1130 OFFCURVE",
"469 1115 OFFCURVE",
"303 1024 CURVE SMOOTH",
"188 961 OFFCURVE",
"75 859 OFFCURVE",
"27 744 CURVE SMOOTH",
"-58 539 OFFCURVE",
"51 410 OFFCURVE",
"180 410 CURVE SMOOTH",
"445 410 OFFCURVE",
"576 789 OFFCURVE",
"338 732 CURVE SMOOTH",
"328 730 OFFCURVE",
"320 714 OFFCURVE",
"340 716 CURVE SMOOTH",
"519 738 OFFCURVE",
"393 429 OFFCURVE",
"182 429 CURVE SMOOTH",
"-17 429 OFFCURVE",
"17 797 OFFCURVE",
"314 981 CURVE SMOOTH",
"486 1088 OFFCURVE",
"687 1108 OFFCURVE",
"630 844 CURVE SMOOTH",
"582 631 OFFCURVE",
"425 318 OFFCURVE",
"375 245 CURVE",
"367 213 OFFCURVE",
"441 216 OFFCURVE",
"458 252 CURVE SMOOTH",
"524 389 OFFCURVE",
"627 630 OFFCURVE",
"769 803 CURVE SMOOTH",
"840 887 OFFCURVE",
"918 950 OFFCURVE",
"992 985 CURVE SMOOTH",
"1063 1020 OFFCURVE",
"1127 1018 OFFCURVE",
"1115 947 CURVE SMOOTH",
"1099 844 OFFCURVE",
"914 505 OFFCURVE",
"879 401 CURVE SMOOTH",
"824 239 OFFCURVE",
"864 147 OFFCURVE",
"1001 141 CURVE SMOOTH",
"1075 138 OFFCURVE",
"1092 212 OFFCURVE",
"1024 180 CURVE SMOOTH",
"907 126 OFFCURVE",
"874 249 OFFCURVE",
"965 449 CURVE SMOOTH",
"1064 666 OFFCURVE",
"1193 839 OFFCURVE",
"1194 959 CURVE SMOOTH"
);
}
);
width = 1044;
}
);
note = N;
unicode = 004E;
},
{
glyphname = O;
lastChange = "2021-04-19 01:04:02 +0000";
layers = (
{
hints = (
{
horizontal = 1;
place = "{-36, 314}";
type = Stem;
},
{
horizontal = 1;
place = "{311, 29}";
type = Stem;
},
{
horizontal = 1;
place = "{659, 101}";
type = Stem;
},
{
place = "{153, 31}";
type = Stem;
}
);
layerId = "61E7180A-0B32-4047-B910-001D8BB62225";
paths = (
{
closed = 1;
nodes = (
"923 862 OFFCURVE",
"900 863 OFFCURVE",
"894 848 CURVE SMOOTH",
"868 799 OFFCURVE",
"817 758 OFFCURVE",
"762 722 CURVE",
"783 1218 OFFCURVE",
"12 1132 OFFCURVE",
"51 746 CURVE SMOOTH",
"56 691 OFFCURVE",
"86 650 OFFCURVE",
"129 620 CURVE",
"60 445 OFFCURVE",
"118 276 OFFCURVE",
"232 240 CURVE SMOOTH",
"445 170 OFFCURVE",
"674 389 OFFCURVE",
"736 579 CURVE SMOOTH",
"748 618 OFFCURVE",
"756 653 OFFCURVE",
"758 686 CURVE",
"823 726 OFFCURVE",
"871 779 OFFCURVE",
"909 838 CURVE SMOOTH"
);
},
{
closed = 1;
nodes = (
"537 602 OFFCURVE",
"316 570 OFFCURVE",
"198 627 CURVE",
"240 722 OFFCURVE",
"398 954 OFFCURVE",
"524 915 CURVE SMOOTH",
"537 911 OFFCURVE",
"547 921 OFFCURVE",
"532 929 CURVE SMOOTH",
"381 1014 OFFCURVE",
"202 779 OFFCURVE",
"147 662 CURVE",
"125 681 OFFCURVE",
"111 706 OFFCURVE",
"107 738 CURVE SMOOTH",
"54 1096 OFFCURVE",
"749 1221 OFFCURVE",
"702 690 CURVE"
);
},
{
closed = 1;
nodes = (
"693 631 OFFCURVE",
"686 606 OFFCURVE",
"678 583 CURVE SMOOTH",
"608 386 OFFCURVE",
"411 185 OFFCURVE",
"236 272 CURVE SMOOTH",
"138 320 OFFCURVE",
"135 465 OFFCURVE",
"184 592 CURVE",
"316 539 OFFCURVE",
"529 565 OFFCURVE",
"695 654 CURVE"
);
}
);
width = 730;
}
);
note = O;
unicode = 004F;
},
{
glyphname = P;
lastChange = "2021-04-19 01:04:02 +0000";
layers = (
{
hints = (
{
horizontal = 1;
place = "{251, 21}";
target = up;
type = BottomGhost;
},
{
horizontal = 1;
place = "{356, -20}";
target = down;
type = TopGhost;
}
);
layerId = "61E7180A-0B32-4047-B910-001D8BB62225";
paths = (
{
closed = 1;
nodes = (
"934 1017 OFFCURVE",
"895 1033 OFFCURVE",
"852 1044 CURVE",
"870 1061 OFFCURVE",
"887 1075 OFFCURVE",
"898 1081 CURVE SMOOTH",
"922 1096 OFFCURVE",
"919 1110 OFFCURVE",
"887 1096 CURVE SMOOTH",
"858 1085 OFFCURVE",
"835 1072 OFFCURVE",
"812 1055 CURVE",
"694 1079 OFFCURVE",
"561 1072 OFFCURVE",
"450 1056 CURVE SMOOTH",
"307 1034 OFFCURVE",
"51 959 OFFCURVE",
"43 780 CURVE SMOOTH",
"38 678 OFFCURVE",
"111 627 OFFCURVE",
"192 624 CURVE SMOOTH",
"269 622 OFFCURVE",
"356 674 OFFCURVE",
"358 765 CURVE SMOOTH",
"358 779 OFFCURVE",
"347 781 OFFCURVE",
"344 766 CURVE",
"320 698 OFFCURVE",
"256 642 OFFCURVE",
"193 645 CURVE SMOOTH",
"133 646 OFFCURVE",
"83 702 OFFCURVE",
"95 772 CURVE SMOOTH",
"119 922 OFFCURVE",
"328 1000 OFFCURVE",
"454 1022 CURVE SMOOTH",
"539 1039 OFFCURVE",
"670 1047 OFFCURVE",
"785 1029 CURVE",
"766 1012 OFFCURVE",
"750 993 OFFCURVE",
"732 973 CURVE SMOOTH",
"561 781 OFFCURVE",
"485 513 OFFCURVE",
"352 385 CURVE SMOOTH",
"285 319 OFFCURVE",
"212 276 OFFCURVE",
"122 280 CURVE SMOOTH",
"-17 287 OFFCURVE",
"23 481 OFFCURVE",
"184 421 CURVE SMOOTH",
"201 414 OFFCURVE",
"208 426 OFFCURVE",
"188 434 CURVE SMOOTH",
"-40 511 OFFCURVE",
"-109 276 OFFCURVE",
"96 252 CURVE SMOOTH",
"204 239 OFFCURVE",
"307 275 OFFCURVE",
"393 355 CURVE SMOOTH",
"449 410 OFFCURVE",
"498 473 OFFCURVE",
"543 537 CURVE",
"596 533 OFFCURVE",
"686 541 OFFCURVE",
"768 561 CURVE SMOOTH",
"967 610 OFFCURVE",
"1222 846 OFFCURVE",
"969 996 CURVE SMOOTH"
);
},
{
closed = 1;
nodes = (
"1104 870 OFFCURVE",
"954 653 OFFCURVE",
"736 586 CURVE SMOOTH",
"673 567 OFFCURVE",
"608 557 OFFCURVE",
"557 559 CURVE",
"654 709 OFFCURVE",
"730 876 OFFCURVE",
"833 1020 CURVE",
"876 1010 OFFCURVE",
"915 996 OFFCURVE",
"946 976 CURVE SMOOTH"
);
}
);
width = 895;
}
);
note = P;
unicode = 0050;
},
{
glyphname = Q;
lastChange = "2021-04-19 01:04:02 +0000";
layers = (
{
hints = (
{
horizontal = 1;
place = "{-91, 31}";
type = Stem;
}
);
layerId = "61E7180A-0B32-4047-B910-001D8BB62225";
paths = (
{
closed = 1;
nodes = (
"334 1040 OFFCURVE",
"7 635 OFFCURVE",
"119 356 CURVE SMOOTH",
"185 189 OFFCURVE",
"377 200 OFFCURVE",
"508 285 CURVE SMOOTH",
"876 529 OFFCURVE",
"907 1168 OFFCURVE",
"314 1068 CURVE SMOOTH",
"146 1040 OFFCURVE",
"34 888 OFFCURVE",
"107 737 CURVE SMOOTH",
"121 710 OFFCURVE",
"137 721 OFFCURVE",
"131 742 CURVE SMOOTH",
"94 899 OFFCURVE",
"161 1024 OFFCURVE",
"318 1045 CURVE SMOOTH",
"762 1104 OFFCURVE",
"859 587 OFFCURVE",
"505 320 CURVE SMOOTH",
"373 220 OFFCURVE",
"209 204 OFFCURVE",
"162 369 CURVE SMOOTH",
"99 594 OFFCURVE",
"366 963 OFFCURVE",
"524 915 CURVE SMOOTH",
"537 911 OFFCURVE",
"547 921 OFFCURVE",
"532 929 CURVE SMOOTH"
);
},
{
closed = 1;
nodes = (
"925 -83 OFFCURVE",
"882 142 OFFCURVE",
"647 180 CURVE SMOOTH",
"628 182 OFFCURVE",
"630 163 OFFCURVE",
"650 159 CURVE SMOOTH",
"843 129 OFFCURVE",
"887 -95 OFFCURVE",
"669 -54 CURVE SMOOTH",
"367 5 OFFCURVE",
"291 226 OFFCURVE",
"111 226 CURVE SMOOTH",
"67 226 OFFCURVE",
"31 182 OFFCURVE",
"29 155 CURVE SMOOTH",
"28 135 OFFCURVE",
"43 129 OFFCURVE",
"46 149 CURVE SMOOTH",
"48 178 OFFCURVE",
"87 196 OFFCURVE",
"111 196 CURVE SMOOTH",
"268 196 OFFCURVE",
"315 -83 OFFCURVE",
"669 -83 CURVE SMOOTH"
);
}
);
width = 756;
}
);
note = Q;
unicode = 0051;
},
{
glyphname = R;
lastChange = "2021-04-19 01:04:02 +0000";
layers = (
{
hints = (
{
horizontal = 1;
place = "{-39, 31}";
type = Stem;
},
{
horizontal = 1;
place = "{147, 16}";
type = Stem;
},
{
horizontal = 1;
place = "{204, -20}";
target = down;
type = TopGhost;
},
{
horizontal = 1;
place = "{331, 27}";
type = Stem;
},
{
horizontal = 1;
place = "{744, 31}";
type = Stem;
},
{
place = "{95, 48}";
type = Stem;
},
{
place = "{402, 13}";
type = Stem;
},
{
place = "{1044, 72}";
type = Stem;
},
{
horizontal = 1;
place = "{-42, 42}";
type = Stem;
},
{
horizontal = 1;
place = "{379, 39}";
type = Stem;
},
{
horizontal = 1;
place = "{389, 31}";
type = Stem;
},
{
horizontal = 1;
place = "{758, 32}";
type = Stem;
},
{
place = "{19, 67}";
type = Stem;
}
);
layerId = "61E7180A-0B32-4047-B910-001D8BB62225";
paths = (
{
closed = 1;
nodes = (
"1112 497 OFFCURVE",
"1093 493 OFFCURVE",
"1084 476 CURVE SMOOTH",
"1073 453 OFFCURVE",
"1036 374 OFFCURVE",
"988 326 CURVE SMOOTH",
"915 255 OFFCURVE",
"866 291 OFFCURVE",
"815 367 CURVE SMOOTH",
"740 481 OFFCURVE",
"709 638 OFFCURVE",
"704 666 CURVE",
"726 667 OFFCURVE",
"757 670 OFFCURVE",
"796 675 CURVE SMOOTH",
"1115 728 OFFCURVE",
"1240 947 OFFCURVE",
"966 1026 CURVE SMOOTH",
"935 1034 OFFCURVE",
"903 1040 OFFCURVE",
"867 1045 CURVE",
"876 1076 OFFCURVE",
"872 1097 OFFCURVE",
"829 1051 CURVE",
"713 1067 OFFCURVE",
"586 1065 OFFCURVE",
"446 1045 CURVE SMOOTH",
"224 1013 OFFCURVE",
"106 891 OFFCURVE",
"95 784 CURVE SMOOTH",
"80 614 OFFCURVE",
"275 570 OFFCURVE",
"377 675 CURVE SMOOTH",
"397 697 OFFCURVE",
"410 725 OFFCURVE",
"415 757 CURVE SMOOTH",
"417 768 OFFCURVE",
"405 783 OFFCURVE",
"402 758 CURVE SMOOTH",
"401 746 OFFCURVE",
"389 721 OFFCURVE",
"364 694 CURVE SMOOTH",
"277 602 OFFCURVE",
"119 649 OFFCURVE",
"147 784 CURVE SMOOTH",
"165 871 OFFCURVE",
"263 967 OFFCURVE",
"433 1004 CURVE SMOOTH",
"570 1032 OFFCURVE",
"694 1037 OFFCURVE",
"807 1026 CURVE",
"725 935 OFFCURVE",
"650 787 OFFCURVE",
"570 643 CURVE SMOOTH",
"461 454 OFFCURVE",
"350 271 OFFCURVE",
"172 280 CURVE SMOOTH",
"34 287 OFFCURVE",
"71 484 OFFCURVE",
"232 422 CURVE SMOOTH",
"248 417 OFFCURVE",
"256 427 OFFCURVE",
"237 434 CURVE SMOOTH",
"3 515 OFFCURVE",
"-67 276 OFFCURVE",
"147 252 CURVE SMOOTH",
"264 236 OFFCURVE",
"375 280 OFFCURVE",
"464 377 CURVE SMOOTH",
"545 466 OFFCURVE",
"592 559 OFFCURVE",
"641 654 CURVE",
"651 590 OFFCURVE",
"694 393 OFFCURVE",
"787 297 CURVE SMOOTH",
"851 229 OFFCURVE",
"937 229 OFFCURVE",
"1000 296 CURVE SMOOTH",
"1043 344 OFFCURVE",
"1088 446 OFFCURVE",
"1101 476 CURVE SMOOTH"
);
},
{
closed = 1;
nodes = (
"1150 942 OFFCURVE",
"996 732 OFFCURVE",
"788 706 CURVE SMOOTH",
"740 699 OFFCURVE",
"701 699 OFFCURVE",
"662 693 CURVE",
"720 809 OFFCURVE",
"791 910 OFFCURVE",
"855 1020 CURVE",
"891 1014 OFFCURVE",
"923 1009 OFFCURVE",
"953 1001 CURVE SMOOTH"
);
}
);
width = 1029;
}
);
note = R;
unicode = 0052;
},
{
glyphname = S;
lastChange = "2021-04-19 01:04:02 +0000";
layers = (
{
hints = (
{
place = "{-3, 56}";
type = Stem;
}
);
layerId = "61E7180A-0B32-4047-B910-001D8BB62225";
paths = (
{
closed = 1;
nodes = (
"967 963 OFFCURVE",
"943 1047 OFFCURVE",
"871 1081 CURVE SMOOTH",
"799 1118 OFFCURVE",
"650 1112 OFFCURVE",
"549 1076 CURVE SMOOTH",
"402 1024 OFFCURVE",
"311 875 OFFCURVE",
"461 776 CURVE SMOOTH",
"536 726 OFFCURVE",
"670 690 OFFCURVE",
"733 639 CURVE SMOOTH",
"855 541 OFFCURVE",
"783 369 OFFCURVE",
"614 280 CURVE SMOOTH",
"413 176 OFFCURVE",
"52 201 OFFCURVE",
"55 450 CURVE SMOOTH",
"55 515 OFFCURVE",
"75 582 OFFCURVE",
"111 638 CURVE SMOOTH",
"129 667 OFFCURVE",
"153 693 OFFCURVE",
"180 714 CURVE SMOOTH",
"213 738 OFFCURVE",
"184 734 OFFCURVE",
"170 729 CURVE SMOOTH",
"71 682 OFFCURVE",
"-7 545 OFFCURVE",
"-3 450 CURVE SMOOTH",
"15 168 OFFCURVE",
"444 139 OFFCURVE",
"670 275 CURVE SMOOTH",
"840 377 OFFCURVE",
"976 565 OFFCURVE",
"771 691 CURVE SMOOTH",
"695 738 OFFCURVE",
"594 773 OFFCURVE",
"533 811 CURVE SMOOTH",
"397 894 OFFCURVE",
"468 1006 OFFCURVE",
"587 1049 CURVE SMOOTH",
"911 1164 OFFCURVE",
"967 915 OFFCURVE",
"843 900 CURVE SMOOTH",
"809 896 OFFCURVE",
"811 874 OFFCURVE",
"838 880 CURVE SMOOTH",
"867 888 OFFCURVE",
"888 899 OFFCURVE",
"905 913 CURVE SMOOTH"
);
}
);
width = 906;
}
);
note = S;
unicode = 0053;
},
{
glyphname = T;
lastChange = "2021-04-19 01:04:02 +0000";
layers = (
{
hints = (
{
place = "{1386, 21}";
type = Stem;
}
);
layerId = "61E7180A-0B32-4047-B910-001D8BB62225";
paths = (
{
closed = 1;
nodes = (
"1407 906 OFFCURVE",
"1404 922 OFFCURVE",
"1398 922 CURVE SMOOTH",
"1388 922 OFFCURVE",
"1386 915 OFFCURVE",
"1386 907 CURVE SMOOTH",
"1386 839 OFFCURVE",
"1142 906 OFFCURVE",
"1056 934 CURVE",
"1068 947 OFFCURVE",
"1099 981 OFFCURVE",
"1108 974 CURVE",
"1140 963 OFFCURVE",
"1132 1013 OFFCURVE",
"1100 1004 CURVE",
"1101 1004 LINE SMOOTH",
"1080 1004 OFFCURVE",
"1036 953 OFFCURVE",
"1028 942 CURVE",
"963 959 OFFCURVE",
"820 1020 OFFCURVE",
"699 1029 CURVE SMOOTH",
"323 1064 OFFCURVE",
"247 694 OFFCURVE",
"452 622 CURVE SMOOTH",
"545 590 OFFCURVE",
"661 647 OFFCURVE",
"674 754 CURVE",
"674 768 OFFCURVE",
"663 772 OFFCURVE",
"654 762 CURVE",
"654 761 LINE SMOOTH",
"658 733 OFFCURVE",
"586 608 OFFCURVE",
"461 647 CURVE SMOOTH",
"304 698 OFFCURVE",
"419 992 OFFCURVE",
"706 978 CURVE SMOOTH",
"815 973 OFFCURVE",
"906 955 OFFCURVE",
"1012 923 CURVE",
"969 867 OFFCURVE",
"838 512 OFFCURVE",
"716 381 CURVE SMOOTH",
"639 296 OFFCURVE",
"532 233 OFFCURVE",
"374 229 CURVE SMOOTH",
"220 226 OFFCURVE",
"34 336 OFFCURVE",
"70 543 CURVE SMOOTH",
"86 638 OFFCURVE",
"157 662 OFFCURVE",
"173 682 CURVE",
"180 724 OFFCURVE",
"79 682 OFFCURVE",
"50 590 CURVE SMOOTH",
"-87 159 OFFCURVE",
"551 90 OFFCURVE",
"764 332 CURVE SMOOTH",
"911 501 OFFCURVE",
"919 721 OFFCURVE",
"1040 913 CURVE",
"1061 903 OFFCURVE",
"1144 867 OFFCURVE",
"1293 848 CURVE SMOOTH",
"1357 840 OFFCURVE",
"1407 863 OFFCURVE",
"1407 900 CURVE SMOOTH"
);
}
);
width = 923;
}
);
note = T;
rightKerningGroup = T;
unicode = 0054;
},
{
glyphname = U;
lastChange = "2021-04-19 01:04:02 +0000";
layers = (
{
hints = (
{
horizontal = 1;
place = "{-39, 25}";
type = Stem;
},
{
horizontal = 1;
place = "{143, 28}";
type = Stem;
},
{
horizontal = 1;
place = "{488, 27}";
type = Stem;
},
{
horizontal = 1;
place = "{835, 27}";
type = Stem;
},
{
place = "{-4, 42}";
type = Stem;
},
{
place = "{437, 29}";
type = Stem;
},
{
place = "{678, 54}";
type = Stem;
},
{
place = "{828, 43}";
type = Stem;
},
{
horizontal = 1;
place = "{-79, 23}";
type = Stem;
}
);
layerId = "61E7180A-0B32-4047-B910-001D8BB62225";
paths = (
{
closed = 1;
nodes = (
"980 779 OFFCURVE",
"957 765 OFFCURVE",
"935 726 CURVE SMOOTH",
"894 651 OFFCURVE",
"833 509 OFFCURVE",
"766 413 CURVE SMOOTH",
"655 252 OFFCURVE",
"553 236 OFFCURVE",
"541 340 CURVE SMOOTH",
"527 486 OFFCURVE",
"685 716 OFFCURVE",
"721 875 CURVE SMOOTH",
"746 985 OFFCURVE",
"734 1087 OFFCURVE",
"635 1128 CURVE SMOOTH",
"545 1168 OFFCURVE",
"422 1148 OFFCURVE",
"308 1084 CURVE SMOOTH",
"-182 817 OFFCURVE",
"-20 324 OFFCURVE",
"280 452 CURVE SMOOTH",
"503 545 OFFCURVE",
"535 875 OFFCURVE",
"328 788 CURVE SMOOTH",
"320 785 OFFCURVE",
"280 758 OFFCURVE",
"332 771 CURVE SMOOTH",
"525 815 OFFCURVE",
"419 525 OFFCURVE",
"281 474 CURVE SMOOTH",
"3 370 OFFCURVE",
"-96 816 OFFCURVE",
"306 1052 CURVE SMOOTH",
"421 1118 OFFCURVE",
"557 1147 OFFCURVE",
"641 1096 CURVE SMOOTH",
"689 1068 OFFCURVE",
"686 976 OFFCURVE",
"662 879 CURVE SMOOTH",
"624 733 OFFCURVE",
"462 476 OFFCURVE",
"485 340 CURVE SMOOTH",
"505 212 OFFCURVE",
"647 212 OFFCURVE",
"781 385 CURVE SMOOTH",
"807 417 OFFCURVE",
"827 449 OFFCURVE",
"843 474 CURVE",
"825 389 OFFCURVE",
"807 226 OFFCURVE",
"902 209 CURVE SMOOTH",
"933 204 OFFCURVE",
"957 236 OFFCURVE",
"909 232 CURVE SMOOTH",
"854 229 OFFCURVE",
"866 352 OFFCURVE",
"895 461 CURVE SMOOTH",
"914 532 OFFCURVE",
"942 595 OFFCURVE",
"955 623 CURVE SMOOTH",
"982 685 OFFCURVE",
"1040 754 OFFCURVE",
"992 779 CURVE"
);
}
);
width = 947;
}
);
leftKerningGroup = U;
note = U;
unicode = 0055;
},
{
glyphname = V;
lastChange = "2021-04-19 01:04:02 +0000";
layers = (
{
hints = (
{
horizontal = 1;
place = "{135, 27}";
type = Stem;
},
{
place = "{449, 44}";
type = Stem;
}
);
layerId = "61E7180A-0B32-4047-B910-001D8BB62225";
paths = (
{
closed = 1;
nodes = (
"1095 827 OFFCURVE",
"1006 896 OFFCURVE",
"957 910 CURVE SMOOTH",
"917 919 OFFCURVE",
"918 890 OFFCURVE",
"953 883 CURVE SMOOTH",
"976 879 OFFCURVE",
"992 883 OFFCURVE",
"1001 831 CURVE SMOOTH",
"1021 709 OFFCURVE",
"931 545 OFFCURVE",
"824 421 CURVE SMOOTH",
"791 381 OFFCURVE",
"508 80 OFFCURVE",
"547 308 CURVE SMOOTH",
"563 399 OFFCURVE",
"611 557 OFFCURVE",
"675 687 CURVE SMOOTH",
"753 847 OFFCURVE",
"797 1052 OFFCURVE",
"650 1116 CURVE SMOOTH",
"473 1194 OFFCURVE",
"131 1043 OFFCURVE",
"23 795 CURVE SMOOTH",
"-71 580 OFFCURVE",
"63 423 OFFCURVE",
"201 423 CURVE SMOOTH",
"327 423 OFFCURVE",
"493 556 OFFCURVE",
"493 683 CURVE SMOOTH",
"493 760 OFFCURVE",
"438 816 OFFCURVE",
"352 776 CURVE SMOOTH",
"334 766 OFFCURVE",
"328 753 OFFCURVE",
"358 762 CURVE SMOOTH",
"425 783 OFFCURVE",
"449 736 OFFCURVE",
"449 682 CURVE SMOOTH",
"449 571 OFFCURVE",
"330 449 OFFCURVE",
"217 449 CURVE SMOOTH",
"103 449 OFFCURVE",
"-1 552 OFFCURVE",
"75 762 CURVE SMOOTH",
"158 986 OFFCURVE",
"492 1185 OFFCURVE",
"654 1084 CURVE SMOOTH",
"733 1036 OFFCURVE",
"662 823 OFFCURVE",
"610 699 CURVE SMOOTH",
"474 378 OFFCURVE",
"449 208 OFFCURVE",
"533 193 CURVE SMOOTH",
"662 170 OFFCURVE",
"941 425 OFFCURVE",
"1037 678 CURVE SMOOTH"
);
}
);
width = 980;
}
);
note = V;
unicode = 0056;
},
{
glyphname = W;
lastChange = "2021-04-19 01:04:02 +0000";
layers = (
{
hints = (
{
horizontal = 1;
place = "{-72, 24}";
type = Stem;
},
{
horizontal = 1;
place = "{101, 25}";
type = Stem;
},
{
horizontal = 1;
place = "{441, 27}";
type = Stem;
},
{
horizontal = 1;
place = "{586, 29}";
type = Stem;
},
{
horizontal = 1;
place = "{787, 27}";
type = Stem;
},
{
place = "{-17, 60}";
type = Stem;
},
{
place = "{410, 51}";
type = Stem;
},
{
place = "{665, 59}";
type = Stem;
},
{
place = "{828, 48}";
type = Stem;
},
{
place = "{1337, 51}";
type = Stem;
},
{
horizontal = 1;
place = "{-125, 27}";
type = Stem;
},
{
place = "{453, 55}";
type = Stem;
}
);
layerId = "61E7180A-0B32-4047-B910-001D8BB62225";
paths = (
{
closed = 1;
nodes = (
"1449 758 OFFCURVE",
"1332 914 OFFCURVE",
"1203 903 CURVE",
"1156 911 OFFCURVE",
"1099 855 OFFCURVE",
"1189 879 CURVE",
"1349 900 OFFCURVE",
"1374 721 OFFCURVE",
"1290 523 CURVE SMOOTH",
"1206 322 OFFCURVE",
"840 86 OFFCURVE",
"876 374 CURVE SMOOTH",
"887 458 OFFCURVE",
"951 576 OFFCURVE",
"977 651 CURVE SMOOTH",
"1005 734 OFFCURVE",
"963 758 OFFCURVE",
"911 686 CURVE SMOOTH",
"823 564 OFFCURVE",
"686 273 OFFCURVE",
"563 201 CURVE SMOOTH",
"523 177 OFFCURVE",
"497 188 OFFCURVE",
"511 257 CURVE SMOOTH",
"529 352 OFFCURVE",
"596 535 OFFCURVE",
"655 667 CURVE SMOOTH",
"726 828 OFFCURVE",
"772 1016 OFFCURVE",
"626 1080 CURVE SMOOTH",
"449 1159 OFFCURVE",
"123 1004 OFFCURVE",
"16 754 CURVE SMOOTH",
"-96 497 OFFCURVE",
"101 336 OFFCURVE",
"259 402 CURVE SMOOTH",
"505 505 OFFCURVE",
"532 812 OFFCURVE",
"310 744 CURVE SMOOTH",
"288 737 OFFCURVE",
"280 722 OFFCURVE",
"312 728 CURVE SMOOTH",
"489 757 OFFCURVE",
"401 477 OFFCURVE",
"260 426 CURVE SMOOTH",
"127 377 OFFCURVE",
"-21 465 OFFCURVE",
"72 718 CURVE SMOOTH",
"155 943 OFFCURVE",
"466 1148 OFFCURVE",
"630 1048 CURVE SMOOTH",
"709 1000 OFFCURVE",
"634 787 OFFCURVE",
"583 663 CURVE SMOOTH",
"508 484 OFFCURVE",
"458 352 OFFCURVE",
"453 268 CURVE SMOOTH",
"446 185 OFFCURVE",
"482 161 OFFCURVE",
"523 163 CURVE SMOOTH",
"634 168 OFFCURVE",
"792 399 OFFCURVE",
"848 492 CURVE",
"836 452 OFFCURVE",
"825 397 OFFCURVE",
"828 348 CURVE SMOOTH",
"847 83 OFFCURVE",
"1250 253 OFFCURVE",
"1353 513 CURVE SMOOTH"
);
}
);
width = 1351;
}
);
note = W;
unicode = 0057;
},
{
glyphname = X;
lastChange = "2021-04-19 01:04:02 +0000";
layers = (
{
hints = (
{
place = "{501, 71}";
type = Stem;
}
);
layerId = "61E7180A-0B32-4047-B910-001D8BB62225";
paths = (
{
closed = 1;
nodes = (
"1168 1142 OFFCURVE",
"1106 1140 OFFCURVE",
"1029 1065 CURVE SMOOTH",
"934 972 OFFCURVE",
"772 878 OFFCURVE",
"572 737 CURVE",
"574 876 OFFCURVE",
"561 1005 OFFCURVE",
"528 1036 CURVE SMOOTH",
"398 1156 OFFCURVE",
"123 918 OFFCURVE",
"109 896 CURVE SMOOTH",
"87 867 OFFCURVE",
"119 860 OFFCURVE",
"125 864 CURVE",
"172 911 OFFCURVE",
"224 970 OFFCURVE",
"280 996 CURVE SMOOTH",
"367 1037 OFFCURVE",
"462 1039 OFFCURVE",
"485 937 CURVE SMOOTH",
"500 875 OFFCURVE",
"501 781 OFFCURVE",
"500 685 CURVE",
"280 528 OFFCURVE",
"55 338 OFFCURVE",
"-103 118 CURVE SMOOTH",
"-149 55 OFFCURVE",
"-102 32 OFFCURVE",
"-47 118 CURVE SMOOTH",
"83 320 OFFCURVE",
"289 493 OFFCURVE",
"501 646 CURVE",
"497 494 OFFCURVE",
"493 352 OFFCURVE",
"505 304 CURVE SMOOTH",
"543 127 OFFCURVE",
"734 165 OFFCURVE",
"882 473 CURVE SMOOTH",
"894 497 OFFCURVE",
"872 494 OFFCURVE",
"864 477 CURVE SMOOTH",
"780 283 OFFCURVE",
"632 176 OFFCURVE",
"586 348 CURVE SMOOTH",
"570 409 OFFCURVE",
"570 559 OFFCURVE",
"574 698 CURVE",
"809 867 OFFCURVE",
"1009 986 OFFCURVE",
"1084 1060 CURVE SMOOTH"
);
}
);
width = 811;
}
);
note = X;
unicode = 0058;
},
{
glyphname = Y;
lastChange = "2021-04-19 01:04:02 +0000";
layers = (
{
hints = (
{
horizontal = 1;
place = "{-155, 25}";
type = Stem;
}
);
layerId = "61E7180A-0B32-4047-B910-001D8BB62225";
paths = (
{
closed = 1;
nodes = (
"1118 284 OFFCURVE",
"1112 275 OFFCURVE",
"1114 260 CURVE",
"1114 221 OFFCURVE",
"1092 210 OFFCURVE",
"1048 185 CURVE SMOOTH",
"1010 163 OFFCURVE",
"918 159 OFFCURVE",
"819 159 CURVE",
"892 291 OFFCURVE",
"962 520 OFFCURVE",
"997 674 CURVE SMOOTH",
"1032 824 OFFCURVE",
"953 762 OFFCURVE",
"947 738 CURVE",
"917 634 OFFCURVE",
"815 383 OFFCURVE",
"690 295 CURVE SMOOTH",
"611 239 OFFCURVE",
"519 247 OFFCURVE",
"545 367 CURVE SMOOTH",
"565 458 OFFCURVE",
"634 596 OFFCURVE",
"702 710 CURVE SMOOTH",
"792 863 OFFCURVE",
"835 1048 OFFCURVE",
"687 1114 CURVE SMOOTH",
"512 1193 OFFCURVE",
"177 1029 OFFCURVE",
"59 785 CURVE SMOOTH",
"-64 533 OFFCURVE",
"126 370 OFFCURVE",
"285 437 CURVE SMOOTH",
"511 529 OFFCURVE",
"580 835 OFFCURVE",
"369 777 CURVE SMOOTH",
"350 773 OFFCURVE",
"336 756 OFFCURVE",
"370 762 CURVE SMOOTH",
"545 795 OFFCURVE",
"429 509 OFFCURVE",
"289 460 CURVE SMOOTH",
"159 413 OFFCURVE",
"7 511 OFFCURVE",
"111 758 CURVE SMOOTH",
"204 981 OFFCURVE",
"529 1185 OFFCURVE",
"691 1081 CURVE SMOOTH",
"769 1032 OFFCURVE",
"710 843 OFFCURVE",
"622 698 CURVE SMOOTH",
"565 607 OFFCURVE",
"489 473 OFFCURVE",
"474 373 CURVE SMOOTH",
"454 220 OFFCURVE",
"602 204 OFFCURVE",
"704 273 CURVE SMOOTH",
"797 336 OFFCURVE",
"870 465 OFFCURVE",
"907 547 CURVE",
"871 413 OFFCURVE",
"823 287 OFFCURVE",
"771 158 CURVE",
"624 158 OFFCURVE",
"473 150 OFFCURVE",
"336 94 CURVE SMOOTH",
"84 -11 OFFCURVE",
"263 -182 OFFCURVE",
"525 -82 CURVE SMOOTH",
"627 -43 OFFCURVE",
"736 31 OFFCURVE",
"803 133 CURVE",
"905 134 OFFCURVE",
"1001 135 OFFCURVE",
"1053 155 CURVE SMOOTH",
"1115 182 OFFCURVE",
"1134 232 OFFCURVE",
"1126 259 CURVE SMOOTH"
);
},
{
closed = 1;
nodes = (
"695 36 OFFCURVE",
"599 -27 OFFCURVE",
"509 -60 CURVE SMOOTH",
"348 -119 OFFCURVE",
"159 -63 OFFCURVE",
"356 50 CURVE SMOOTH",
"476 119 OFFCURVE",
"620 133 OFFCURVE",
"756 133 CURVE"
);
}
);
width = 963;
}
);
note = Y;
unicode = 0059;
},
{
glyphname = Z;
lastChange = "2021-04-19 01:04:02 +0000";
layers = (
{
hints = (
{
horizontal = 1;
place = "{-159, 58}";
type = Stem;
},
{
horizontal = 1;
place = "{105, 36}";
type = Stem;
},
{
horizontal = 1;
place = "{647, 16}";
type = Stem;
},
{
horizontal = 1;
place = "{745, 19}";
type = Stem;
},
{
place = "{11, 47}";
type = Stem;
},
{
place = "{272, 35}";
type = Stem;
},
{
place = "{1052, 29}";
type = Stem;
},
{
horizontal = 1;
place = "{714, 55}";
type = Stem;
},
{
place = "{980, 23}";
type = Stem;
}
);
layerId = "61E7180A-0B32-4047-B910-001D8BB62225";
paths = (
{
closed = 1;
nodes = (
"1118 1008 OFFCURVE",
"1067 1072 OFFCURVE",
"984 1044 CURVE SMOOTH",
"951 1032 OFFCURVE",
"913 1008 OFFCURVE",
"871 976 CURVE",
"760 1010 OFFCURVE",
"616 1067 OFFCURVE",
"493 1056 CURVE SMOOTH",
"259 1039 OFFCURVE",
"244 883 OFFCURVE",
"300 823 CURVE SMOOTH",
"315 805 OFFCURVE",
"332 795 OFFCURVE",
"340 792 CURVE SMOOTH",
"350 789 OFFCURVE",
"387 787 OFFCURVE",
"352 811 CURVE SMOOTH",
"248 880 OFFCURVE",
"347 967 OFFCURVE",
"433 989 CURVE SMOOTH",
"552 1020 OFFCURVE",
"734 994 OFFCURVE",
"852 961 CURVE",
"777 899 OFFCURVE",
"694 816 OFFCURVE",
"638 750 CURVE SMOOTH",
"560 654 OFFCURVE",
"299 348 OFFCURVE",
"299 348 CURVE",
"229 393 OFFCURVE",
"185 413 OFFCURVE",
"155 421 CURVE SMOOTH",
"-12 465 OFFCURVE",
"-35 280 OFFCURVE",
"92 251 CURVE SMOOTH",
"139 240 OFFCURVE",
"206 257 OFFCURVE",
"293 320 CURVE",
"293 320 OFFCURVE",
"619 126 OFFCURVE",
"766 129 CURVE SMOOTH",
"963 133 OFFCURVE",
"1000 236 OFFCURVE",
"1004 275 CURVE SMOOTH",
"1009 332 OFFCURVE",
"985 322 OFFCURVE",
"980 289 CURVE SMOOTH",
"963 176 OFFCURVE",
"779 178 OFFCURVE",
"702 193 CURVE SMOOTH",
"594 214 OFFCURVE",
"319 334 OFFCURVE",
"319 334 CURVE",
"393 394 OFFCURVE",
"519 493 OFFCURVE",
"634 635 CURVE SMOOTH",
"709 729 OFFCURVE",
"816 886 OFFCURVE",
"888 951 CURVE",
"961 934 OFFCURVE",
"1020 926 OFFCURVE",
"1052 951 CURVE SMOOTH"
);
},
{
closed = 1;
nodes = (
"1008 943 OFFCURVE",
"961 951 OFFCURVE",
"903 967 CURVE",
"950 1006 OFFCURVE",
"992 1032 OFFCURVE",
"1022 1032 CURVE SMOOTH",
"1059 1032 OFFCURVE",
"1063 978 OFFCURVE",
"1033 959 CURVE SMOOTH"
);
},
{
closed = 1;
nodes = (
"252 306 OFFCURVE",
"197 281 OFFCURVE",
"151 280 CURVE SMOOTH",
"25 276 OFFCURVE",
"27 405 OFFCURVE",
"147 393 CURVE SMOOTH",
"173 389 OFFCURVE",
"208 377 OFFCURVE",
"249 352 CURVE",
"260 346 OFFCURVE",
"280 330 OFFCURVE",
"280 330 CURVE"
);
}
);
width = 681;
}
);
note = Z;
unicode = 005A;
},
{
glyphname = Z.stroke;
lastChange = "2021-04-19 01:04:02 +0000";
layers = (
{
hints = (
{
horizontal = 1;
place = "{335, 27}";
type = Stem;
},
{
place = "{378, 406}";
type = Stem;
}
);
layerId = "61E7180A-0B32-4047-B910-001D8BB62225";
paths = (
{
closed = 1;
nodes = (
"799 622 OFFCURVE",
"787 647 OFFCURVE",
"750 649 CURVE SMOOTH",
"712 649 OFFCURVE",
"677 650 OFFCURVE",
"646 650 CURVE",
"720 745 OFFCURVE",
"819 888 OFFCURVE",
"888 951 CURVE",
"961 934 OFFCURVE",
"1020 926 OFFCURVE",
"1052 951 CURVE SMOOTH",
"1118 1008 OFFCURVE",
"1067 1072 OFFCURVE",
"984 1044 CURVE SMOOTH",
"951 1032 OFFCURVE",
"913 1008 OFFCURVE",
"871 976 CURVE",
"760 1010 OFFCURVE",
"616 1067 OFFCURVE",
"493 1056 CURVE SMOOTH",
"259 1039 OFFCURVE",
"244 883 OFFCURVE",
"300 823 CURVE SMOOTH",
"315 805 OFFCURVE",
"332 795 OFFCURVE",
"340 792 CURVE SMOOTH",
"350 789 OFFCURVE",
"387 787 OFFCURVE",
"352 811 CURVE SMOOTH",
"248 880 OFFCURVE",
"347 967 OFFCURVE",
"433 989 CURVE SMOOTH",
"552 1020 OFFCURVE",
"734 994 OFFCURVE",
"852 961 CURVE",
"777 899 OFFCURVE",
"694 816 OFFCURVE",
"638 750 CURVE SMOOTH",
"556 651 LINE",
"489 653 OFFCURVE",
"441 653 OFFCURVE",
"405 653 CURVE SMOOTH",
"359 653 OFFCURVE",
"383 603 OFFCURVE",
"405 606 CURVE SMOOTH",
"441 607 OFFCURVE",
"481 611 OFFCURVE",
"525 614 CURVE",
"422 493 OFFCURVE",
"299 348 OFFCURVE",
"299 348 CURVE",
"229 393 OFFCURVE",
"185 413 OFFCURVE",
"155 421 CURVE SMOOTH",
"-12 465 OFFCURVE",
"-35 280 OFFCURVE",
"92 251 CURVE SMOOTH",
"139 240 OFFCURVE",
"206 257 OFFCURVE",
"293 320 CURVE",
"293 320 OFFCURVE",
"619 126 OFFCURVE",
"766 129 CURVE SMOOTH",
"963 133 OFFCURVE",
"1000 236 OFFCURVE",
"1004 275 CURVE SMOOTH",
"1009 332 OFFCURVE",
"985 322 OFFCURVE",
"980 289 CURVE SMOOTH",
"963 176 OFFCURVE",
"779 178 OFFCURVE",
"702 193 CURVE SMOOTH",
"594 214 OFFCURVE",
"319 334 OFFCURVE",
"319 334 CURVE",
"389 391 OFFCURVE",
"509 485 OFFCURVE",
"620 619 CURVE",
"662 622 OFFCURVE",
"708 622 OFFCURVE",
"757 622 CURVE SMOOTH"
);
},
{
closed = 1;
nodes = (
"252 306 OFFCURVE",
"197 281 OFFCURVE",
"151 280 CURVE SMOOTH",
"25 276 OFFCURVE",
"27 405 OFFCURVE",
"147 393 CURVE SMOOTH",
"173 389 OFFCURVE",
"208 377 OFFCURVE",
"249 352 CURVE",
"260 346 OFFCURVE",
"280 330 OFFCURVE",
"280 330 CURVE"
);
},
{
closed = 1;
nodes = (
"1008 943 OFFCURVE",
"961 951 OFFCURVE",
"903 967 CURVE",
"950 1006 OFFCURVE",
"992 1032 OFFCURVE",
"1022 1032 CURVE SMOOTH",
"1059 1032 OFFCURVE",
"1063 978 OFFCURVE",
"1033 959 CURVE SMOOTH"
);
}
);
width = 681;
}
);
note = Z.stroke;
unicode = E000;
},
{
glyphname = bracketleft;
lastChange = "2021-04-19 01:04:02 +0000";
layers = (
{
hints = (
{
horizontal = 1;
place = "{-17, 42}";
type = Stem;
},
{
horizontal = 1;
place = "{671, 51}";
type = Stem;
},
{
place = "{39, 59}";
type = Stem;
}
);
layerId = "61E7180A-0B32-4047-B910-001D8BB62225";
paths = (
{
closed = 1;
nodes = (
"586 1009 OFFCURVE",
"519 1009 OFFCURVE",
"494 1009 CURVE SMOOTH",
"474 1009 LINE SMOOTH",
"409 1009 OFFCURVE",
"381 980 OFFCURVE",
"340 933 CURVE SMOOTH",
"230 804 OFFCURVE",
"39 485 OFFCURVE",
"39 316 CURVE SMOOTH",
"39 271 OFFCURVE",
"125 271 OFFCURVE",
"155 271 CURVE SMOOTH",
"178 271 OFFCURVE",
"280 268 OFFCURVE",
"280 293 CURVE SMOOTH",
"280 312 OFFCURVE",
"251 316 OFFCURVE",
"237 316 CURVE SMOOTH",
"213 316 OFFCURVE",
"189 312 OFFCURVE",
"165 312 CURVE SMOOTH",
"135 312 OFFCURVE",
"98 316 OFFCURVE",
"98 356 CURVE SMOOTH",
"98 472 OFFCURVE",
"338 903 OFFCURVE",
"440 954 CURVE SMOOTH",
"450 959 OFFCURVE",
"474 959 OFFCURVE",
"486 959 CURVE SMOOTH",
"512 959 OFFCURVE",
"536 955 OFFCURVE",
"561 955 CURVE SMOOTH",
"576 955 OFFCURVE",
"586 954 OFFCURVE",
"586 973 CURVE SMOOTH"
);
}
);
width = 588;
}
);
note = bracketleft;
unicode = 005B;
},
{
glyphname = backslash;
lastChange = "2021-04-19 01:04:02 +0000";
layers = (
{
hints = (
{
horizontal = 1;
place = "{765, 29}";
type = Stem;
}
);
layerId = "61E7180A-0B32-4047-B910-001D8BB62225";
paths = (
{
closed = 1;
nodes = (
"863 253 LINE",
"863 260 OFFCURVE",
"859 264 OFFCURVE",
"855 268 CURVE SMOOTH",
"690 438 OFFCURVE",
"574 616 OFFCURVE",
"436 803 CURVE SMOOTH",
"331 943 OFFCURVE",
"204 1081 OFFCURVE",
"92 1081 CURVE SMOOTH",
"64 1081 OFFCURVE",
"31 1075 OFFCURVE",
"20 1045 CURVE",
"27 1039 LINE",
"42 1043 OFFCURVE",
"55 1052 OFFCURVE",
"70 1052 CURVE SMOOTH",
"251 1052 OFFCURVE",
"673 302 OFFCURVE",
"856 248 CURVE"
);
}
);
width = 871;
}
);
note = backslash;
unicode = 005C;
},
{
glyphname = bracketright;
lastChange = "2021-04-19 01:04:02 +0000";
layers = (
{
hints = (
{
horizontal = 1;
place = "{674, 47}";
type = Stem;
},
{
place = "{492, 59}";
type = Stem;
}
);
layerId = "61E7180A-0B32-4047-B910-001D8BB62225";
paths = (
{
closed = 1;
nodes = (
"551 1004 OFFCURVE",
"523 1008 OFFCURVE",
"488 1008 CURVE SMOOTH",
"448 1008 OFFCURVE",
"354 1008 OFFCURVE",
"340 958 CURVE",
"344 955 LINE",
"381 955 OFFCURVE",
"418 959 OFFCURVE",
"456 959 CURVE SMOOTH",
"466 959 OFFCURVE",
"477 959 OFFCURVE",
"489 955 CURVE",
"490 946 OFFCURVE",
"492 935 OFFCURVE",
"492 926 CURVE SMOOTH",
"492 779 OFFCURVE",
"350 474 OFFCURVE",
"252 364 CURVE SMOOTH",
"173 276 OFFCURVE",
"31 348 OFFCURVE",
"17 276 CURVE",
"32 268 OFFCURVE",
"72 271 OFFCURVE",
"92 271 CURVE SMOOTH",
"153 271 OFFCURVE",
"232 272 OFFCURVE",
"276 316 CURVE SMOOTH",
"413 454 OFFCURVE",
"551 766 OFFCURVE",
"551 961 CURVE SMOOTH"
);
}
);
width = 559;
}
);
note = bracketright;
unicode = 005D;
},
{
glyphname = asciicircum;
lastChange = "2021-04-19 01:04:02 +0000";
layers = (
{
hints = (
{
horizontal = 1;
place = "{385, 21}";
target = up;
type = BottomGhost;
},
{
horizontal = 1;
place = "{519, -20}";
target = down;
type = TopGhost;
}
);
layerId = "61E7180A-0B32-4047-B910-001D8BB62225";
paths = (
{
closed = 1;
nodes = (
"401 689 LINE",
"359 722 OFFCURVE",
"320 760 OFFCURVE",
"289 803 CURVE",
"284 807 LINE",
"261 803 OFFCURVE",
"122 701 OFFCURVE",
"119 682 CURVE",
"125 675 LINE",
"143 678 OFFCURVE",
"240 749 OFFCURVE",
"261 764 CURVE",
"280 738 OFFCURVE",
"360 671 OFFCURVE",
"393 671 CURVE SMOOTH",
"398 671 OFFCURVE",
"405 674 OFFCURVE",
"405 681 CURVE"
);
}
);
width = 373;
}
);
note = asciicircum;
unicode = 005E;
},
{
glyphname = underscore;
lastChange = "2021-04-19 01:04:02 +0000";
layers = (
{
hints = (
{
horizontal = 1;
place = "{-60, 35}";
type = Stem;
}
);
layerId = "61E7180A-0B32-4047-B910-001D8BB62225";
paths = (
{
closed = 1;
nodes = (
"797 235 LINE",
"796 248 OFFCURVE",
"784 263 OFFCURVE",
"769 263 CURVE SMOOTH",
"25 263 LINE SMOOTH",
"15 263 OFFCURVE",
"8 253 OFFCURVE",
"8 244 CURVE SMOOTH",
"8 235 OFFCURVE",
"13 214 OFFCURVE",
"25 214 CURVE SMOOTH",
"91 214 OFFCURVE",
"155 220 OFFCURVE",
"220 220 CURVE SMOOTH",
"410 224 OFFCURVE",
"600 228 OFFCURVE",
"791 228 CURVE"
);
}
);
width = 811;
}
);
note = underscore;
unicode = 005F;
},
{
glyphname = grave;
lastChange = "2021-04-19 01:04:02 +0000";
layers = (
{
hints = (
{
horizontal = 1;
place = "{401, 21}";
target = up;
type = BottomGhost;
},
{
horizontal = 1;
place = "{537, -20}";
target = down;
type = TopGhost;
}
);
layerId = "61E7180A-0B32-4047-B910-001D8BB62225";
paths = (
{
closed = 1;
nodes = (
"194 705 OFFCURVE",
"47 824 OFFCURVE",
"28 824 CURVE SMOOTH",
"17 824 OFFCURVE",
"9 815 OFFCURVE",
"9 803 CURVE SMOOTH",
"9 781 OFFCURVE",
"28 766 OFFCURVE",
"47 758 CURVE SMOOTH",
"66 749 OFFCURVE",
"176 689 OFFCURVE",
"184 689 CURVE SMOOTH",
"189 689 OFFCURVE",
"194 691 OFFCURVE",
"194 698 CURVE SMOOTH"
);
}
);
width = 212;
}
);
note = grave;
unicode = 0060;
},
{
glyphname = a;
lastChange = "2021-04-19 01:04:02 +0000";
layers = (
{
hints = (
{
horizontal = 1;
place = "{-1, 28}";
type = Stem;
},
{
horizontal = 1;
place = "{204, -20}";
target = down;
type = TopGhost;
},
{
horizontal = 1;
place = "{334, 24}";
type = Stem;
},
{
place = "{24, 47}";
type = Stem;
},
{
place = "{212, 54}";
type = Stem;
},
{
place = "{331, 19}";
type = Stem;
},
{
horizontal = 1;
place = "{-3, 27}";
type = Stem;
}
);
layerId = "61E7180A-0B32-4047-B910-001D8BB62225";
paths = (
{
closed = 1;
nodes = (
"433 493 OFFCURVE",
"418 498 OFFCURVE",
"409 481 CURVE SMOOTH",
"389 437 OFFCURVE",
"322 310 OFFCURVE",
"280 312 CURVE SMOOTH",
"267 312 OFFCURVE",
"261 331 OFFCURVE",
"269 373 CURVE SMOOTH",
"283 433 OFFCURVE",
"342 539 OFFCURVE",
"363 560 CURVE",
"348 557 OFFCURVE",
"334 563 OFFCURVE",
"320 564 CURVE SMOOTH",
"288 565 OFFCURVE",
"275 541 OFFCURVE",
"252 500 CURVE SMOOTH",
"226 450 OFFCURVE",
"198 401 OFFCURVE",
"163 359 CURVE SMOOTH",
"115 303 OFFCURVE",
"60 295 OFFCURVE",
"71 364 CURVE SMOOTH",
"76 403 OFFCURVE",
"103 453 OFFCURVE",
"111 466 CURVE SMOOTH",
"147 525 OFFCURVE",
"200 586 OFFCURVE",
"245 610 CURVE SMOOTH",
"283 630 OFFCURVE",
"320 622 OFFCURVE",
"331 586 CURVE",
"348 582 OFFCURVE",
"356 599 OFFCURVE",
"342 614 CURVE SMOOTH",
"320 637 OFFCURVE",
"292 646 OFFCURVE",
"261 646 CURVE SMOOTH",
"208 645 OFFCURVE",
"147 614 OFFCURVE",
"109 568 CURVE SMOOTH",
"-43 386 OFFCURVE",
"34 210 OFFCURVE",
"149 320 CURVE SMOOTH",
"178 348 OFFCURVE",
"205 389 OFFCURVE",
"221 415 CURVE",
"192 310 OFFCURVE",
"239 284 OFFCURVE",
"272 285 CURVE SMOOTH",
"332 291 OFFCURVE",
"393 411 OFFCURVE",
"423 473 CURVE SMOOTH"
);
}
);
width = 352;
}
);
note = a;
unicode = 0061;
},
{
glyphname = b;
lastChange = "2021-04-19 01:04:02 +0000";
layers = (
{
hints = (
{
horizontal = 1;
place = "{622, -20}";
target = down;
type = TopGhost;
}
);
layerId = "61E7180A-0B32-4047-B910-001D8BB62225";
paths = (
{
closed = 1;
nodes = (
"177 730 OFFCURVE",
"44 430 OFFCURVE",
"-24 340 CURVE SMOOTH",
"-31 331 OFFCURVE",
"-24 323 OFFCURVE",
"-16 330 CURVE SMOOTH",
"4 348 OFFCURVE",
"44 414 OFFCURVE",
"91 505 CURVE",
"71 465 OFFCURVE",
"55 426 OFFCURVE",
"47 395 CURVE SMOOTH",
"28 323 OFFCURVE",
"71 264 OFFCURVE",
"185 295 CURVE SMOOTH",
"269 316 OFFCURVE",
"331 413 OFFCURVE",
"348 497 CURVE SMOOTH",
"362 561 OFFCURVE",
"342 627 OFFCURVE",
"268 638 CURVE SMOOTH",
"224 646 OFFCURVE",
"224 615 OFFCURVE",
"255 618 CURVE SMOOTH",
"318 624 OFFCURVE",
"319 560 OFFCURVE",
"292 493 CURVE SMOOTH",
"276 453 OFFCURVE",
"245 402 OFFCURVE",
"217 369 CURVE SMOOTH",
"182 327 OFFCURVE",
"154 307 OFFCURVE",
"131 312 CURVE SMOOTH",
"63 326 OFFCURVE",
"106 468 OFFCURVE",
"157 570 CURVE SMOOTH",
"224 702 OFFCURVE",
"342 867 OFFCURVE",
"378 905 CURVE",
"364 902 OFFCURVE",
"348 907 OFFCURVE",
"336 909 CURVE SMOOTH",
"331 909 LINE SMOOTH",
"308 910 OFFCURVE",
"288 895 OFFCURVE",
"264 859 CURVE SMOOTH"
);
}
);
width = 347;
}
);
note = b;
unicode = 0062;
},
{
glyphname = c;
lastChange = "2021-04-19 01:04:02 +0000";
layers = (
{
hints = (
{
horizontal = 1;
place = "{-4, 21}";
target = up;
type = BottomGhost;
},
{
horizontal = 1;
place = "{332, 23}";
type = Stem;
}
);
layerId = "61E7180A-0B32-4047-B910-001D8BB62225";
paths = (
{
closed = 1;
nodes = (
"348 492 OFFCURVE",
"335 497 OFFCURVE",
"326 478 CURVE SMOOTH",
"285 399 OFFCURVE",
"237 302 OFFCURVE",
"150 302 CURVE SMOOTH",
"107 302 OFFCURVE",
"91 339 OFFCURVE",
"91 379 CURVE SMOOTH",
"91 437 OFFCURVE",
"127 507 OFFCURVE",
"146 533 CURVE SMOOTH",
"174 574 OFFCURVE",
"217 619 OFFCURVE",
"253 619 CURVE SMOOTH",
"272 619 OFFCURVE",
"283 606 OFFCURVE",
"273 570 CURVE SMOOTH",
"268 552 OFFCURVE",
"253 532 OFFCURVE",
"243 519 CURVE",
"264 497 OFFCURVE",
"306 539 OFFCURVE",
"310 572 CURVE SMOOTH",
"315 614 OFFCURVE",
"291 642 OFFCURVE",
"240 642 CURVE SMOOTH",
"192 642 OFFCURVE",
"143 612 OFFCURVE",
"106 561 CURVE SMOOTH",
"34 465 OFFCURVE",
"-19 284 OFFCURVE",
"139 284 CURVE SMOOTH",
"251 284 OFFCURVE",
"291 367 OFFCURVE",
"340 472 CURVE SMOOTH"
);
}
);
width = 261;
}
);
note = c;
unicode = 0063;
},
{
glyphname = d;
lastChange = "2021-04-19 01:04:02 +0000";
layers = (
{
hints = (
{
horizontal = 1;
place = "{0, 27}";
type = Stem;
}
);
layerId = "61E7180A-0B32-4047-B910-001D8BB62225";
paths = (
{
closed = 1;
nodes = (
"540 911 OFFCURVE",
"525 915 OFFCURVE",
"512 917 CURVE SMOOTH",
"480 919 OFFCURVE",
"462 910 OFFCURVE",
"444 864 CURVE SMOOTH",
"419 811 OFFCURVE",
"375 718 OFFCURVE",
"327 626 CURVE",
"255 669 OFFCURVE",
"168 634 OFFCURVE",
"111 568 CURVE SMOOTH",
"38 480 OFFCURVE",
"-19 318 OFFCURVE",
"76 292 CURVE SMOOTH",
"146 273 OFFCURVE",
"193 354 OFFCURVE",
"224 403 CURVE",
"213 362 OFFCURVE",
"221 332 OFFCURVE",
"232 315 CURVE SMOOTH",
"245 296 OFFCURVE",
"261 288 OFFCURVE",
"277 288 CURVE SMOOTH",
"358 288 OFFCURVE",
"417 418 OFFCURVE",
"441 474 CURVE SMOOTH",
"449 494 OFFCURVE",
"433 498 OFFCURVE",
"425 481 CURVE SMOOTH",
"405 438 OFFCURVE",
"346 314 OFFCURVE",
"296 314 CURVE SMOOTH",
"248 314 OFFCURVE",
"280 398 OFFCURVE",
"289 421 CURVE SMOOTH",
"348 560 OFFCURVE",
"525 884 OFFCURVE",
"555 913 CURVE"
);
},
{
closed = 1;
nodes = (
"272 521 OFFCURVE",
"221 436 OFFCURVE",
"184 383 CURVE SMOOTH",
"99 263 OFFCURVE",
"39 324 OFFCURVE",
"105 449 CURVE SMOOTH",
"158 548 OFFCURVE",
"268 659 OFFCURVE",
"319 610 CURVE"
);
}
);
width = 369;
}
);
note = d;
unicode = 0064;
},
{
glyphname = e;
lastChange = "2021-04-19 01:04:02 +0000";
layers = (
{
hints = (
{
horizontal = 1;
place = "{-4, 21}";
type = Stem;
}
);
layerId = "61E7180A-0B32-4047-B910-001D8BB62225";
paths = (
{
closed = 1;
nodes = (
"330 497 OFFCURVE",
"310 494 OFFCURVE",
"302 477 CURVE SMOOTH",
"279 423 OFFCURVE",
"224 304 OFFCURVE",
"135 304 CURVE SMOOTH",
"70 304 OFFCURVE",
"87 406 OFFCURVE",
"102 442 CURVE",
"129 442 OFFCURVE",
"194 464 OFFCURVE",
"225 486 CURVE SMOOTH",
"289 536 OFFCURVE",
"319 604 OFFCURVE",
"280 634 CURVE SMOOTH",
"236 666 OFFCURVE",
"159 628 OFFCURVE",
"109 568 CURVE SMOOTH",
"64 516 OFFCURVE",
"31 441 OFFCURVE",
"31 381 CURVE SMOOTH",
"32 316 OFFCURVE",
"78 284 OFFCURVE",
"127 284 CURVE SMOOTH",
"240 284 OFFCURVE",
"283 395 OFFCURVE",
"320 476 CURVE SMOOTH"
);
},
{
closed = 1;
nodes = (
"180 473 OFFCURVE",
"127 460 OFFCURVE",
"109 460 CURVE",
"118 477 OFFCURVE",
"143 521 OFFCURVE",
"169 553 CURVE SMOOTH",
"292 704 OFFCURVE",
"297 574 OFFCURVE",
"216 504 CURVE SMOOTH"
);
}
);
width = 248;
}
);
note = e;
unicode = 0065;
},
{
glyphname = f;
lastChange = "2021-04-19 01:04:02 +0000";
layers = (
{
hints = (
{
horizontal = 1;
place = "{-1, 21}";
target = up;
type = BottomGhost;
},
{
horizontal = 1;
place = "{630, -20}";
target = down;
type = TopGhost;
}
);
layerId = "61E7180A-0B32-4047-B910-001D8BB62225";
paths = (
{
closed = 1;
nodes = (
"350 910 OFFCURVE",
"332 917 OFFCURVE",
"320 917 CURVE SMOOTH",
"279 917 OFFCURVE",
"257 890 OFFCURVE",
"236 847 CURVE SMOOTH",
"180 742 OFFCURVE",
"102 580 OFFCURVE",
"29 417 CURVE",
"16 419 OFFCURVE",
"3 414 OFFCURVE",
"-7 406 CURVE SMOOTH",
"-27 393 OFFCURVE",
"-35 348 OFFCURVE",
"-15 316 CURVE",
"-74 177 OFFCURVE",
"-119 55 OFFCURVE",
"-118 -11 CURVE SMOOTH",
"-117 -51 OFFCURVE",
"-94 -62 OFFCURVE",
"-66 -63 CURVE SMOOTH",
"43 -67 OFFCURVE",
"119 146 OFFCURVE",
"107 287 CURVE",
"180 287 OFFCURVE",
"235 393 OFFCURVE",
"272 477 CURVE SMOOTH",
"279 492 OFFCURVE",
"264 497 OFFCURVE",
"256 484 CURVE SMOOTH",
"224 413 OFFCURVE",
"166 302 OFFCURVE",
"106 306 CURVE",
"105 310 OFFCURVE",
"103 315 OFFCURVE",
"103 319 CURVE SMOOTH",
"95 354 OFFCURVE",
"83 378 OFFCURVE",
"71 394 CURVE",
"172 620 OFFCURVE",
"302 852 OFFCURVE",
"364 911 CURVE"
);
},
{
closed = 1;
nodes = (
"83 302 OFFCURVE",
"80 302 OFFCURVE",
"79 302 CURVE SMOOTH",
"60 302 OFFCURVE",
"44 310 OFFCURVE",
"39 320 CURVE",
"47 339 OFFCURVE",
"52 352 OFFCURVE",
"60 371 CURVE",
"66 364 OFFCURVE",
"71 356 OFFCURVE",
"75 347 CURVE SMOOTH",
"80 334 OFFCURVE",
"83 319 OFFCURVE",
"84 302 CURVE"
);
},
{
closed = 1;
nodes = (
"88 193 OFFCURVE",
"52 70 OFFCURVE",
"3 5 CURVE SMOOTH",
"-36 -47 OFFCURVE",
"-83 -67 OFFCURVE",
"-55 51 CURVE SMOOTH",
"-39 117 OFFCURVE",
"-7 210 OFFCURVE",
"28 299 CURVE",
"42 288 OFFCURVE",
"67 280 OFFCURVE",
"87 283 CURVE"
);
}
);
width = 200;
}
);
note = f;
unicode = 0066;
},
{
glyphname = g;
lastChange = "2021-04-19 01:04:02 +0000";
layers = (
{
hints = (
{
horizontal = 1;
place = "{-318, 20}";
type = Stem;
}
);
layerId = "61E7180A-0B32-4047-B910-001D8BB62225";
paths = (
{
closed = 1;
nodes = (
"476 493 OFFCURVE",
"460 498 OFFCURVE",
"450 481 CURVE SMOOTH",
"441 461 OFFCURVE",
"425 418 OFFCURVE",
"393 374 CURVE SMOOTH",
"373 347 OFFCURVE",
"346 326 OFFCURVE",
"322 308 CURVE",
"343 389 OFFCURVE",
"348 473 OFFCURVE",
"335 553 CURVE",
"319 541 OFFCURVE",
"287 559 OFFCURVE",
"272 513 CURVE SMOOTH",
"253 449 OFFCURVE",
"155 296 OFFCURVE",
"96 320 CURVE SMOOTH",
"44 344 OFFCURVE",
"101 465 OFFCURVE",
"174 548 CURVE SMOOTH",
"236 616 OFFCURVE",
"310 657 OFFCURVE",
"336 586 CURVE SMOOTH",
"347 555 OFFCURVE",
"382 586 OFFCURVE",
"347 614 CURVE SMOOTH",
"272 674 OFFCURVE",
"173 639 OFFCURVE",
"114 568 CURVE SMOOTH",
"39 480 OFFCURVE",
"-21 335 OFFCURVE",
"79 292 CURVE",
"159 268 OFFCURVE",
"240 403 OFFCURVE",
"272 465 CURVE",
"276 454 OFFCURVE",
"276 422 OFFCURVE",
"272 383 CURVE SMOOTH",
"268 343 OFFCURVE",
"260 307 OFFCURVE",
"248 272 CURVE",
"172 240 OFFCURVE",
"79 221 OFFCURVE",
"-19 163 CURVE SMOOTH",
"-67 135 OFFCURVE",
"-107 96 OFFCURVE",
"-107 47 CURVE SMOOTH",
"-107 -5 OFFCURVE",
"-75 -31 OFFCURVE",
"-12 -31 CURVE SMOOTH",
"134 -31 OFFCURVE",
"267 149 OFFCURVE",
"311 276 CURVE",
"385 311 OFFCURVE",
"414 367 OFFCURVE",
"465 473 CURVE SMOOTH"
);
},
{
closed = 1;
nodes = (
"224 208 OFFCURVE",
"205 176 OFFCURVE",
"181 141 CURVE SMOOTH",
"153 103 OFFCURVE",
"122 67 OFFCURVE",
"91 43 CURVE SMOOTH",
"67 24 OFFCURVE",
"7 -11 OFFCURVE",
"-36 -11 CURVE SMOOTH",
"-119 -11 OFFCURVE",
"-83 91 OFFCURVE",
"-19 134 CURVE SMOOTH",
"46 176 OFFCURVE",
"130 205 OFFCURVE",
"204 230 CURVE SMOOTH",
"216 235 OFFCURVE",
"228 239 OFFCURVE",
"239 243 CURVE"
);
}
);
width = 394;
}
);
note = g;
unicode = 0067;
},
{
glyphname = h;
lastChange = "2021-04-19 01:04:02 +0000";
layers = (
{
hints = (
{
horizontal = 1;
place = "{-4, 21}";
type = Stem;
},
{
horizontal = 1;
place = "{-7, 21}";
target = up;
type = BottomGhost;
},
{
horizontal = 1;
place = "{-1, 21}";
target = up;
type = BottomGhost;
}
);
layerId = "61E7180A-0B32-4047-B910-001D8BB62225";
paths = (
{
closed = 1;
nodes = (
"414 493 OFFCURVE",
"399 500 OFFCURVE",
"390 481 CURVE SMOOTH",
"369 438 OFFCURVE",
"300 302 OFFCURVE",
"255 304 CURVE SMOOTH",
"241 306 OFFCURVE",
"232 316 OFFCURVE",
"240 358 CURVE SMOOTH",
"252 429 OFFCURVE",
"360 618 OFFCURVE",
"360 618 CURVE",
"326 630 OFFCURVE",
"222 565 OFFCURVE",
"174 523 CURVE SMOOTH",
"147 500 OFFCURVE",
"119 469 OFFCURVE",
"92 434 CURVE",
"176 602 OFFCURVE",
"306 848 OFFCURVE",
"350 894 CURVE",
"336 891 OFFCURVE",
"320 896 OFFCURVE",
"308 898 CURVE SMOOTH",
"276 899 OFFCURVE",
"260 876 OFFCURVE",
"236 835 CURVE SMOOTH",
"139 654 OFFCURVE",
"42 449 OFFCURVE",
"-40 280 CURVE",
"-31 287 OFFCURVE",
"-21 285 OFFCURVE",
"-7 287 CURVE SMOOTH",
"15 287 OFFCURVE",
"24 288 OFFCURVE",
"31 302 CURVE SMOOTH",
"88 413 OFFCURVE",
"138 469 OFFCURVE",
"172 501 CURVE SMOOTH",
"249 574 OFFCURVE",
"268 545 OFFCURVE",
"244 507 CURVE SMOOTH",
"216 461 OFFCURVE",
"196 427 OFFCURVE",
"188 401 CURVE SMOOTH",
"158 308 OFFCURVE",
"206 284 OFFCURVE",
"241 284 CURVE SMOOTH",
"316 284 OFFCURVE",
"371 402 OFFCURVE",
"405 472 CURVE SMOOTH"
);
}
);
width = 334;
}
);
note = h;
unicode = 0068;
},
{
glyphname = i;
lastChange = "2021-04-19 01:04:02 +0000";
layers = (
{
hints = (
{
horizontal = 1;
place = "{0, 21}";
target = up;
type = BottomGhost;
},
{
horizontal = 1;
place = "{379, 83}";
type = Stem;
}
);
layerId = "61E7180A-0B32-4047-B910-001D8BB62225";
paths = (
{
closed = 1;
nodes = (
"216 730 OFFCURVE",
"200 749 OFFCURVE",
"177 749 CURVE SMOOTH",
"155 749 OFFCURVE",
"133 730 OFFCURVE",
"129 708 CURVE SMOOTH",
"126 685 OFFCURVE",
"141 666 OFFCURVE",
"163 666 CURVE SMOOTH",
"188 666 OFFCURVE",
"208 685 OFFCURVE",
"212 708 CURVE SMOOTH"
);
},
{
closed = 1;
nodes = (
"72 381 OFFCURVE",
"83 402 OFFCURVE",
"83 402 CURVE",
"163 590 LINE SMOOTH",
"174 614 OFFCURVE",
"174 626 OFFCURVE",
"142 626 CURVE SMOOTH",
"87 624 LINE",
"91 619 OFFCURVE",
"105 602 OFFCURVE",
"96 582 CURVE SMOOTH",
"32 418 LINE SMOOTH",
"11 366 OFFCURVE",
"11 288 OFFCURVE",
"87 288 CURVE SMOOTH",
"161 288 OFFCURVE",
"218 415 OFFCURVE",
"244 472 CURVE SMOOTH",
"253 492 OFFCURVE",
"240 498 OFFCURVE",
"232 481 CURVE SMOOTH",
"204 425 OFFCURVE",
"170 362 OFFCURVE",
"137 328 CURVE SMOOTH",
"126 319 OFFCURVE",
"107 308 OFFCURVE",
"91 310 CURVE SMOOTH",
"63 312 OFFCURVE",
"62 340 OFFCURVE",
"71 373 CURVE SMOOTH"
);
}
);
width = 176;
}
);
leftKerningGroup = i;
note = i;
unicode = 0069;
},
{
glyphname = j;
lastChange = "2021-04-19 01:04:02 +0000";
layers = (
{
hints = (
{
horizontal = 1;
place = "{-318, 20}";
type = Stem;
},
{
horizontal = 1;
place = "{379, 83}";
type = Stem;
}
);
layerId = "61E7180A-0B32-4047-B910-001D8BB62225";
paths = (
{
closed = 1;
nodes = (
"43 415 OFFCURVE",
"13 354 OFFCURVE",
"-11 306 CURVE SMOOTH",
"-20 287 OFFCURVE",
"-32 267 OFFCURVE",
"-43 248 CURVE",
"-125 224 OFFCURVE",
"-220 208 OFFCURVE",
"-288 176 CURVE SMOOTH",
"-327 157 OFFCURVE",
"-363 130 OFFCURVE",
"-382 92 CURVE SMOOTH",
"-413 36 OFFCURVE",
"-402 -31 OFFCURVE",
"-302 -31 CURVE SMOOTH",
"-153 -31 OFFCURVE",
"-54 123 OFFCURVE",
"11 237 CURVE",
"155 289 OFFCURVE",
"181 332 OFFCURVE",
"249 473 CURVE SMOOTH",
"260 493 OFFCURVE",
"244 500 OFFCURVE",
"236 481 CURVE SMOOTH",
"225 462 OFFCURVE",
"208 421 OFFCURVE",
"176 374 CURVE SMOOTH",
"130 308 OFFCURVE",
"87 292 OFFCURVE",
"27 269 CURVE",
"50 314 OFFCURVE",
"71 358 OFFCURVE",
"90 402 CURVE SMOOTH",
"170 590 LINE SMOOTH",
"181 614 OFFCURVE",
"181 626 OFFCURVE",
"149 626 CURVE SMOOTH",
"94 624 LINE",
"98 619 OFFCURVE",
"113 600 OFFCURVE",
"103 582 CURVE SMOOTH",
"51 466 LINE SMOOTH",
"44 453 OFFCURVE",
"54 450 OFFCURVE",
"59 450 CURVE"
);
},
{
closed = 1;
nodes = (
"-70 202 OFFCURVE",
"-76 189 OFFCURVE",
"-84 178 CURVE SMOOTH",
"-130 115 OFFCURVE",
"-237 -11 OFFCURVE",
"-326 -11 CURVE SMOOTH",
"-411 -11 OFFCURVE",
"-374 109 OFFCURVE",
"-271 153 CURVE SMOOTH",
"-213 178 OFFCURVE",
"-127 198 OFFCURVE",
"-63 216 CURVE"
);
},
{
closed = 1;
nodes = (
"216 730 OFFCURVE",
"200 749 OFFCURVE",
"177 749 CURVE SMOOTH",
"155 749 OFFCURVE",
"133 730 OFFCURVE",
"129 708 CURVE SMOOTH",
"126 685 OFFCURVE",
"141 666 OFFCURVE",
"163 666 CURVE SMOOTH",
"188 666 OFFCURVE",
"208 685 OFFCURVE",
"212 708 CURVE SMOOTH"
);
}
);
width = 178;
}
);
note = j;
unicode = 006A;
},
{
glyphname = k;
lastChange = "2021-04-19 01:04:02 +0000";
layers = (
{
hints = (
{
horizontal = 1;
place = "{0, 21}";
target = up;
type = BottomGhost;
},
{
horizontal = 1;
place = "{622, -20}";
target = down;
type = TopGhost;
}
);
layerId = "61E7180A-0B32-4047-B910-001D8BB62225";
paths = (
{
closed = 1;
nodes = (
"177 730 OFFCURVE",
"44 430 OFFCURVE",
"-24 340 CURVE SMOOTH",
"-31 331 OFFCURVE",
"-24 320 OFFCURVE",
"-16 327 CURVE SMOOTH",
"4 346 OFFCURVE",
"44 418 OFFCURVE",
"91 505 CURVE",
"60 437 OFFCURVE",
"27 379 OFFCURVE",
"8 310 CURVE SMOOTH",
"4 296 OFFCURVE",
"3 288 OFFCURVE",
"16 288 CURVE SMOOTH",
"34 288 OFFCURVE",
"60 288 OFFCURVE",
"79 288 CURVE",
"63 302 OFFCURVE",
"90 410 OFFCURVE",
"107 445 CURVE",
"135 482 OFFCURVE",
"163 513 OFFCURVE",
"190 536 CURVE SMOOTH",
"306 634 OFFCURVE",
"350 564 OFFCURVE",
"287 513 CURVE SMOOTH",
"264 493 OFFCURVE",
"229 481 OFFCURVE",
"208 482 CURVE",
"185 481 OFFCURVE",
"147 433 OFFCURVE",
"159 367 CURVE SMOOTH",
"170 315 OFFCURVE",
"201 285 OFFCURVE",
"237 281 CURVE SMOOTH",
"296 276 OFFCURVE",
"358 292 OFFCURVE",
"437 474 CURVE SMOOTH",
"445 490 OFFCURVE",
"433 500 OFFCURVE",
"425 484 CURVE SMOOTH",
"397 425 OFFCURVE",
"369 373 OFFCURVE",
"343 346 CURVE SMOOTH",
"251 248 OFFCURVE",
"186 373 OFFCURVE",
"224 466 CURVE",
"268 470 OFFCURVE",
"296 485 OFFCURVE",
"326 505 CURVE SMOOTH",
"402 560 OFFCURVE",
"414 673 OFFCURVE",
"284 624 CURVE SMOOTH",
"226 602 OFFCURVE",
"163 536 OFFCURVE",
"121 484 CURVE",
"131 513 OFFCURVE",
"143 543 OFFCURVE",
"157 570 CURVE SMOOTH",
"224 702 OFFCURVE",
"327 866 OFFCURVE",
"378 905 CURVE",
"364 902 OFFCURVE",
"348 907 OFFCURVE",
"336 909 CURVE SMOOTH",
"331 909 LINE SMOOTH",
"308 910 OFFCURVE",
"288 895 OFFCURVE",
"264 859 CURVE SMOOTH"
);
}
);
width = 364;
}
);
note = k;
unicode = 006B;
},
{
glyphname = l;
lastChange = "2021-04-19 01:04:02 +0000";
layers = (
{
hints = (
{
horizontal = 1;
place = "{-3, 21}";
target = up;
type = BottomGhost;
}
);
layerId = "61E7180A-0B32-4047-B910-001D8BB62225";
paths = (
{
closed = 1;
nodes = (
"391 943 OFFCURVE",
"283 958 OFFCURVE",
"212 839 CURVE SMOOTH",
"153 741 OFFCURVE",
"90 596 OFFCURVE",
"59 484 CURVE SMOOTH",
"42 423 OFFCURVE",
"-7 285 OFFCURVE",
"106 285 CURVE SMOOTH",
"208 285 OFFCURVE",
"260 421 OFFCURVE",
"284 474 CURVE SMOOTH",
"293 494 OFFCURVE",
"279 497 OFFCURVE",
"269 480 CURVE SMOOTH",
"256 453 OFFCURVE",
"228 399 OFFCURVE",
"196 352 CURVE SMOOTH",
"142 277 OFFCURVE",
"62 295 OFFCURVE",
"91 415 CURVE SMOOTH",
"98 441 OFFCURVE",
"107 465 OFFCURVE",
"113 481 CURVE",
"212 571 OFFCURVE",
"272 679 OFFCURVE",
"319 783 CURVE SMOOTH"
);
},
{
closed = 1;
nodes = (
"264 705 OFFCURVE",
"192 586 OFFCURVE",
"121 513 CURVE",
"151 594 OFFCURVE",
"230 775 OFFCURVE",
"280 843 CURVE SMOOTH",
"334 921 OFFCURVE",
"324 844 OFFCURVE",
"304 799 CURVE SMOOTH"
);
}
);
width = 213;
}
);
note = l;
unicode = 006C;
},
{
glyphname = m;
lastChange = "2021-04-19 01:04:02 +0000";
layers = (
{
hints = (
{
horizontal = 1;
place = "{-4, 24}";
type = Stem;
},
{
horizontal = 1;
place = "{-5, 21}";
target = up;
type = BottomGhost;
},
{
horizontal = 1;
place = "{0, 21}";
target = up;
type = BottomGhost;
}
);
layerId = "61E7180A-0B32-4047-B910-001D8BB62225";
paths = (
{
closed = 1;
nodes = (
"591 493 OFFCURVE",
"575 500 OFFCURVE",
"567 481 CURVE SMOOTH",
"545 436 OFFCURVE",
"481 308 OFFCURVE",
"429 308 CURVE SMOOTH",
"417 308 OFFCURVE",
"405 316 OFFCURVE",
"413 358 CURVE SMOOTH",
"426 429 OFFCURVE",
"533 618 OFFCURVE",
"533 618 CURVE",
"500 630 OFFCURVE",
"395 565 OFFCURVE",
"347 523 CURVE SMOOTH",
"316 496 OFFCURVE",
"284 457 OFFCURVE",
"264 433 CURVE",
"288 481 OFFCURVE",
"319 531 OFFCURVE",
"336 574 CURVE SMOOTH",
"346 594 OFFCURVE",
"340 610 OFFCURVE",
"322 618 CURVE SMOOTH",
"288 630 OFFCURVE",
"224 565 OFFCURVE",
"176 523 CURVE SMOOTH",
"143 496 OFFCURVE",
"111 457 OFFCURVE",
"91 433 CURVE",
"127 505 OFFCURVE",
"184 606 OFFCURVE",
"213 622 CURVE",
"200 618 OFFCURVE",
"184 624 OFFCURVE",
"172 626 CURVE SMOOTH",
"139 627 OFFCURVE",
"126 610 OFFCURVE",
"99 561 CURVE SMOOTH",
"51 472 OFFCURVE",
"11 378 OFFCURVE",
"-38 283 CURVE",
"-27 288 OFFCURVE",
"-19 288 OFFCURVE",
"-4 288 CURVE SMOOTH",
"19 288 OFFCURVE",
"27 289 OFFCURVE",
"35 304 CURVE SMOOTH",
"91 415 OFFCURVE",
"139 469 OFFCURVE",
"173 501 CURVE SMOOTH",
"279 599 OFFCURVE",
"247 525 OFFCURVE",
"213 457 CURVE SMOOTH",
"196 421 OFFCURVE",
"178 387 OFFCURVE",
"172 343 CURVE SMOOTH",
"166 314 OFFCURVE",
"180 288 OFFCURVE",
"204 288 CURVE",
"216 348 OFFCURVE",
"302 461 OFFCURVE",
"344 501 CURVE SMOOTH",
"422 574 OFFCURVE",
"441 545 OFFCURVE",
"417 507 CURVE SMOOTH",
"389 461 OFFCURVE",
"369 427 OFFCURVE",
"360 401 CURVE SMOOTH",
"331 308 OFFCURVE",
"379 284 OFFCURVE",
"415 284 CURVE SMOOTH",
"492 284 OFFCURVE",
"551 411 OFFCURVE",
"582 473 CURVE SMOOTH"
);
}
);
width = 509;
}
);
note = m;
unicode = 006D;
},
{
glyphname = n;
lastChange = "2021-04-19 01:04:02 +0000";
layers = (
{
hints = (
{
horizontal = 1;
place = "{-1, 21}";
target = up;
type = BottomGhost;
},
{
horizontal = 1;
place = "{-7, 21}";
target = up;
type = BottomGhost;
},
{
horizontal = 1;
place = "{-4, 24}";
type = Stem;
}
);
layerId = "61E7180A-0B32-4047-B910-001D8BB62225";
paths = (
{
closed = 1;
nodes = (
"418 493 OFFCURVE",
"402 500 OFFCURVE",
"394 481 CURVE SMOOTH",
"373 440 OFFCURVE",
"308 308 OFFCURVE",
"256 308 CURVE SMOOTH",
"244 308 OFFCURVE",
"232 316 OFFCURVE",
"240 358 CURVE SMOOTH",
"253 429 OFFCURVE",
"360 618 OFFCURVE",
"360 618 CURVE",
"327 630 OFFCURVE",
"224 565 OFFCURVE",
"176 523 CURVE SMOOTH",
"143 496 OFFCURVE",
"111 457 OFFCURVE",
"91 433 CURVE",
"127 505 OFFCURVE",
"184 606 OFFCURVE",
"213 622 CURVE",
"200 618 OFFCURVE",
"184 624 OFFCURVE",
"172 626 CURVE SMOOTH",
"139 627 OFFCURVE",
"126 610 OFFCURVE",
"99 561 CURVE SMOOTH",
"51 472 OFFCURVE",
"9 377 OFFCURVE",
"-39 280 CURVE",
"-29 287 OFFCURVE",
"-20 285 OFFCURVE",
"-5 287 CURVE SMOOTH",
"16 287 OFFCURVE",
"25 288 OFFCURVE",
"34 302 CURVE SMOOTH",
"90 413 OFFCURVE",
"139 469 OFFCURVE",
"173 501 CURVE SMOOTH",
"251 574 OFFCURVE",
"268 545 OFFCURVE",
"244 507 CURVE SMOOTH",
"216 461 OFFCURVE",
"197 427 OFFCURVE",
"189 401 CURVE SMOOTH",
"159 308 OFFCURVE",
"208 284 OFFCURVE",
"243 284 CURVE SMOOTH",
"320 284 OFFCURVE",
"378 411 OFFCURVE",
"409 473 CURVE SMOOTH"
);
}
);
width = 336;
}
);
note = n;
unicode = 006E;
},
{
glyphname = o;
lastChange = "2021-04-19 01:04:02 +0000";
layers = (
{
hints = (
{
horizontal = 1;
place = "{0, 25}";
type = Stem;
},
{
horizontal = 1;
place = "{0, 141}";
type = Stem;
}
);
layerId = "61E7180A-0B32-4047-B910-001D8BB62225";
paths = (
{
closed = 1;
nodes = (
"417 492 OFFCURVE",
"401 496 OFFCURVE",
"395 485 CURVE SMOOTH",
"371 437 OFFCURVE",
"319 312 OFFCURVE",
"255 312 CURVE SMOOTH",
"230 312 OFFCURVE",
"216 323 OFFCURVE",
"208 338 CURVE",
"245 374 OFFCURVE",
"276 421 OFFCURVE",
"292 457 CURVE SMOOTH",
"330 545 OFFCURVE",
"319 638 OFFCURVE",
"243 639 CURVE SMOOTH",
"174 642 OFFCURVE",
"91 563 OFFCURVE",
"51 470 CURVE SMOOTH",
"13 381 OFFCURVE",
"24 289 OFFCURVE",
"101 288 CURVE SMOOTH",
"130 287 OFFCURVE",
"159 300 OFFCURVE",
"188 322 CURVE",
"201 307 OFFCURVE",
"222 296 OFFCURVE",
"252 296 CURVE SMOOTH",
"336 296 OFFCURVE",
"393 438 OFFCURVE",
"410 477 CURVE SMOOTH"
);
},
{
closed = 1;
nodes = (
"300 595 OFFCURVE",
"295 524 OFFCURVE",
"256 441 CURVE SMOOTH",
"247 422 OFFCURVE",
"236 403 OFFCURVE",
"224 387 CURVE",
"225 391 OFFCURVE",
"226 394 OFFCURVE",
"226 398 CURVE SMOOTH",
"226 414 OFFCURVE",
"213 429 OFFCURVE",
"196 429 CURVE SMOOTH",
"172 429 OFFCURVE",
"162 409 OFFCURVE",
"161 385 CURVE SMOOTH",
"161 370 OFFCURVE",
"166 352 OFFCURVE",
"177 336 CURVE",
"153 316 OFFCURVE",
"127 306 OFFCURVE",
"109 311 CURVE SMOOTH",
"72 322 OFFCURVE",
"82 393 OFFCURVE",
"121 474 CURVE SMOOTH",
"158 553 OFFCURVE",
"220 618 OFFCURVE",
"264 606 CURVE SMOOTH"
);
}
);
width = 336;
}
);
note = o;
unicode = 006F;
},
{
glyphname = p;
lastChange = "2021-04-19 01:04:02 +0000";
layers = (
{
hints = (
{
horizontal = 1;
place = "{21, 12}";
type = Stem;
},
{
place = "{71, 15}";
type = Stem;
},
{
place = "{157, 153}";
type = Stem;
}
);
layerId = "61E7180A-0B32-4047-B910-001D8BB62225";
paths = (
{
closed = 1;
nodes = (
"240 658 OFFCURVE",
"159 520 OFFCURVE",
"129 470 CURVE",
"142 505 OFFCURVE",
"155 557 OFFCURVE",
"157 591 CURVE SMOOTH",
"159 641 OFFCURVE",
"150 635 OFFCURVE",
"121 632 CURVE SMOOTH",
"113 631 OFFCURVE",
"71 624 OFFCURVE",
"71 624 CURVE",
"95 619 OFFCURVE",
"84 543 OFFCURVE",
"66 498 CURVE SMOOTH",
"60 486 OFFCURVE",
"51 464 OFFCURVE",
"46 453 CURVE SMOOTH",
"39 440 OFFCURVE",
"58 445 OFFCURVE",
"68 462 CURVE",
"51 371 OFFCURVE",
"-121 44 OFFCURVE",
"-146 20 CURVE",
"-131 23 OFFCURVE",
"-117 16 OFFCURVE",
"-103 15 CURVE SMOOTH",
"-71 13 OFFCURVE",
"-56 24 OFFCURVE",
"-36 67 CURVE",
"59 306 LINE",
"131 264 OFFCURVE",
"220 297 OFFCURVE",
"275 364 CURVE SMOOTH",
"348 453 OFFCURVE",
"405 614 OFFCURVE",
"308 639 CURVE SMOOTH"
);
},
{
closed = 1;
nodes = (
"228 383 OFFCURVE",
"117 272 OFFCURVE",
"67 320 CURVE",
"115 409 OFFCURVE",
"163 497 OFFCURVE",
"202 549 CURVE SMOOTH",
"288 669 OFFCURVE",
"348 606 OFFCURVE",
"281 482 CURVE SMOOTH"
);
}
);
width = 338;
}
);
note = p;
unicode = 0070;
},
{
glyphname = q;
lastChange = "2021-04-19 01:04:02 +0000";
layers = (
{
hints = (
{
horizontal = 1;
place = "{-288, 21}";
target = up;
type = BottomGhost;
}
);
layerId = "61E7180A-0B32-4047-B910-001D8BB62225";
paths = (
{
closed = 1;
nodes = (
"354 540 OFFCURVE",
"338 545 OFFCURVE",
"326 545 CURVE SMOOTH",
"300 548 OFFCURVE",
"291 540 OFFCURVE",
"264 496 CURVE SMOOTH",
"239 453 OFFCURVE",
"150 297 OFFCURVE",
"96 320 CURVE SMOOTH",
"1 363 OFFCURVE",
"279 741 OFFCURVE",
"336 586 CURVE SMOOTH",
"347 555 OFFCURVE",
"382 586 OFFCURVE",
"346 614 CURVE SMOOTH",
"272 674 OFFCURVE",
"173 639 OFFCURVE",
"114 568 CURVE SMOOTH",
"39 480 OFFCURVE",
"-21 335 OFFCURVE",
"79 292 CURVE",
"122 279 OFFCURVE",
"162 311 OFFCURVE",
"190 344 CURVE SMOOTH",
"200 356 OFFCURVE",
"255 436 OFFCURVE",
"260 446 CURVE",
"218 352 OFFCURVE",
"190 312 OFFCURVE",
"109 125 CURVE SMOOTH",
"88 80 OFFCURVE",
"80 54 OFFCURVE",
"103 29 CURVE SMOOTH",
"111 20 OFFCURVE",
"125 11 OFFCURVE",
"131 -1 CURVE",
"141 62 OFFCURVE",
"291 423 OFFCURVE",
"369 541 CURVE"
);
}
);
width = 344;
}
);
note = q;
unicode = 0071;
},
{
glyphname = r;
lastChange = "2021-04-19 01:04:02 +0000";
layers = (
{
hints = (
{
horizontal = 1;
place = "{204, -20}";
target = down;
type = TopGhost;
},
{
horizontal = 1;
place = "{293, 28}";
type = Stem;
},
{
place = "{118, 59}";
type = Stem;
}
);
layerId = "61E7180A-0B32-4047-B910-001D8BB62225";
paths = (
{
closed = 1;
nodes = (
"342 492 OFFCURVE",
"328 498 OFFCURVE",
"320 481 CURVE SMOOTH",
"299 438 OFFCURVE",
"236 312 OFFCURVE",
"196 314 CURVE SMOOTH",
"135 316 OFFCURVE",
"237 501 OFFCURVE",
"252 532 CURVE SMOOTH",
"264 557 OFFCURVE",
"280 595 OFFCURVE",
"273 610 CURVE",
"224 604 OFFCURVE",
"172 603 OFFCURVE",
"135 606 CURVE",
"151 618 OFFCURVE",
"184 645 OFFCURVE",
"190 673 CURVE SMOOTH",
"204 740 OFFCURVE",
"139 765 OFFCURVE",
"129 709 CURVE SMOOTH",
"109 596 OFFCURVE",
"54 445 OFFCURVE",
"-27 340 CURVE SMOOTH",
"-32 331 OFFCURVE",
"-27 320 OFFCURVE",
"-19 327 CURVE SMOOTH",
"31 374 OFFCURVE",
"79 485 OFFCURVE",
"103 549 CURVE SMOOTH",
"115 582 LINE",
"172 580 OFFCURVE",
"208 567 OFFCURVE",
"193 533 CURVE SMOOTH",
"182 509 OFFCURVE",
"146 457 OFFCURVE",
"131 415 CURVE SMOOTH",
"91 311 OFFCURVE",
"151 280 OFFCURVE",
"186 288 CURVE SMOOTH",
"252 304 OFFCURVE",
"303 411 OFFCURVE",
"332 472 CURVE SMOOTH"
);
}
);
width = 261;
}
);
note = r;
unicode = 0072;
},
{
glyphname = s;
lastChange = "2021-04-19 01:04:02 +0000";
layers = (
{
hints = (
{
horizontal = 1;
place = "{-4, 142}";
type = Stem;
},
{
place = "{153, 62}";
type = Stem;
},
{
place = "{67, 87}";
type = Stem;
}
);
layerId = "61E7180A-0B32-4047-B910-001D8BB62225";
paths = (
{
closed = 1;
nodes = (
"336 488 OFFCURVE",
"320 493 OFFCURVE",
"316 484 CURVE SMOOTH",
"295 442 OFFCURVE",
"264 381 OFFCURVE",
"240 352 CURVE SMOOTH",
"216 322 OFFCURVE",
"184 300 OFFCURVE",
"150 306 CURVE SMOOTH",
"143 307 LINE",
"182 332 OFFCURVE",
"212 379 OFFCURVE",
"214 418 CURVE SMOOTH",
"216 462 OFFCURVE",
"194 498 OFFCURVE",
"178 537 CURVE SMOOTH",
"163 574 OFFCURVE",
"153 642 OFFCURVE",
"200 665 CURVE SMOOTH",
"209 670 OFFCURVE",
"221 667 OFFCURVE",
"232 663 CURVE SMOOTH",
"249 654 OFFCURVE",
"253 671 OFFCURVE",
"236 681 CURVE SMOOTH",
"225 686 OFFCURVE",
"213 687 OFFCURVE",
"198 686 CURVE SMOOTH",
"163 681 OFFCURVE",
"133 638 OFFCURVE",
"115 599 CURVE SMOOTH",
"88 541 OFFCURVE",
"55 477 OFFCURVE",
"28 425 CURVE",
"-20 423 OFFCURVE",
"-43 284 OFFCURVE",
"79 284 CURVE SMOOTH",
"91 284 OFFCURVE",
"106 288 OFFCURVE",
"119 293 CURVE",
"233 260 OFFCURVE",
"293 394 OFFCURVE",
"331 477 CURVE SMOOTH"
);
},
{
closed = 1;
nodes = (
"150 364 OFFCURVE",
"131 331 OFFCURVE",
"109 314 CURVE",
"86 324 OFFCURVE",
"64 352 OFFCURVE",
"67 391 CURVE SMOOTH",
"67 425 OFFCURVE",
"46 423 OFFCURVE",
"46 423 CURVE",
"70 468 OFFCURVE",
"113 555 OFFCURVE",
"139 610 CURVE",
"131 564 OFFCURVE",
"155 481 OFFCURVE",
"153 418 CURVE SMOOTH"
);
},
{
closed = 1;
nodes = (
"86 302 OFFCURVE",
"79 300 OFFCURVE",
"71 300 CURVE SMOOTH",
"32 300 OFFCURVE",
"19 348 OFFCURVE",
"51 381 CURVE",
"54 342 OFFCURVE",
"71 318 OFFCURVE",
"91 304 CURVE"
);
}
);
width = 257;
}
);
leftKerningGroup = s;
note = s;
unicode = 0073;
},
{
glyphname = t;
lastChange = "2021-04-19 01:04:02 +0000";
layers = (
{
hints = (
{
horizontal = 1;
place = "{360, 23}";
type = Stem;
}
);
layerId = "61E7180A-0B32-4047-B910-001D8BB62225";
paths = (
{
closed = 1;
nodes = (
"256 670 LINE",
"272 698 OFFCURVE",
"285 726 OFFCURVE",
"300 756 CURVE SMOOTH",
"374 917 OFFCURVE",
"265 934 OFFCURVE",
"196 812 CURVE SMOOTH",
"172 769 OFFCURVE",
"146 720 OFFCURVE",
"123 670 CURVE",
"63 670 LINE SMOOTH",
"51 670 OFFCURVE",
"50 647 OFFCURVE",
"60 647 CURVE SMOOTH",
"113 647 LINE",
"80 570 OFFCURVE",
"43 460 OFFCURVE",
"35 391 CURVE SMOOTH",
"19 280 OFFCURVE",
"119 264 OFFCURVE",
"173 316 CURVE SMOOTH",
"210 352 OFFCURVE",
"228 381 OFFCURVE",
"272 473 CURVE SMOOTH",
"281 493 OFFCURVE",
"267 497 OFFCURVE",
"259 478 CURVE SMOOTH",
"232 425 OFFCURVE",
"198 360 OFFCURVE",
"151 327 CURVE SMOOTH",
"119 303 OFFCURVE",
"72 312 OFFCURVE",
"87 379 CURVE",
"87 379 OFFCURVE",
"102 456 OFFCURVE",
"111 481 CURVE",
"170 536 OFFCURVE",
"210 590 OFFCURVE",
"244 647 CURVE",
"303 647 LINE SMOOTH",
"312 647 OFFCURVE",
"315 670 OFFCURVE",
"304 670 CURVE SMOOTH"
);
},
{
closed = 1;
nodes = (
"271 738 OFFCURVE",
"253 704 OFFCURVE",
"235 670 CURVE",
"184 670 LINE",
"209 726 OFFCURVE",
"232 783 OFFCURVE",
"256 816 CURVE SMOOTH",
"318 903 OFFCURVE",
"304 815 OFFCURVE",
"284 772 CURVE SMOOTH"
);
},
{
closed = 1;
nodes = (
"221 647 LINE",
"192 599 OFFCURVE",
"158 553 OFFCURVE",
"119 513 CURVE",
"134 549 OFFCURVE",
"153 598 OFFCURVE",
"174 647 CURVE"
);
}
);
width = 201;
}
);
note = t;
unicode = 0074;
},
{
glyphname = u;
lastChange = "2021-04-19 01:04:02 +0000";
layers = (
{
hints = (
{
horizontal = 1;
place = "{1, 25}";
type = Stem;
},
{
horizontal = 1;
place = "{346, -20}";
target = down;
type = TopGhost;
}
);
layerId = "61E7180A-0B32-4047-B910-001D8BB62225";
paths = (
{
closed = 1;
nodes = (
"441 493 OFFCURVE",
"425 500 OFFCURVE",
"417 481 CURVE SMOOTH",
"382 409 OFFCURVE",
"332 314 OFFCURVE",
"283 314 CURVE SMOOTH",
"268 315 OFFCURVE",
"255 331 OFFCURVE",
"264 374 CURVE SMOOTH",
"269 409 OFFCURVE",
"303 477 OFFCURVE",
"331 533 CURVE SMOOTH",
"360 596 OFFCURVE",
"371 610 OFFCURVE",
"401 634 CURVE",
"397 634 OFFCURVE",
"373 634 OFFCURVE",
"346 634 CURVE SMOOTH",
"327 634 OFFCURVE",
"315 628 OFFCURVE",
"307 612 CURVE SMOOTH",
"268 533 OFFCURVE",
"213 415 OFFCURVE",
"157 350 CURVE SMOOTH",
"91 275 OFFCURVE",
"50 315 OFFCURVE",
"98 419 CURVE SMOOTH",
"115 457 OFFCURVE",
"161 549 OFFCURVE",
"161 549 CURVE",
"188 604 OFFCURVE",
"202 616 OFFCURVE",
"225 634 CURVE",
"221 634 OFFCURVE",
"192 634 OFFCURVE",
"163 634 CURVE SMOOTH",
"145 634 OFFCURVE",
"133 628 OFFCURVE",
"125 612 CURVE SMOOTH",
"110 582 OFFCURVE",
"88 540 OFFCURVE",
"68 501 CURVE SMOOTH",
"63 489 OFFCURVE",
"56 477 OFFCURVE",
"51 466 CURVE SMOOTH",
"44 453 OFFCURVE",
"54 450 OFFCURVE",
"59 450 CURVE",
"42 414 OFFCURVE",
"16 377 OFFCURVE",
"25 334 CURVE SMOOTH",
"34 296 OFFCURVE",
"68 288 OFFCURVE",
"88 288 CURVE SMOOTH",
"138 288 OFFCURVE",
"190 356 OFFCURVE",
"224 417 CURVE",
"198 336 OFFCURVE",
"225 288 OFFCURVE",
"271 288 CURVE SMOOTH",
"344 288 OFFCURVE",
"398 405 OFFCURVE",
"430 473 CURVE SMOOTH"
);
}
);
width = 359;
}
);
note = u;
rightKerningGroup = u;
unicode = 0075;
},
{
glyphname = v;
lastChange = "2021-04-19 01:04:02 +0000";
layers = (
{
hints = (
{
horizontal = 1;
place = "{338, 29}";
type = Stem;
},
{
place = "{38, 54}";
type = Stem;
},
{
place = "{232, 94}";
type = Stem;
},
{
place = "{86, 70}";
type = Stem;
}
);
layerId = "61E7180A-0B32-4047-B910-001D8BB62225";
paths = (
{
closed = 1;
nodes = (
"340 670 OFFCURVE",
"264 670 OFFCURVE",
"236 580 CURVE SMOOTH",
"228 553 OFFCURVE",
"230 511 OFFCURVE",
"244 480 CURVE",
"204 381 OFFCURVE",
"150 296 OFFCURVE",
"102 316 CURVE SMOOTH",
"75 328 OFFCURVE",
"101 403 OFFCURVE",
"126 469 CURVE SMOOTH",
"139 503 OFFCURVE",
"154 557 OFFCURVE",
"155 591 CURVE SMOOTH",
"157 641 OFFCURVE",
"147 635 OFFCURVE",
"119 632 CURVE SMOOTH",
"111 631 OFFCURVE",
"70 624 OFFCURVE",
"70 624 CURVE",
"96 618 OFFCURVE",
"87 539 OFFCURVE",
"67 500 CURVE SMOOTH",
"60 488 OFFCURVE",
"55 477 OFFCURVE",
"48 465 CURVE SMOOTH",
"43 452 OFFCURVE",
"55 445 OFFCURVE",
"67 462 CURVE",
"39 385 OFFCURVE",
"13 295 OFFCURVE",
"74 283 CURVE SMOOTH",
"212 255 OFFCURVE",
"296 548 OFFCURVE",
"320 620 CURVE",
"320 622 OFFCURVE",
"320 624 OFFCURVE",
"322 626 CURVE"
);
}
);
width = 264;
}
);
note = v;
unicode = 0076;
},
{
glyphname = w;
lastChange = "2021-04-19 01:04:02 +0000";
layers = (
{
hints = (
{
horizontal = 1;
place = "{0, 21}";
target = up;
type = BottomGhost;
}
);
layerId = "61E7180A-0B32-4047-B910-001D8BB62225";
paths = (
{
closed = 1;
nodes = (
"521 670 OFFCURVE",
"449 670 OFFCURVE",
"422 582 CURVE SMOOTH",
"414 553 OFFCURVE",
"417 512 OFFCURVE",
"430 481 CURVE",
"393 385 OFFCURVE",
"340 302 OFFCURVE",
"283 306 CURVE SMOOTH",
"218 310 OFFCURVE",
"292 465 OFFCURVE",
"304 490 CURVE SMOOTH",
"330 545 OFFCURVE",
"338 561 OFFCURVE",
"359 596 CURVE SMOOTH",
"371 618 OFFCURVE",
"391 626 OFFCURVE",
"399 634 CURVE",
"397 634 OFFCURVE",
"364 634 OFFCURVE",
"338 634 CURVE SMOOTH",
"320 634 OFFCURVE",
"307 628 OFFCURVE",
"300 612 CURVE SMOOTH",
"276 564 OFFCURVE",
"198 389 OFFCURVE",
"137 330 CURVE SMOOTH",
"87 281 OFFCURVE",
"55 326 OFFCURVE",
"98 419 CURVE SMOOTH",
"115 457 OFFCURVE",
"161 549 OFFCURVE",
"161 549 CURVE",
"188 604 OFFCURVE",
"202 616 OFFCURVE",
"225 634 CURVE",
"221 634 OFFCURVE",
"190 634 OFFCURVE",
"163 634 CURVE SMOOTH",
"145 634 OFFCURVE",
"133 628 OFFCURVE",
"125 612 CURVE SMOOTH",
"110 582 OFFCURVE",
"88 541 OFFCURVE",
"68 501 CURVE SMOOTH",
"63 489 OFFCURVE",
"56 477 OFFCURVE",
"51 466 CURVE SMOOTH",
"44 453 OFFCURVE",
"54 450 OFFCURVE",
"59 450 CURVE",
"42 414 OFFCURVE",
"16 377 OFFCURVE",
"25 334 CURVE SMOOTH",
"31 304 OFFCURVE",
"59 288 OFFCURVE",
"87 288 CURVE SMOOTH",
"143 288 OFFCURVE",
"198 381 OFFCURVE",
"221 423 CURVE",
"208 381 OFFCURVE",
"202 300 OFFCURVE",
"256 288 CURVE SMOOTH",
"402 256 OFFCURVE",
"480 551 OFFCURVE",
"501 622 CURVE",
"501 623 OFFCURVE",
"501 626 OFFCURVE",
"503 626 CURVE"
);
}
);
width = 478;
}
);
note = w;
unicode = 0077;
},
{
glyphname = x;
lastChange = "2021-04-19 01:04:02 +0000";
layers = (
{
hints = (
{
horizontal = 1;
place = "{0, 21}";
target = up;
type = BottomGhost;
}
);
layerId = "61E7180A-0B32-4047-B910-001D8BB62225";
paths = (
{
closed = 1;
nodes = (
"414 489 OFFCURVE",
"402 500 OFFCURVE",
"393 481 CURVE SMOOTH",
"354 407 OFFCURVE",
"304 299 OFFCURVE",
"240 312 CURVE SMOOTH",
"216 318 OFFCURVE",
"204 364 OFFCURVE",
"213 422 CURVE",
"235 486 OFFCURVE",
"281 559 OFFCURVE",
"322 598 CURVE",
"324 587 OFFCURVE",
"334 580 OFFCURVE",
"347 580 CURVE SMOOTH",
"364 580 OFFCURVE",
"383 594 OFFCURVE",
"387 612 CURVE SMOOTH",
"393 639 OFFCURVE",
"369 647 OFFCURVE",
"347 642 CURVE SMOOTH",
"318 634 OFFCURVE",
"263 565 OFFCURVE",
"228 497 CURVE",
"239 553 OFFCURVE",
"241 618 OFFCURVE",
"188 624 CURVE SMOOTH",
"168 626 OFFCURVE",
"149 616 OFFCURVE",
"131 602 CURVE SMOOTH",
"105 578 OFFCURVE",
"63 493 OFFCURVE",
"44 453 CURVE SMOOTH",
"35 431 OFFCURVE",
"44 423 OFFCURVE",
"54 440 CURVE SMOOTH",
"66 461 OFFCURVE",
"103 535 OFFCURVE",
"115 555 CURVE SMOOTH",
"154 618 OFFCURVE",
"181 602 OFFCURVE",
"181 570 CURVE SMOOTH",
"182 545 OFFCURVE",
"177 521 OFFCURVE",
"172 493 CURVE",
"143 401 OFFCURVE",
"78 303 OFFCURVE",
"38 284 CURVE SMOOTH",
"15 273 OFFCURVE",
"-3 273 OFFCURVE",
"-15 284 CURVE SMOOTH",
"-23 293 OFFCURVE",
"-40 277 OFFCURVE",
"-31 268 CURVE SMOOTH",
"-11 248 OFFCURVE",
"20 252 OFFCURVE",
"44 264 CURVE SMOOTH",
"80 280 OFFCURVE",
"126 340 OFFCURVE",
"159 406 CURVE",
"159 401 OFFCURVE",
"159 393 OFFCURVE",
"159 386 CURVE SMOOTH",
"157 342 OFFCURVE",
"182 288 OFFCURVE",
"232 288 CURVE SMOOTH",
"328 288 OFFCURVE",
"374 409 OFFCURVE",
"407 476 CURVE SMOOTH"
);
}
);
width = 335;
}
);
note = x;
unicode = 0078;
},
{
glyphname = y;
lastChange = "2021-04-19 01:04:02 +0000";
layers = (
{
hints = (
{
horizontal = 1;
place = "{-318, 20}";
type = Stem;
},
{
horizontal = 1;
place = "{346, -20}";
target = down;
type = TopGhost;
}
);
layerId = "61E7180A-0B32-4047-B910-001D8BB62225";
paths = (
{
closed = 1;
nodes = (
"481 490 OFFCURVE",
"466 497 OFFCURVE",
"457 480 CURVE SMOOTH",
"448 461 OFFCURVE",
"425 414 OFFCURVE",
"394 369 CURVE SMOOTH",
"355 312 OFFCURVE",
"293 283 OFFCURVE",
"249 269 CURVE",
"279 348 OFFCURVE",
"304 433 OFFCURVE",
"330 500 CURVE SMOOTH",
"355 567 OFFCURVE",
"370 607 OFFCURVE",
"409 634 CURVE",
"354 634 OFFCURVE",
"409 634 OFFCURVE",
"354 634 CURVE SMOOTH",
"335 634 OFFCURVE",
"323 628 OFFCURVE",
"315 612 CURVE SMOOTH",
"276 533 OFFCURVE",
"213 415 OFFCURVE",
"157 350 CURVE SMOOTH",
"91 275 OFFCURVE",
"50 315 OFFCURVE",
"98 419 CURVE SMOOTH",
"126 480 OFFCURVE",
"154 539 OFFCURVE",
"188 598 CURVE SMOOTH",
"200 618 OFFCURVE",
"216 626 OFFCURVE",
"225 634 CURVE",
"221 634 OFFCURVE",
"192 634 OFFCURVE",
"163 634 CURVE SMOOTH",
"145 634 OFFCURVE",
"133 628 OFFCURVE",
"125 612 CURVE SMOOTH",
"110 582 OFFCURVE",
"88 540 OFFCURVE",
"68 501 CURVE SMOOTH",
"63 489 OFFCURVE",
"56 477 OFFCURVE",
"51 466 CURVE SMOOTH",
"44 453 OFFCURVE",
"54 450 OFFCURVE",
"59 450 CURVE",
"42 414 OFFCURVE",
"16 377 OFFCURVE",
"25 334 CURVE SMOOTH",
"34 296 OFFCURVE",
"68 288 OFFCURVE",
"88 288 CURVE SMOOTH",
"166 288 OFFCURVE",
"232 413 OFFCURVE",
"265 473 CURVE",
"249 421 OFFCURVE",
"217 314 OFFCURVE",
"180 248 CURVE",
"98 224 OFFCURVE",
"3 208 OFFCURVE",
"-66 176 CURVE SMOOTH",
"-105 157 OFFCURVE",
"-141 130 OFFCURVE",
"-159 92 CURVE SMOOTH",
"-190 36 OFFCURVE",
"-180 -31 OFFCURVE",
"-79 -31 CURVE SMOOTH",
"70 -31 OFFCURVE",
"169 123 OFFCURVE",
"232 237 CURVE",
"377 289 OFFCURVE",
"403 332 OFFCURVE",
"472 470 CURVE SMOOTH"
);
},
{
closed = 1;
nodes = (
"153 202 OFFCURVE",
"146 189 OFFCURVE",
"139 178 CURVE SMOOTH",
"92 115 OFFCURVE",
"-15 -11 OFFCURVE",
"-103 -11 CURVE SMOOTH",
"-189 -11 OFFCURVE",
"-151 109 OFFCURVE",
"-48 153 CURVE SMOOTH",
"9 178 OFFCURVE",
"95 198 OFFCURVE",
"161 216 CURVE"
);
}
);
width = 401;
}
);
note = y;
unicode = 0079;
},
{
glyphname = z;
lastChange = "2021-04-19 01:04:02 +0000";
layers = (
{
hints = (
{
horizontal = 1;
place = "{204, -20}";
target = down;
type = TopGhost;
},
{
horizontal = 1;
place = "{303, 51}";
type = Stem;
},
{
place = "{-194, 35}";
type = Stem;
},
{
place = "{196, 60}";
type = Stem;
},
{
place = "{232, 55}";
type = Stem;
}
);
layerId = "61E7180A-0B32-4047-B910-001D8BB62225";
paths = (
{
closed = 1;
nodes = (
"425 493 OFFCURVE",
"409 498 OFFCURVE",
"401 481 CURVE SMOOTH",
"360 398 OFFCURVE",
"312 314 OFFCURVE",
"245 300 CURVE",
"251 316 OFFCURVE",
"256 360 OFFCURVE",
"256 374 CURVE SMOOTH",
"256 411 OFFCURVE",
"237 441 OFFCURVE",
"188 440 CURVE",
"251 477 OFFCURVE",
"284 533 OFFCURVE",
"285 578 CURVE SMOOTH",
"289 659 OFFCURVE",
"159 670 OFFCURVE",
"99 559 CURVE SMOOTH",
"76 519 OFFCURVE",
"58 480 OFFCURVE",
"39 445 CURVE SMOOTH",
"28 421 OFFCURVE",
"43 417 OFFCURVE",
"51 433 CURVE SMOOTH",
"67 465 OFFCURVE",
"92 513 OFFCURVE",
"105 533 CURVE SMOOTH",
"166 639 OFFCURVE",
"267 578 OFFCURVE",
"220 505 CURVE SMOOTH",
"206 485 OFFCURVE",
"173 437 OFFCURVE",
"107 417 CURVE SMOOTH",
"91 411 OFFCURVE",
"99 391 OFFCURVE",
"115 397 CURVE SMOOTH",
"131 403 OFFCURVE",
"146 409 OFFCURVE",
"159 417 CURVE",
"217 426 OFFCURVE",
"193 324 OFFCURVE",
"178 276 CURVE",
"51 236 OFFCURVE",
"-121 196 OFFCURVE",
"-176 114 CURVE SMOOTH",
"-228 31 OFFCURVE",
"-163 -47 OFFCURVE",
"-60 -17 CURVE SMOOTH",
"84 25 OFFCURVE",
"188 135 OFFCURVE",
"240 276 CURVE",
"324 292 OFFCURVE",
"369 379 OFFCURVE",
"414 473 CURVE SMOOTH"
);
},
{
closed = 1;
nodes = (
"115 109 OFFCURVE",
"-13 17 OFFCURVE",
"-91 0 CURVE SMOOTH",
"-197 -23 OFFCURVE",
"-169 113 OFFCURVE",
"-80 163 CURVE SMOOTH",
"-23 200 OFFCURVE",
"79 224 OFFCURVE",
"169 252 CURVE"
);
}
);
width = 343;
}
);
note = z;
unicode = 007A;
},
{
glyphname = z.alt;
lastChange = "2021-04-19 01:04:02 +0000";
layers = (
{
hints = (
{
horizontal = 1;
place = "{-12, 21}";
target = up;
type = BottomGhost;
},
{
horizontal = 1;
place = "{283, 34}";
type = Stem;
},
{
horizontal = 1;
place = "{283, 63}";
type = Stem;
}
);
layerId = "61E7180A-0B32-4047-B910-001D8BB62225";
paths = (
{
closed = 1;
nodes = (
"320 279 OFFCURVE",
"381 389 OFFCURVE",
"426 498 CURVE SMOOTH",
"434 517 OFFCURVE",
"417 516 OFFCURVE",
"413 507 CURVE SMOOTH",
"389 458 OFFCURVE",
"340 344 OFFCURVE",
"280 328 CURVE SMOOTH",
"249 320 OFFCURVE",
"190 336 OFFCURVE",
"158 346 CURVE",
"220 402 OFFCURVE",
"281 539 OFFCURVE",
"350 576 CURVE SMOOTH",
"359 582 OFFCURVE",
"374 583 OFFCURVE",
"375 602 CURVE SMOOTH",
"375 614 OFFCURVE",
"367 623 OFFCURVE",
"358 623 CURVE SMOOTH",
"348 623 OFFCURVE",
"339 603 OFFCURVE",
"314 603 CURVE SMOOTH",
"284 603 OFFCURVE",
"255 632 OFFCURVE",
"221 632 CURVE SMOOTH",
"180 632 OFFCURVE",
"134 622 OFFCURVE",
"84 533 CURVE SMOOTH",
"75 516 OFFCURVE",
"32 429 OFFCURVE",
"25 417 CURVE SMOOTH",
"15 397 OFFCURVE",
"31 397 OFFCURVE",
"39 409 CURVE SMOOTH",
"110 551 OFFCURVE",
"134 570 OFFCURVE",
"197 570 CURVE SMOOTH",
"224 570 OFFCURVE",
"257 561 OFFCURVE",
"281 556 CURVE",
"228 501 OFFCURVE",
"159 373 OFFCURVE",
"110 348 CURVE",
"96 340 OFFCURVE",
"32 320 OFFCURVE",
"25 308 CURVE SMOOTH",
"19 296 OFFCURVE",
"15 276 OFFCURVE",
"38 276 CURVE SMOOTH",
"60 276 OFFCURVE",
"79 291 OFFCURVE",
"99 296 CURVE SMOOTH",
"126 302 OFFCURVE",
"184 284 OFFCURVE",
"244 281 CURVE SMOOTH"
);
}
);
width = 343;
}
);
note = z.alt;
unicode = E001;
},
{
glyphname = z.stroke;
lastChange = "2021-04-19 01:04:02 +0000";
layers = (
{
hints = (
{
horizontal = 1;
place = "{157, 19}";
type = Stem;
},
{
place = "{126, 189}";
type = Stem;
}
);
layerId = "61E7180A-0B32-4047-B910-001D8BB62225";
paths = (
{
closed = 1;
nodes = (
"322 445 OFFCURVE",
"316 464 OFFCURVE",
"300 464 CURVE SMOOTH",
"280 464 OFFCURVE",
"264 465 OFFCURVE",
"248 465 CURVE",
"281 513 OFFCURVE",
"316 557 OFFCURVE",
"350 576 CURVE SMOOTH",
"359 582 OFFCURVE",
"374 583 OFFCURVE",
"375 602 CURVE SMOOTH",
"375 614 OFFCURVE",
"367 623 OFFCURVE",
"358 623 CURVE SMOOTH",
"348 623 OFFCURVE",
"339 603 OFFCURVE",
"314 603 CURVE SMOOTH",
"284 603 OFFCURVE",
"255 632 OFFCURVE",
"221 632 CURVE SMOOTH",
"180 632 OFFCURVE",
"134 622 OFFCURVE",
"84 533 CURVE SMOOTH",
"75 516 OFFCURVE",
"32 429 OFFCURVE",
"25 417 CURVE SMOOTH",
"15 397 OFFCURVE",
"31 397 OFFCURVE",
"39 409 CURVE SMOOTH",
"110 551 OFFCURVE",
"134 570 OFFCURVE",
"197 570 CURVE SMOOTH",
"224 570 OFFCURVE",
"257 561 OFFCURVE",
"281 556 CURVE",
"260 533 OFFCURVE",
"241 504 OFFCURVE",
"214 465 CURVE",
"180 466 OFFCURVE",
"155 466 OFFCURVE",
"138 466 CURVE SMOOTH",
"117 466 OFFCURVE",
"127 430 OFFCURVE",
"138 433 CURVE",
"196 438 LINE",
"163 397 OFFCURVE",
"134 359 OFFCURVE",
"110 348 CURVE",
"96 340 OFFCURVE",
"32 320 OFFCURVE",
"25 308 CURVE SMOOTH",
"19 296 OFFCURVE",
"15 276 OFFCURVE",
"38 276 CURVE SMOOTH",
"60 276 OFFCURVE",
"79 291 OFFCURVE",
"99 296 CURVE SMOOTH",
"126 302 OFFCURVE",
"184 284 OFFCURVE",
"244 281 CURVE SMOOTH",
"320 279 OFFCURVE",
"381 389 OFFCURVE",
"426 498 CURVE SMOOTH",
"434 517 OFFCURVE",
"417 516 OFFCURVE",
"413 507 CURVE SMOOTH",
"389 458 OFFCURVE",
"340 344 OFFCURVE",
"280 328 CURVE SMOOTH",
"249 320 OFFCURVE",
"190 336 OFFCURVE",
"158 346 CURVE",
"184 370 OFFCURVE",
"204 401 OFFCURVE",
"232 441 CURVE",
"255 444 OFFCURVE",
"277 445 OFFCURVE",
"303 445 CURVE SMOOTH"
);
}
);
width = 343;
}
);
note = z.stroke;
unicode = E002;
},
{
glyphname = braceleft;
lastChange = "2021-04-19 01:04:02 +0000";
layers = (
{
hints = (
{
horizontal = 1;
place = "{-131, 23}";
type = Stem;
},
{
horizontal = 1;
place = "{292, 27}";
type = Stem;
},
{
place = "{129, 51}";
type = Stem;
}
);
layerId = "61E7180A-0B32-4047-B910-001D8BB62225";
paths = (
{
closed = 1;
nodes = (
"419 1017 LINE SMOOTH",
"352 1017 OFFCURVE",
"304 1005 OFFCURVE",
"272 982 CURVE SMOOTH",
"212 935 OFFCURVE",
"198 811 OFFCURVE",
"184 744 CURVE SMOOTH",
"174 694 OFFCURVE",
"159 659 OFFCURVE",
"137 642 CURVE SMOOTH",
"115 624 OFFCURVE",
"78 614 OFFCURVE",
"21 607 CURVE",
"21 607 OFFCURVE",
"-3 580 OFFCURVE",
"15 580 CURVE SMOOTH",
"44 580 OFFCURVE",
"66 578 OFFCURVE",
"80 571 CURVE SMOOTH",
"95 565 OFFCURVE",
"107 556 OFFCURVE",
"115 545 CURVE SMOOTH",
"131 527 OFFCURVE",
"133 493 OFFCURVE",
"123 444 CURVE SMOOTH",
"114 397 OFFCURVE",
"62 240 OFFCURVE",
"106 192 CURVE SMOOTH",
"127 168 OFFCURVE",
"172 155 OFFCURVE",
"237 155 CURVE SMOOTH",
"243 155 LINE SMOOTH",
"252 155 OFFCURVE",
"257 180 OFFCURVE",
"245 178 CURVE SMOOTH",
"200 178 OFFCURVE",
"170 186 OFFCURVE",
"155 204 CURVE SMOOTH",
"139 221 OFFCURVE",
"138 256 OFFCURVE",
"147 306 CURVE SMOOTH",
"158 355 OFFCURVE",
"198 489 OFFCURVE",
"172 539 CURVE SMOOTH",
"155 565 OFFCURVE",
"122 583 OFFCURVE",
"67 594 CURVE",
"130 604 OFFCURVE",
"176 626 OFFCURVE",
"201 658 CURVE SMOOTH",
"267 737 OFFCURVE",
"249 910 OFFCURVE",
"315 967 CURVE SMOOTH",
"335 985 OFFCURVE",
"370 994 OFFCURVE",
"418 994 CURVE SMOOTH",
"426 994 OFFCURVE",
"446 1017 OFFCURVE",
"423 1017 CURVE SMOOTH"
);
}
);
width = 371;
}
);
note = braceleft;
unicode = 007B;
},
{
glyphname = bar;
lastChange = "2021-04-19 01:04:02 +0000";
layers = (
{
hints = (
{
place = "{222, 43}";
type = Stem;
}
);
layerId = "61E7180A-0B32-4047-B910-001D8BB62225";
paths = (
{
closed = 1;
nodes = (
"265 55 LINE",
"265 1040 LINE",
"222 1040 LINE",
"222 55 LINE"
);
}
);
width = 488;
}
);
note = bar;
unicode = 007C;
},
{
glyphname = braceright;
lastChange = "2021-04-19 01:04:02 +0000";
layers = (
{
hints = (
{
horizontal = 1;
place = "{279, 27}";
type = Stem;
},
{
horizontal = 1;
place = "{702, 23}";
type = Stem;
},
{
place = "{322, 51}";
type = Stem;
},
{
place = "{381, 56}";
type = Stem;
}
);
layerId = "61E7180A-0B32-4047-B910-001D8BB62225";
paths = (
{
closed = 1;
nodes = (
"429 598 OFFCURVE",
"397 610 OFFCURVE",
"383 626 CURVE SMOOTH",
"335 690 OFFCURVE",
"480 905 OFFCURVE",
"422 978 CURVE SMOOTH",
"405 1002 OFFCURVE",
"360 1013 OFFCURVE",
"292 1013 CURVE SMOOTH",
"288 1013 LINE",
"288 1013 OFFCURVE",
"261 990 OFFCURVE",
"281 990 CURVE SMOOTH",
"330 990 OFFCURVE",
"360 981 OFFCURVE",
"373 963 CURVE SMOOTH",
"385 945 OFFCURVE",
"382 911 OFFCURVE",
"367 863 CURVE SMOOTH",
"352 815 OFFCURVE",
"304 685 OFFCURVE",
"328 634 CURVE SMOOTH",
"343 606 OFFCURVE",
"374 588 OFFCURVE",
"425 579 CURVE",
"367 568 OFFCURVE",
"324 549 OFFCURVE",
"295 524 CURVE SMOOTH",
"209 445 OFFCURVE",
"214 264 OFFCURVE",
"141 205 CURVE SMOOTH",
"119 188 OFFCURVE",
"83 178 OFFCURVE",
"35 178 CURVE SMOOTH",
"21 178 OFFCURVE",
"15 157 OFFCURVE",
"27 155 CURVE SMOOTH",
"31 155 LINE SMOOTH",
"96 155 OFFCURVE",
"146 168 OFFCURVE",
"180 190 CURVE SMOOTH",
"285 264 OFFCURVE",
"265 466 OFFCURVE",
"351 531 CURVE SMOOTH",
"382 555 OFFCURVE",
"422 565 OFFCURVE",
"470 565 CURVE",
"470 565 OFFCURVE",
"497 592 OFFCURVE",
"480 594 CURVE SMOOTH"
);
}
);
width = 488;
}
);
note = braceright;
unicode = 007D;
},
{
glyphname = asciitilde;
lastChange = "2021-04-19 01:04:02 +0000";
layers = (
{
hints = (
{
horizontal = 1;
place = "{456, 44}";
type = Stem;
}
);
layerId = "61E7180A-0B32-4047-B910-001D8BB62225";
paths = (
{
closed = 1;
nodes = (
"457 788 OFFCURVE",
"437 791 OFFCURVE",
"434 787 CURVE SMOOTH",
"423 762 OFFCURVE",
"406 748 OFFCURVE",
"379 750 CURVE SMOOTH",
"339 754 OFFCURVE",
"300 784 OFFCURVE",
"257 787 CURVE SMOOTH",
"212 791 OFFCURVE",
"178 746 OFFCURVE",
"159 712 CURVE",
"157 706 OFFCURVE",
"180 704 OFFCURVE",
"182 710 CURVE",
"192 729 OFFCURVE",
"210 745 OFFCURVE",
"235 742 CURVE SMOOTH",
"276 740 OFFCURVE",
"314 708 OFFCURVE",
"356 704 CURVE SMOOTH",
"403 699 OFFCURVE",
"437 746 OFFCURVE",
"456 784 CURVE SMOOTH"
);
}
);
width = 488;
}
);
note = asciitilde;
unicode = 007E;
},
{
glyphname = Adieresis;
lastChange = "2021-04-19 01:04:02 +0000";
layers = (
{
hints = (
{
horizontal = 1;
place = "{807, 67}";
type = Stem;
},
{
place = "{643, 67}";
type = Stem;
},
{
place = "{773, 67}";
type = Stem;
}
);
layerId = "61E7180A-0B32-4047-B910-001D8BB62225";
paths = (
{
closed = 1;
nodes = (
"864 1012 OFFCURVE",
"799 1064 OFFCURVE",
"691 1064 CURVE SMOOTH",
"496 1064 OFFCURVE",
"328 943 OFFCURVE",
"201 803 CURVE",
"165 819 OFFCURVE",
"135 840 OFFCURVE",
"113 866 CURVE SMOOTH",
"90 891 OFFCURVE",
"79 915 OFFCURVE",
"91 945 CURVE SMOOTH",
"103 969 OFFCURVE",
"86 980 OFFCURVE",
"74 963 CURVE",
"51 947 OFFCURVE",
"55 883 OFFCURVE",
"83 851 CURVE SMOOTH",
"107 823 OFFCURVE",
"143 800 OFFCURVE",
"184 781 CURVE",
"149 742 OFFCURVE",
"119 698 OFFCURVE",
"95 654 CURVE SMOOTH",
"-7 472 OFFCURVE",
"-7 293 OFFCURVE",
"91 252 CURVE SMOOTH",
"233 192 OFFCURVE",
"421 383 OFFCURVE",
"504 481 CURVE",
"458 421 OFFCURVE",
"433 224 OFFCURVE",
"545 224 CURVE SMOOTH",
"602 224 OFFCURVE",
"658 264 OFFCURVE",
"693 310 CURVE SMOOTH",
"730 359 OFFCURVE",
"768 430 OFFCURVE",
"787 470 CURVE SMOOTH",
"797 494 OFFCURVE",
"779 493 OFFCURVE",
"769 474 CURVE SMOOTH",
"746 425 OFFCURVE",
"713 373 OFFCURVE",
"682 332 CURVE SMOOTH",
"602 233 OFFCURVE",
"503 208 OFFCURVE",
"533 378 CURVE SMOOTH",
"552 477 OFFCURVE",
"610 584 OFFCURVE",
"666 647 CURVE SMOOTH",
"724 710 OFFCURVE",
"670 792 OFFCURVE",
"608 675 CURVE SMOOTH",
"555 578 OFFCURVE",
"449 446 OFFCURVE",
"344 359 CURVE SMOOTH",
"159 205 OFFCURVE",
"0 251 OFFCURVE",
"103 507 CURVE SMOOTH",
"139 596 OFFCURVE",
"212 709 OFFCURVE",
"248 760 CURVE",
"343 730 OFFCURVE",
"438 726 OFFCURVE",
"552 737 CURVE SMOOTH",
"787 758 OFFCURVE",
"864 863 OFFCURVE",
"864 937 CURVE SMOOTH"
);
},
{
closed = 1;
nodes = (
"823 850 OFFCURVE",
"718 775 OFFCURVE",
"552 761 CURVE SMOOTH",
"425 750 OFFCURVE",
"343 754 OFFCURVE",
"264 780 CURVE",
"377 915 OFFCURVE",
"507 1039 OFFCURVE",
"694 1039 CURVE SMOOTH",
"768 1039 OFFCURVE",
"823 1008 OFFCURVE",
"823 949 CURVE SMOOTH"
);
},
{
closed = 1;
nodes = (
"839 1148 OFFCURVE",
"824 1160 OFFCURVE",
"805 1160 CURVE SMOOTH",
"787 1160 OFFCURVE",
"773 1147 OFFCURVE",
"773 1128 CURVE SMOOTH",
"773 1108 OFFCURVE",
"788 1095 OFFCURVE",
"807 1095 CURVE SMOOTH",
"827 1095 OFFCURVE",
"839 1108 OFFCURVE",
"839 1128 CURVE SMOOTH"
);
},
{
closed = 1;
nodes = (
"710 1148 OFFCURVE",
"694 1160 OFFCURVE",
"675 1160 CURVE SMOOTH",
"657 1160 OFFCURVE",
"643 1147 OFFCURVE",
"643 1128 CURVE SMOOTH",
"643 1108 OFFCURVE",
"658 1095 OFFCURVE",
"678 1095 CURVE SMOOTH",
"697 1095 OFFCURVE",
"710 1108 OFFCURVE",
"710 1128 CURVE SMOOTH"
);
}
);
width = 716;
}
);
note = Adieresis;
unicode = 00C4;
},
{
glyphname = Aring;
lastChange = "2021-04-19 01:04:02 +0000";
layers = (
{
hints = (
{
horizontal = 1;
place = "{750, 15}";
type = Stem;
},
{
horizontal = 1;
place = "{862, 19}";
type = Stem;
},
{
place = "{710, 17}";
type = Stem;
},
{
place = "{819, 19}";
type = Stem;
},
{
horizontal = 1;
place = "{706, 17}";
type = Stem;
},
{
horizontal = 1;
place = "{817, 19}";
type = Stem;
},
{
place = "{724, 17}";
type = Stem;
},
{
place = "{833, 19}";
type = Stem;
}
);
layerId = "61E7180A-0B32-4047-B910-001D8BB62225";
paths = (
{
closed = 1;
nodes = (
"864 1012 OFFCURVE",
"799 1064 OFFCURVE",
"691 1064 CURVE SMOOTH",
"496 1064 OFFCURVE",
"328 943 OFFCURVE",
"201 803 CURVE",
"165 819 OFFCURVE",
"135 840 OFFCURVE",
"113 866 CURVE SMOOTH",
"90 891 OFFCURVE",
"79 915 OFFCURVE",
"91 945 CURVE SMOOTH",
"103 969 OFFCURVE",
"86 980 OFFCURVE",
"74 963 CURVE",
"51 947 OFFCURVE",
"55 883 OFFCURVE",
"83 851 CURVE SMOOTH",
"107 823 OFFCURVE",
"143 800 OFFCURVE",
"184 781 CURVE",
"149 742 OFFCURVE",
"119 698 OFFCURVE",
"95 654 CURVE SMOOTH",
"-7 472 OFFCURVE",
"-7 293 OFFCURVE",
"91 252 CURVE SMOOTH",
"233 192 OFFCURVE",
"421 383 OFFCURVE",
"504 481 CURVE",
"482 437 OFFCURVE",
"462 373 OFFCURVE",
"469 319 CURVE SMOOTH",
"485 159 OFFCURVE",
"635 241 OFFCURVE",
"694 322 CURVE SMOOTH",
"732 371 OFFCURVE",
"769 434 OFFCURVE",
"784 474 CURVE SMOOTH",
"793 500 OFFCURVE",
"777 493 OFFCURVE",
"768 474 CURVE SMOOTH",
"746 425 OFFCURVE",
"713 373 OFFCURVE",
"682 332 CURVE SMOOTH",
"602 233 OFFCURVE",
"503 208 OFFCURVE",
"533 378 CURVE SMOOTH",
"552 477 OFFCURVE",
"610 584 OFFCURVE",
"666 647 CURVE SMOOTH",
"724 710 OFFCURVE",
"670 792 OFFCURVE",
"608 675 CURVE SMOOTH",
"555 578 OFFCURVE",
"449 446 OFFCURVE",
"344 359 CURVE SMOOTH",
"159 205 OFFCURVE",
"0 251 OFFCURVE",
"103 507 CURVE SMOOTH",
"139 596 OFFCURVE",
"212 709 OFFCURVE",
"248 760 CURVE",
"343 730 OFFCURVE",
"438 726 OFFCURVE",
"552 737 CURVE SMOOTH",
"787 758 OFFCURVE",
"864 863 OFFCURVE",
"864 937 CURVE SMOOTH"
);
},
{
closed = 1;
nodes = (
"823 850 OFFCURVE",
"718 775 OFFCURVE",
"552 761 CURVE SMOOTH",
"425 750 OFFCURVE",
"343 754 OFFCURVE",
"264 780 CURVE",
"377 915 OFFCURVE",
"507 1039 OFFCURVE",
"694 1039 CURVE SMOOTH",
"768 1039 OFFCURVE",
"823 1008 OFFCURVE",
"823 949 CURVE SMOOTH"
);
},
{
closed = 1;
nodes = (
"760 1173 OFFCURVE",
"775 1189 OFFCURVE",
"792 1190 CURVE SMOOTH",
"809 1191 OFFCURVE",
"823 1175 OFFCURVE",
"820 1154 CURVE SMOOTH",
"819 1132 OFFCURVE",
"804 1115 OFFCURVE",
"787 1115 CURVE SMOOTH",
"769 1115 OFFCURVE",
"757 1131 OFFCURVE",
"758 1152 CURVE SMOOTH"
);
},
{
closed = 1;
nodes = (
"718 1120 OFFCURVE",
"746 1096 OFFCURVE",
"783 1097 CURVE SMOOTH",
"820 1099 OFFCURVE",
"852 1124 OFFCURVE",
"856 1154 CURVE SMOOTH",
"859 1183 OFFCURVE",
"833 1207 OFFCURVE",
"796 1206 CURVE SMOOTH",
"760 1205 OFFCURVE",
"726 1181 OFFCURVE",
"722 1150 CURVE SMOOTH"
);
}
);
width = 716;
}
);
note = Aring;
unicode = 00C5;
},
{
glyphname = Ccedilla;
lastChange = "2021-04-19 01:04:02 +0000";
layers = (
{
hints = (
{
horizontal = 1;
place = "{-304, 17}";
type = Stem;
},
{
horizontal = 1;
place = "{-151, 19}";
type = Stem;
},
{
place = "{454, 38}";
type = Stem;
}
);
layerId = "61E7180A-0B32-4047-B910-001D8BB62225";
paths = (
{
closed = 1;
nodes = (
"795 492 OFFCURVE",
"780 498 OFFCURVE",
"772 481 CURVE SMOOTH",
"730 395 OFFCURVE",
"694 330 OFFCURVE",
"607 279 CURVE SMOOTH",
"508 220 OFFCURVE",
"378 204 OFFCURVE",
"271 236 CURVE SMOOTH",
"9 316 OFFCURVE",
"174 724 OFFCURVE",
"210 771 CURVE",
"263 662 OFFCURVE",
"355 615 OFFCURVE",
"460 600 CURVE SMOOTH",
"874 540 OFFCURVE",
"1016 1024 OFFCURVE",
"624 1068 CURVE SMOOTH",
"465 1085 OFFCURVE",
"315 1024 OFFCURVE",
"206 883 CURVE",
"196 938 OFFCURVE",
"188 1012 OFFCURVE",
"198 1075 CURVE SMOOTH",
"204 1103 OFFCURVE",
"182 1096 OFFCURVE",
"178 1080 CURVE SMOOTH",
"158 1005 OFFCURVE",
"166 911 OFFCURVE",
"182 850 CURVE",
"43 674 OFFCURVE",
"-21 324 OFFCURVE",
"232 217 CURVE SMOOTH",
"377 155 OFFCURVE",
"520 192 OFFCURVE",
"622 263 CURVE SMOOTH",
"708 323 OFFCURVE",
"741 383 OFFCURVE",
"784 472 CURVE SMOOTH"
);
},
{
closed = 1;
nodes = (
"927 988 OFFCURVE",
"838 584 OFFCURVE",
"474 624 CURVE SMOOTH",
"364 637 OFFCURVE",
"276 687 OFFCURVE",
"230 803 CURVE",
"330 955 OFFCURVE",
"484 1052 OFFCURVE",
"634 1029 CURVE SMOOTH"
);
},
{
closed = 1;
nodes = (
"493 135 OFFCURVE",
"418 154 OFFCURVE",
"373 154 CURVE SMOOTH",
"360 154 OFFCURVE",
"347 153 OFFCURVE",
"334 151 CURVE",
"332 157 OFFCURVE",
"373 181 OFFCURVE",
"378 186 CURVE",
"377 189 OFFCURVE",
"374 194 OFFCURVE",
"370 194 CURVE SMOOTH",
"366 194 OFFCURVE",
"300 143 OFFCURVE",
"292 135 CURVE SMOOTH",
"289 133 OFFCURVE",
"288 131 OFFCURVE",
"288 127 CURVE SMOOTH",
"288 118 OFFCURVE",
"299 111 OFFCURVE",
"308 111 CURVE SMOOTH",
"318 111 OFFCURVE",
"342 135 OFFCURVE",
"381 135 CURVE SMOOTH",
"414 135 OFFCURVE",
"456 118 OFFCURVE",
"456 79 CURVE SMOOTH",
"456 64 OFFCURVE",
"449 50 OFFCURVE",
"441 38 CURVE SMOOTH",
"423 9 OFFCURVE",
"377 1 OFFCURVE",
"344 1 CURVE SMOOTH",
"320 1 OFFCURVE",
"276 7 OFFCURVE",
"259 27 CURVE SMOOTH",
"255 31 OFFCURVE",
"249 38 OFFCURVE",
"244 38 CURVE SMOOTH",
"240 38 OFFCURVE",
"237 35 OFFCURVE",
"237 31 CURVE SMOOTH",
"237 -5 OFFCURVE",
"339 -16 OFFCURVE",
"364 -16 CURVE SMOOTH",
"389 -16 OFFCURVE",
"419 -13 OFFCURVE",
"441 1 CURVE SMOOTH",
"465 19 OFFCURVE",
"493 46 OFFCURVE",
"493 78 CURVE SMOOTH"
);
}
);
width = 714;
}
);
note = Ccedilla;
unicode = 00C7;
},
{
glyphname = Eacute;
lastChange = "2021-04-19 01:04:02 +0000";
layers = (
{
hints = (
{
horizontal = 1;
place = "{852, 20}";
type = Stem;
}
);
layerId = "61E7180A-0B32-4047-B910-001D8BB62225";
paths = (
{
closed = 1;
nodes = (
"764 561 OFFCURVE",
"730 544 OFFCURVE",
"776 533 CURVE SMOOTH",
"831 520 OFFCURVE",
"795 449 OFFCURVE",
"721 391 CURVE SMOOTH",
"634 324 OFFCURVE",
"485 255 OFFCURVE",
"330 255 CURVE SMOOTH",
"-16 255 OFFCURVE",
"63 592 OFFCURVE",
"272 650 CURVE SMOOTH",
"401 686 OFFCURVE",
"525 642 OFFCURVE",
"537 682 CURVE",
"552 753 OFFCURVE",
"299 702 OFFCURVE",
"326 860 CURVE SMOOTH",
"348 989 OFFCURVE",
"557 1084 OFFCURVE",
"714 1069 CURVE SMOOTH",
"899 1051 OFFCURVE",
"787 871 OFFCURVE",
"694 862 CURVE SMOOTH",
"650 856 OFFCURVE",
"641 831 OFFCURVE",
"698 843 CURVE SMOOTH",
"900 888 OFFCURVE",
"953 1067 OFFCURVE",
"718 1093 CURVE SMOOTH",
"559 1112 OFFCURVE",
"264 1008 OFFCURVE",
"249 835 CURVE SMOOTH",
"244 776 OFFCURVE",
"314 730 OFFCURVE",
"370 710 CURVE",
"338 709 OFFCURVE",
"303 702 OFFCURVE",
"268 693 CURVE SMOOTH",
"-60 594 OFFCURVE",
"-79 232 OFFCURVE",
"326 232 CURVE SMOOTH",
"492 232 OFFCURVE",
"662 285 OFFCURVE",
"762 364 CURVE SMOOTH",
"851 433 OFFCURVE",
"871 509 OFFCURVE",
"797 545 CURVE SMOOTH"
);
},
{
closed = 1;
nodes = (
"888 1240 OFFCURVE",
"884 1252 OFFCURVE",
"875 1257 CURVE SMOOTH",
"855 1266 OFFCURVE",
"832 1257 OFFCURVE",
"816 1245 CURVE SMOOTH",
"800 1231 OFFCURVE",
"697 1160 OFFCURVE",
"693 1152 CURVE",
"690 1148 OFFCURVE",
"690 1143 OFFCURVE",
"695 1140 CURVE SMOOTH",
"702 1136 OFFCURVE",
"875 1213 OFFCURVE",
"883 1229 CURVE SMOOTH"
);
}
);
width = 907;
}
);
note = Eacute;
unicode = 00C9;
},
{
glyphname = Ntilde;
lastChange = "2021-04-19 01:04:02 +0000";
layers = (
{
hints = (
{
horizontal = 1;
place = "{876, 44}";
type = Stem;
}
);
layerId = "61E7180A-0B32-4047-B910-001D8BB62225";
paths = (
{
closed = 1;
nodes = (
"1197 1068 OFFCURVE",
"1081 1072 OFFCURVE",
"988 1028 CURVE SMOOTH",
"910 992 OFFCURVE",
"824 910 OFFCURVE",
"749 819 CURVE SMOOTH",
"698 758 OFFCURVE",
"653 694 OFFCURVE",
"616 638 CURVE SMOOTH",
"598 608 OFFCURVE",
"559 535 OFFCURVE",
"611 649 CURVE SMOOTH",
"646 724 OFFCURVE",
"686 805 OFFCURVE",
"694 883 CURVE SMOOTH",
"725 1130 OFFCURVE",
"469 1115 OFFCURVE",
"303 1024 CURVE SMOOTH",
"188 961 OFFCURVE",
"75 859 OFFCURVE",
"27 744 CURVE SMOOTH",
"-58 539 OFFCURVE",
"51 410 OFFCURVE",
"180 410 CURVE SMOOTH",
"445 410 OFFCURVE",
"576 789 OFFCURVE",
"338 732 CURVE SMOOTH",
"328 730 OFFCURVE",
"320 714 OFFCURVE",
"340 716 CURVE SMOOTH",
"519 738 OFFCURVE",
"393 429 OFFCURVE",
"182 429 CURVE SMOOTH",
"-17 429 OFFCURVE",
"17 797 OFFCURVE",
"314 981 CURVE SMOOTH",
"486 1088 OFFCURVE",
"687 1108 OFFCURVE",
"630 844 CURVE SMOOTH",
"582 631 OFFCURVE",
"425 318 OFFCURVE",
"375 245 CURVE",
"367 213 OFFCURVE",
"441 216 OFFCURVE",
"458 252 CURVE SMOOTH",
"524 389 OFFCURVE",
"627 630 OFFCURVE",
"769 803 CURVE SMOOTH",
"840 887 OFFCURVE",
"918 950 OFFCURVE",
"992 985 CURVE SMOOTH",
"1063 1020 OFFCURVE",
"1127 1018 OFFCURVE",
"1115 947 CURVE SMOOTH",
"1099 844 OFFCURVE",
"914 505 OFFCURVE",
"879 401 CURVE SMOOTH",
"824 239 OFFCURVE",
"864 147 OFFCURVE",
"1001 141 CURVE SMOOTH",
"1075 138 OFFCURVE",
"1092 212 OFFCURVE",
"1024 180 CURVE SMOOTH",
"907 126 OFFCURVE",
"874 249 OFFCURVE",
"965 449 CURVE SMOOTH",
"1064 666 OFFCURVE",
"1193 839 OFFCURVE",
"1194 959 CURVE SMOOTH"
);
},
{
closed = 1;
nodes = (
"1167 1209 OFFCURVE",
"1146 1213 OFFCURVE",
"1144 1207 CURVE SMOOTH",
"1132 1185 OFFCURVE",
"1116 1168 OFFCURVE",
"1088 1173 CURVE SMOOTH",
"1048 1175 OFFCURVE",
"1010 1205 OFFCURVE",
"967 1209 CURVE SMOOTH",
"921 1213 OFFCURVE",
"887 1167 OFFCURVE",
"868 1132 CURVE",
"867 1128 OFFCURVE",
"890 1124 OFFCURVE",
"891 1131 CURVE",
"902 1150 OFFCURVE",
"919 1166 OFFCURVE",
"943 1164 CURVE SMOOTH",
"985 1160 OFFCURVE",
"1024 1128 OFFCURVE",
"1065 1124 CURVE SMOOTH",
"1112 1120 OFFCURVE",
"1147 1168 OFFCURVE",
"1164 1205 CURVE SMOOTH"
);
}
);
width = 1044;
}
);
note = Ntilde;
unicode = 00D1;
},
{
glyphname = Odieresis;
lastChange = "2021-04-19 01:04:02 +0000";
layers = (
{
hints = (
{
horizontal = 1;
place = "{820, 67}";
type = Stem;
},
{
place = "{498, 67}";
type = Stem;
},
{
place = "{628, 67}";
type = Stem;
}
);
layerId = "61E7180A-0B32-4047-B910-001D8BB62225";
paths = (
{
closed = 1;
nodes = (
"923 862 OFFCURVE",
"900 863 OFFCURVE",
"894 848 CURVE SMOOTH",
"868 799 OFFCURVE",
"817 758 OFFCURVE",
"762 722 CURVE",
"783 1218 OFFCURVE",
"12 1132 OFFCURVE",
"51 746 CURVE SMOOTH",
"56 691 OFFCURVE",
"86 650 OFFCURVE",
"129 620 CURVE",
"60 445 OFFCURVE",
"118 276 OFFCURVE",
"232 240 CURVE SMOOTH",
"445 170 OFFCURVE",
"674 389 OFFCURVE",
"736 579 CURVE SMOOTH",
"748 618 OFFCURVE",
"756 653 OFFCURVE",
"758 686 CURVE",
"823 726 OFFCURVE",
"871 779 OFFCURVE",
"909 838 CURVE SMOOTH"
);
},
{
closed = 1;
nodes = (
"537 602 OFFCURVE",
"316 570 OFFCURVE",
"198 627 CURVE",
"240 722 OFFCURVE",
"398 954 OFFCURVE",
"524 915 CURVE SMOOTH",
"537 911 OFFCURVE",
"547 921 OFFCURVE",
"532 929 CURVE SMOOTH",
"381 1014 OFFCURVE",
"202 779 OFFCURVE",
"147 662 CURVE",
"125 681 OFFCURVE",
"111 706 OFFCURVE",
"107 738 CURVE SMOOTH",
"54 1096 OFFCURVE",
"749 1221 OFFCURVE",
"702 690 CURVE"
);
},
{
closed = 1;
nodes = (
"693 631 OFFCURVE",
"686 606 OFFCURVE",
"678 583 CURVE SMOOTH",
"608 386 OFFCURVE",
"411 185 OFFCURVE",
"236 272 CURVE SMOOTH",
"138 320 OFFCURVE",
"135 465 OFFCURVE",
"184 592 CURVE",
"316 539 OFFCURVE",
"529 565 OFFCURVE",
"695 654 CURVE"
);
},
{
closed = 1;
nodes = (
"694 1160 OFFCURVE",
"679 1174 OFFCURVE",
"661 1174 CURVE SMOOTH",
"642 1174 OFFCURVE",
"628 1160 OFFCURVE",
"628 1140 CURVE SMOOTH",
"628 1120 OFFCURVE",
"643 1108 OFFCURVE",
"662 1108 CURVE SMOOTH",
"682 1108 OFFCURVE",
"694 1122 OFFCURVE",
"694 1140 CURVE SMOOTH"
);
},
{
closed = 1;
nodes = (
"565 1160 OFFCURVE",
"549 1174 OFFCURVE",
"531 1174 CURVE SMOOTH",
"512 1174 OFFCURVE",
"498 1160 OFFCURVE",
"498 1140 CURVE SMOOTH",
"498 1120 OFFCURVE",
"513 1108 OFFCURVE",
"533 1108 CURVE SMOOTH",
"552 1108 OFFCURVE",
"565 1122 OFFCURVE",
"565 1140 CURVE SMOOTH"
);
}
);
width = 788;
}
);
note = Odieresis;
unicode = 00D6;
},
{
glyphname = Udieresis;
lastChange = "2021-04-19 01:04:02 +0000";
layers = (
{
hints = (
{
horizontal = 1;
place = "{697, 67}";
type = Stem;
},
{
place = "{804, 67}";
type = Stem;
},
{
place = "{934, 67}";
type = Stem;
}
);
layerId = "61E7180A-0B32-4047-B910-001D8BB62225";
paths = (
{
closed = 1;
nodes = (
"980 779 OFFCURVE",
"957 765 OFFCURVE",
"935 726 CURVE SMOOTH",
"894 651 OFFCURVE",
"833 509 OFFCURVE",
"766 413 CURVE SMOOTH",
"655 252 OFFCURVE",
"553 236 OFFCURVE",
"541 340 CURVE SMOOTH",
"527 486 OFFCURVE",
"685 716 OFFCURVE",
"721 875 CURVE SMOOTH",
"746 985 OFFCURVE",
"734 1087 OFFCURVE",
"635 1128 CURVE SMOOTH",
"545 1168 OFFCURVE",
"422 1148 OFFCURVE",
"308 1084 CURVE SMOOTH",
"-182 817 OFFCURVE",
"-20 324 OFFCURVE",
"280 452 CURVE SMOOTH",
"503 545 OFFCURVE",
"535 875 OFFCURVE",
"328 788 CURVE SMOOTH",
"320 785 OFFCURVE",
"280 758 OFFCURVE",
"332 771 CURVE SMOOTH",
"525 815 OFFCURVE",
"419 525 OFFCURVE",
"281 474 CURVE SMOOTH",
"3 370 OFFCURVE",
"-96 816 OFFCURVE",
"306 1052 CURVE SMOOTH",
"421 1118 OFFCURVE",
"557 1147 OFFCURVE",
"641 1096 CURVE SMOOTH",
"689 1068 OFFCURVE",
"686 976 OFFCURVE",
"662 879 CURVE SMOOTH",
"624 733 OFFCURVE",
"462 476 OFFCURVE",
"485 340 CURVE SMOOTH",
"505 212 OFFCURVE",
"647 212 OFFCURVE",
"781 385 CURVE SMOOTH",
"807 417 OFFCURVE",
"827 449 OFFCURVE",
"843 474 CURVE",
"825 389 OFFCURVE",
"807 226 OFFCURVE",
"902 209 CURVE SMOOTH",
"933 204 OFFCURVE",
"957 236 OFFCURVE",
"909 232 CURVE SMOOTH",
"854 229 OFFCURVE",
"866 352 OFFCURVE",
"895 461 CURVE SMOOTH",
"914 532 OFFCURVE",
"942 595 OFFCURVE",
"955 623 CURVE SMOOTH",
"982 685 OFFCURVE",
"1040 754 OFFCURVE",
"992 779 CURVE"
);
},
{
closed = 1;
nodes = (
"1000 1037 OFFCURVE",
"985 1051 OFFCURVE",
"966 1051 CURVE SMOOTH",
"947 1051 OFFCURVE",
"934 1036 OFFCURVE",
"934 1017 CURVE SMOOTH",
"934 997 OFFCURVE",
"949 984 OFFCURVE",
"967 984 CURVE SMOOTH",
"988 984 OFFCURVE",
"1000 998 OFFCURVE",
"1000 1017 CURVE SMOOTH"
);
},
{
closed = 1;
nodes = (
"871 1037 OFFCURVE",
"855 1051 OFFCURVE",
"836 1051 CURVE SMOOTH",
"817 1051 OFFCURVE",
"804 1036 OFFCURVE",
"804 1017 CURVE SMOOTH",
"804 997 OFFCURVE",
"819 984 OFFCURVE",
"839 984 CURVE SMOOTH",
"858 984 OFFCURVE",
"871 998 OFFCURVE",
"871 1017 CURVE SMOOTH"
);
}
);
width = 947;
}
);
leftKerningGroup = U;
note = Udieresis;
unicode = 00DC;
},
{
glyphname = aacute;
lastChange = "2021-04-19 01:04:02 +0000";
layers = (
{
hints = (
{
horizontal = 1;
place = "{397, 20}";
type = Stem;
}
);
layerId = "61E7180A-0B32-4047-B910-001D8BB62225";
paths = (
{
closed = 1;
nodes = (
"433 493 OFFCURVE",
"418 498 OFFCURVE",
"409 481 CURVE SMOOTH",
"389 437 OFFCURVE",
"322 310 OFFCURVE",
"280 312 CURVE SMOOTH",
"267 312 OFFCURVE",
"261 331 OFFCURVE",
"269 373 CURVE SMOOTH",
"283 433 OFFCURVE",
"342 539 OFFCURVE",
"363 560 CURVE",
"348 557 OFFCURVE",
"334 563 OFFCURVE",
"320 564 CURVE SMOOTH",
"288 565 OFFCURVE",
"275 541 OFFCURVE",
"252 500 CURVE SMOOTH",
"226 450 OFFCURVE",
"198 401 OFFCURVE",
"163 359 CURVE SMOOTH",
"115 303 OFFCURVE",
"60 295 OFFCURVE",
"71 364 CURVE SMOOTH",
"76 403 OFFCURVE",
"103 453 OFFCURVE",
"111 466 CURVE SMOOTH",
"147 525 OFFCURVE",
"200 586 OFFCURVE",
"245 610 CURVE SMOOTH",
"283 630 OFFCURVE",
"320 622 OFFCURVE",
"331 586 CURVE",
"348 582 OFFCURVE",
"356 599 OFFCURVE",
"342 614 CURVE SMOOTH",
"284 677 OFFCURVE",
"169 639 OFFCURVE",
"109 568 CURVE SMOOTH",
"-43 386 OFFCURVE",
"34 210 OFFCURVE",
"149 320 CURVE SMOOTH",
"178 348 OFFCURVE",
"205 389 OFFCURVE",
"221 415 CURVE",
"192 310 OFFCURVE",
"239 284 OFFCURVE",
"272 285 CURVE SMOOTH",
"332 291 OFFCURVE",
"393 411 OFFCURVE",
"423 473 CURVE SMOOTH"
);
},
{
closed = 1;
nodes = (
"418 783 OFFCURVE",
"414 795 OFFCURVE",
"405 800 CURVE SMOOTH",
"385 811 OFFCURVE",
"362 800 OFFCURVE",
"346 788 CURVE SMOOTH",
"330 775 OFFCURVE",
"226 705 OFFCURVE",
"222 697 CURVE",
"220 693 OFFCURVE",
"220 686 OFFCURVE",
"225 683 CURVE SMOOTH",
"232 681 OFFCURVE",
"405 756 OFFCURVE",
"413 773 CURVE SMOOTH"
);
}
);
width = 352;
}
);
note = aacute;
unicode = 00E1;
},
{
glyphname = agrave;
lastChange = "2021-04-19 01:04:02 +0000";
layers = (
{
hints = (
{
horizontal = 1;
place = "{535, -20}";
target = down;
type = TopGhost;
}
);
layerId = "61E7180A-0B32-4047-B910-001D8BB62225";
paths = (
{
closed = 1;
nodes = (
"433 493 OFFCURVE",
"418 498 OFFCURVE",
"409 481 CURVE SMOOTH",
"389 437 OFFCURVE",
"322 310 OFFCURVE",
"280 312 CURVE SMOOTH",
"267 312 OFFCURVE",
"261 331 OFFCURVE",
"269 373 CURVE SMOOTH",
"283 433 OFFCURVE",
"342 539 OFFCURVE",
"363 560 CURVE",
"348 557 OFFCURVE",
"334 563 OFFCURVE",
"320 564 CURVE SMOOTH",
"288 565 OFFCURVE",
"275 541 OFFCURVE",
"252 500 CURVE SMOOTH",
"226 450 OFFCURVE",
"198 401 OFFCURVE",
"163 359 CURVE SMOOTH",
"115 303 OFFCURVE",
"60 295 OFFCURVE",
"71 364 CURVE SMOOTH",
"76 403 OFFCURVE",
"103 453 OFFCURVE",
"111 466 CURVE SMOOTH",
"147 525 OFFCURVE",
"200 586 OFFCURVE",
"245 610 CURVE SMOOTH",
"283 630 OFFCURVE",
"320 622 OFFCURVE",
"331 586 CURVE",
"348 582 OFFCURVE",
"356 599 OFFCURVE",
"342 614 CURVE SMOOTH",
"284 677 OFFCURVE",
"169 639 OFFCURVE",
"109 568 CURVE SMOOTH",
"-43 386 OFFCURVE",
"34 210 OFFCURVE",
"149 320 CURVE SMOOTH",
"178 348 OFFCURVE",
"205 389 OFFCURVE",
"221 415 CURVE",
"192 310 OFFCURVE",
"239 284 OFFCURVE",
"272 285 CURVE SMOOTH",
"332 291 OFFCURVE",
"393 411 OFFCURVE",
"423 473 CURVE SMOOTH"
);
},
{
closed = 1;
nodes = (
"324 702 OFFCURVE",
"178 823 OFFCURVE",
"159 823 CURVE SMOOTH",
"147 823 OFFCURVE",
"139 813 OFFCURVE",
"139 801 CURVE SMOOTH",
"139 779 OFFCURVE",
"159 765 OFFCURVE",
"177 756 CURVE SMOOTH",
"196 746 OFFCURVE",
"306 686 OFFCURVE",
"315 686 CURVE SMOOTH",
"320 686 OFFCURVE",
"324 690 OFFCURVE",
"324 695 CURVE SMOOTH"
);
}
);
width = 352;
}
);
note = agrave;
unicode = 00E0;
},
{
glyphname = acircumflex;
lastChange = "2021-04-19 01:04:02 +0000";
layers = (
{
hints = (
{
horizontal = 1;
place = "{-1, 28}";
type = Stem;
},
{
horizontal = 1;
place = "{204, -20}";
target = down;
type = TopGhost;
},
{
horizontal = 1;
place = "{334, 24}";
type = Stem;
},
{
horizontal = 1;
place = "{484, 35}";
type = Stem;
},
{
place = "{24, 47}";
type = Stem;
},
{
place = "{212, 54}";
type = Stem;
},
{
place = "{331, 19}";
type = Stem;
},
{
horizontal = 1;
place = "{-3, 27}";
type = Stem;
}
);
layerId = "61E7180A-0B32-4047-B910-001D8BB62225";
paths = (
{
closed = 1;
nodes = (
"433 493 OFFCURVE",
"418 498 OFFCURVE",
"409 481 CURVE SMOOTH",
"389 437 OFFCURVE",
"322 310 OFFCURVE",
"280 312 CURVE SMOOTH",
"267 312 OFFCURVE",
"261 331 OFFCURVE",
"269 373 CURVE SMOOTH",
"283 433 OFFCURVE",
"342 539 OFFCURVE",
"363 560 CURVE",
"348 557 OFFCURVE",
"334 563 OFFCURVE",
"320 564 CURVE SMOOTH",
"288 565 OFFCURVE",
"275 541 OFFCURVE",
"252 500 CURVE SMOOTH",
"226 450 OFFCURVE",
"198 401 OFFCURVE",
"163 359 CURVE SMOOTH",
"115 303 OFFCURVE",
"60 295 OFFCURVE",
"71 364 CURVE SMOOTH",
"76 403 OFFCURVE",
"103 453 OFFCURVE",
"111 466 CURVE SMOOTH",
"147 525 OFFCURVE",
"200 586 OFFCURVE",
"245 610 CURVE SMOOTH",
"283 630 OFFCURVE",
"320 622 OFFCURVE",
"331 586 CURVE",
"348 582 OFFCURVE",
"356 599 OFFCURVE",
"342 614 CURVE SMOOTH",
"284 677 OFFCURVE",
"169 639 OFFCURVE",
"109 568 CURVE SMOOTH",
"-43 386 OFFCURVE",
"34 210 OFFCURVE",
"149 320 CURVE SMOOTH",
"178 348 OFFCURVE",
"205 389 OFFCURVE",
"221 415 CURVE",
"192 310 OFFCURVE",
"239 284 OFFCURVE",
"272 285 CURVE SMOOTH",
"332 291 OFFCURVE",
"393 411 OFFCURVE",
"423 473 CURVE SMOOTH"
);
},
{
closed = 1;
nodes = (
"377 807 LINE",
"375 811 OFFCURVE",
"338 807 OFFCURVE",
"338 807 CURVE",
"188 699 LINE SMOOTH",
"180 694 OFFCURVE",
"204 690 OFFCURVE",
"213 699 CURVE",
"226 706 OFFCURVE",
"346 771 OFFCURVE",
"346 771 CURVE",
"393 699 LINE SMOOTH",
"397 693 OFFCURVE",
"417 690 OFFCURVE",
"413 699 CURVE"
);
}
);
width = 352;
}
);
note = acircumflex;
unicode = 00E2;
},
{
glyphname = adieresis;
lastChange = "2021-04-19 01:04:02 +0000";
layers = (
{
hints = (
{
horizontal = 1;
place = "{429, 67}";
type = Stem;
},
{
place = "{216, 67}";
type = Stem;
},
{
place = "{346, 67}";
type = Stem;
}
);
layerId = "61E7180A-0B32-4047-B910-001D8BB62225";
paths = (
{
closed = 1;
nodes = (
"433 493 OFFCURVE",
"418 498 OFFCURVE",
"409 481 CURVE SMOOTH",
"389 437 OFFCURVE",
"322 310 OFFCURVE",
"280 312 CURVE SMOOTH",
"267 312 OFFCURVE",
"261 331 OFFCURVE",
"269 373 CURVE SMOOTH",
"283 433 OFFCURVE",
"342 539 OFFCURVE",
"363 560 CURVE",
"348 557 OFFCURVE",
"334 563 OFFCURVE",
"320 564 CURVE SMOOTH",
"288 565 OFFCURVE",
"275 541 OFFCURVE",
"252 500 CURVE SMOOTH",
"226 450 OFFCURVE",
"198 401 OFFCURVE",
"163 359 CURVE SMOOTH",
"115 303 OFFCURVE",
"60 295 OFFCURVE",
"71 364 CURVE SMOOTH",
"76 403 OFFCURVE",
"103 453 OFFCURVE",
"111 466 CURVE SMOOTH",
"147 525 OFFCURVE",
"200 586 OFFCURVE",
"245 610 CURVE SMOOTH",
"283 630 OFFCURVE",
"320 622 OFFCURVE",
"331 586 CURVE",
"348 582 OFFCURVE",
"356 599 OFFCURVE",
"342 614 CURVE SMOOTH",
"284 677 OFFCURVE",
"169 639 OFFCURVE",
"109 568 CURVE SMOOTH",
"-43 386 OFFCURVE",
"34 210 OFFCURVE",
"149 320 CURVE SMOOTH",
"178 348 OFFCURVE",
"205 389 OFFCURVE",
"221 415 CURVE",
"192 310 OFFCURVE",
"239 284 OFFCURVE",
"272 285 CURVE SMOOTH",
"332 291 OFFCURVE",
"393 411 OFFCURVE",
"423 473 CURVE SMOOTH"
);
},
{
closed = 1;
nodes = (
"413 769 OFFCURVE",
"397 783 OFFCURVE",
"378 783 CURVE SMOOTH",
"359 783 OFFCURVE",
"346 768 OFFCURVE",
"346 749 CURVE SMOOTH",
"346 729 OFFCURVE",
"360 716 OFFCURVE",
"381 716 CURVE SMOOTH",
"399 716 OFFCURVE",
"413 730 OFFCURVE",
"413 749 CURVE SMOOTH"
);
},
{
closed = 1;
nodes = (
"283 769 OFFCURVE",
"268 783 OFFCURVE",
"248 783 CURVE SMOOTH",
"229 783 OFFCURVE",
"216 768 OFFCURVE",
"216 749 CURVE SMOOTH",
"216 729 OFFCURVE",
"232 716 OFFCURVE",
"251 716 CURVE SMOOTH",
"269 716 OFFCURVE",
"283 730 OFFCURVE",
"283 749 CURVE SMOOTH"
);
}
);
width = 352;
}
);
note = adieresis;
unicode = 00E4;
},
{
glyphname = atilde;
lastChange = "2021-04-19 01:04:02 +0000";
layers = (
{
hints = (
{
horizontal = 1;
place = "{482, 44}";
type = Stem;
}
);
layerId = "61E7180A-0B32-4047-B910-001D8BB62225";
paths = (
{
closed = 1;
nodes = (
"433 493 OFFCURVE",
"418 498 OFFCURVE",
"409 481 CURVE SMOOTH",
"389 437 OFFCURVE",
"322 310 OFFCURVE",
"280 312 CURVE SMOOTH",
"267 312 OFFCURVE",
"261 331 OFFCURVE",
"269 373 CURVE SMOOTH",
"283 433 OFFCURVE",
"342 539 OFFCURVE",
"363 560 CURVE",
"348 557 OFFCURVE",
"334 563 OFFCURVE",
"320 564 CURVE SMOOTH",
"288 565 OFFCURVE",
"275 541 OFFCURVE",
"252 500 CURVE SMOOTH",
"226 450 OFFCURVE",
"198 401 OFFCURVE",
"163 359 CURVE SMOOTH",
"115 303 OFFCURVE",
"60 295 OFFCURVE",
"71 364 CURVE SMOOTH",
"76 403 OFFCURVE",
"103 453 OFFCURVE",
"111 466 CURVE SMOOTH",
"147 525 OFFCURVE",
"200 586 OFFCURVE",
"245 610 CURVE SMOOTH",
"283 630 OFFCURVE",
"320 622 OFFCURVE",
"331 586 CURVE",
"348 582 OFFCURVE",
"356 599 OFFCURVE",
"342 614 CURVE SMOOTH",
"284 677 OFFCURVE",
"169 639 OFFCURVE",
"109 568 CURVE SMOOTH",
"-43 386 OFFCURVE",
"34 210 OFFCURVE",
"149 320 CURVE SMOOTH",
"178 348 OFFCURVE",
"205 389 OFFCURVE",
"221 415 CURVE",
"192 310 OFFCURVE",
"239 284 OFFCURVE",
"272 285 CURVE SMOOTH",
"332 291 OFFCURVE",
"393 411 OFFCURVE",
"423 473 CURVE SMOOTH"
);
},
{
closed = 1;
nodes = (
"452 815 OFFCURVE",
"430 819 OFFCURVE",
"429 813 CURVE SMOOTH",
"417 791 OFFCURVE",
"401 775 OFFCURVE",
"373 779 CURVE SMOOTH",
"332 781 OFFCURVE",
"295 811 OFFCURVE",
"252 815 CURVE SMOOTH",
"205 819 OFFCURVE",
"172 773 OFFCURVE",
"153 738 CURVE",
"151 734 OFFCURVE",
"174 730 OFFCURVE",
"176 737 CURVE",
"186 756 OFFCURVE",
"204 772 OFFCURVE",
"228 771 CURVE SMOOTH",
"269 766 OFFCURVE",
"308 734 OFFCURVE",
"350 730 CURVE SMOOTH",
"397 726 OFFCURVE",
"431 775 OFFCURVE",
"449 811 CURVE SMOOTH"
);
}
);
width = 352;
}
);
note = atilde;
unicode = 00E3;
},
{
glyphname = aring;
lastChange = "2021-04-19 01:04:02 +0000";
layers = (
{
hints = (
{
horizontal = 1;
place = "{336, 17}";
type = Stem;
},
{
horizontal = 1;
place = "{446, 19}";
type = Stem;
},
{
place = "{248, 17}";
type = Stem;
},
{
place = "{356, 19}";
type = Stem;
}
);
layerId = "61E7180A-0B32-4047-B910-001D8BB62225";
paths = (
{
closed = 1;
nodes = (
"433 493 OFFCURVE",
"418 498 OFFCURVE",
"409 481 CURVE SMOOTH",
"389 437 OFFCURVE",
"322 310 OFFCURVE",
"280 312 CURVE SMOOTH",
"267 312 OFFCURVE",
"261 331 OFFCURVE",
"269 373 CURVE SMOOTH",
"283 433 OFFCURVE",
"342 539 OFFCURVE",
"363 560 CURVE",
"348 557 OFFCURVE",
"334 563 OFFCURVE",
"320 564 CURVE SMOOTH",
"288 565 OFFCURVE",
"275 541 OFFCURVE",
"252 500 CURVE SMOOTH",
"226 450 OFFCURVE",
"198 401 OFFCURVE",
"163 359 CURVE SMOOTH",
"115 303 OFFCURVE",
"60 295 OFFCURVE",
"71 364 CURVE SMOOTH",
"76 403 OFFCURVE",
"103 453 OFFCURVE",
"111 466 CURVE SMOOTH",
"147 525 OFFCURVE",
"200 586 OFFCURVE",
"245 610 CURVE SMOOTH",
"283 630 OFFCURVE",
"320 622 OFFCURVE",
"331 586 CURVE",
"348 582 OFFCURVE",
"356 599 OFFCURVE",
"342 614 CURVE SMOOTH",
"284 677 OFFCURVE",
"169 639 OFFCURVE",
"109 568 CURVE SMOOTH",
"-43 386 OFFCURVE",
"34 210 OFFCURVE",
"149 320 CURVE SMOOTH",
"178 348 OFFCURVE",
"205 389 OFFCURVE",
"221 415 CURVE",
"192 310 OFFCURVE",
"239 284 OFFCURVE",
"272 285 CURVE SMOOTH",
"332 291 OFFCURVE",
"393 411 OFFCURVE",
"423 473 CURVE SMOOTH"
);
},
{
closed = 1;
nodes = (
"284 803 OFFCURVE",
"299 819 OFFCURVE",
"316 819 CURVE SMOOTH",
"332 820 OFFCURVE",
"346 804 OFFCURVE",
"344 783 CURVE SMOOTH",
"342 762 OFFCURVE",
"328 744 OFFCURVE",
"310 744 CURVE SMOOTH",
"292 744 OFFCURVE",
"280 760 OFFCURVE",
"281 781 CURVE SMOOTH"
);
},
{
closed = 1;
nodes = (
"243 750 OFFCURVE",
"269 726 OFFCURVE",
"307 726 CURVE SMOOTH",
"344 728 OFFCURVE",
"377 753 OFFCURVE",
"381 783 CURVE SMOOTH",
"383 812 OFFCURVE",
"356 836 OFFCURVE",
"320 835 CURVE SMOOTH",
"284 833 OFFCURVE",
"249 809 OFFCURVE",
"247 779 CURVE SMOOTH"
);
}
);
width = 352;
}
);
note = aring;
unicode = 00E5;
},
{
glyphname = ccedilla;
lastChange = "2021-04-19 01:04:02 +0000";
layers = (
{
hints = (
{
horizontal = 1;
place = "{-209, 17}";
type = Stem;
},
{
horizontal = 1;
place = "{-58, 19}";
type = Stem;
},
{
place = "{235, 38}";
type = Stem;
}
);
layerId = "61E7180A-0B32-4047-B910-001D8BB62225";
paths = (
{
closed = 1;
nodes = (
"348 492 OFFCURVE",
"335 497 OFFCURVE",
"326 478 CURVE SMOOTH",
"285 399 OFFCURVE",
"237 302 OFFCURVE",
"150 302 CURVE SMOOTH",
"107 302 OFFCURVE",
"91 339 OFFCURVE",
"91 379 CURVE SMOOTH",
"91 437 OFFCURVE",
"127 507 OFFCURVE",
"146 533 CURVE SMOOTH",
"174 574 OFFCURVE",
"217 619 OFFCURVE",
"253 619 CURVE SMOOTH",
"272 619 OFFCURVE",
"283 606 OFFCURVE",
"273 570 CURVE SMOOTH",
"268 552 OFFCURVE",
"253 532 OFFCURVE",
"243 519 CURVE",
"264 497 OFFCURVE",
"306 539 OFFCURVE",
"310 572 CURVE SMOOTH",
"315 614 OFFCURVE",
"291 642 OFFCURVE",
"240 642 CURVE SMOOTH",
"192 642 OFFCURVE",
"143 612 OFFCURVE",
"106 561 CURVE SMOOTH",
"34 465 OFFCURVE",
"-19 284 OFFCURVE",
"139 284 CURVE SMOOTH",
"251 284 OFFCURVE",
"291 367 OFFCURVE",
"340 472 CURVE SMOOTH"
);
},
{
closed = 1;
nodes = (
"272 229 OFFCURVE",
"198 248 OFFCURVE",
"153 248 CURVE SMOOTH",
"139 248 OFFCURVE",
"127 248 OFFCURVE",
"114 245 CURVE",
"113 252 OFFCURVE",
"151 276 OFFCURVE",
"158 280 CURVE",
"157 284 OFFCURVE",
"154 288 OFFCURVE",
"150 288 CURVE SMOOTH",
"146 288 OFFCURVE",
"79 237 OFFCURVE",
"72 230 CURVE SMOOTH",
"70 228 OFFCURVE",
"68 225 OFFCURVE",
"68 221 CURVE SMOOTH",
"68 212 OFFCURVE",
"79 206 OFFCURVE",
"87 206 CURVE SMOOTH",
"98 206 OFFCURVE",
"122 230 OFFCURVE",
"159 230 CURVE SMOOTH",
"194 230 OFFCURVE",
"236 212 OFFCURVE",
"236 173 CURVE SMOOTH",
"236 159 OFFCURVE",
"229 143 OFFCURVE",
"221 131 CURVE SMOOTH",
"204 103 OFFCURVE",
"155 95 OFFCURVE",
"125 95 CURVE SMOOTH",
"99 95 OFFCURVE",
"56 102 OFFCURVE",
"39 121 CURVE SMOOTH",
"35 125 OFFCURVE",
"29 131 OFFCURVE",
"23 131 CURVE SMOOTH",
"19 131 OFFCURVE",
"17 129 OFFCURVE",
"17 125 CURVE SMOOTH",
"17 90 OFFCURVE",
"119 79 OFFCURVE",
"143 79 CURVE SMOOTH",
"168 79 OFFCURVE",
"200 82 OFFCURVE",
"220 95 CURVE SMOOTH",
"245 113 OFFCURVE",
"272 139 OFFCURVE",
"272 172 CURVE SMOOTH"
);
}
);
width = 261;
}
);
note = ccedilla;
unicode = 00E7;
},
{
glyphname = eacute;
lastChange = "2021-04-19 01:04:02 +0000";
layers = (
{
hints = (
{
horizontal = 1;
place = "{397, 20}";
type = Stem;
}
);
layerId = "61E7180A-0B32-4047-B910-001D8BB62225";
paths = (
{
closed = 1;
nodes = (
"330 497 OFFCURVE",
"310 494 OFFCURVE",
"302 477 CURVE SMOOTH",
"279 423 OFFCURVE",
"224 304 OFFCURVE",
"135 304 CURVE SMOOTH",
"70 304 OFFCURVE",
"87 406 OFFCURVE",
"102 442 CURVE",
"129 442 OFFCURVE",
"194 464 OFFCURVE",
"225 486 CURVE SMOOTH",
"289 536 OFFCURVE",
"319 604 OFFCURVE",
"280 634 CURVE SMOOTH",
"236 666 OFFCURVE",
"159 628 OFFCURVE",
"109 568 CURVE SMOOTH",
"64 516 OFFCURVE",
"31 441 OFFCURVE",
"31 381 CURVE SMOOTH",
"32 316 OFFCURVE",
"78 284 OFFCURVE",
"127 284 CURVE SMOOTH",
"240 284 OFFCURVE",
"283 395 OFFCURVE",
"320 476 CURVE SMOOTH"
);
},
{
closed = 1;
nodes = (
"180 473 OFFCURVE",
"127 460 OFFCURVE",
"109 460 CURVE",
"118 477 OFFCURVE",
"143 521 OFFCURVE",
"169 553 CURVE SMOOTH",
"292 704 OFFCURVE",
"297 574 OFFCURVE",
"216 504 CURVE SMOOTH"
);
},
{
closed = 1;
nodes = (
"401 783 OFFCURVE",
"397 795 OFFCURVE",
"387 800 CURVE SMOOTH",
"367 811 OFFCURVE",
"344 800 OFFCURVE",
"328 788 CURVE SMOOTH",
"312 775 OFFCURVE",
"209 705 OFFCURVE",
"205 697 CURVE",
"202 693 OFFCURVE",
"204 686 OFFCURVE",
"208 683 CURVE SMOOTH",
"216 681 OFFCURVE",
"389 756 OFFCURVE",
"397 773 CURVE SMOOTH"
);
}
);
width = 248;
}
);
note = eacute;
unicode = 00E9;
},
{
glyphname = egrave;
lastChange = "2021-04-19 01:04:02 +0000";
layers = (
{
hints = (
{
horizontal = 1;
place = "{-4, 21}";
type = Stem;
},
{
horizontal = 1;
place = "{525, -20}";
target = down;
type = TopGhost;
}
);
layerId = "61E7180A-0B32-4047-B910-001D8BB62225";
paths = (
{
closed = 1;
nodes = (
"330 497 OFFCURVE",
"310 494 OFFCURVE",
"302 477 CURVE SMOOTH",
"279 423 OFFCURVE",
"224 304 OFFCURVE",
"135 304 CURVE SMOOTH",
"70 304 OFFCURVE",
"87 406 OFFCURVE",
"102 442 CURVE",
"129 442 OFFCURVE",
"194 464 OFFCURVE",
"225 486 CURVE SMOOTH",
"289 536 OFFCURVE",
"319 604 OFFCURVE",
"280 634 CURVE SMOOTH",
"236 666 OFFCURVE",
"159 628 OFFCURVE",
"109 568 CURVE SMOOTH",
"64 516 OFFCURVE",
"31 441 OFFCURVE",
"31 381 CURVE SMOOTH",
"32 316 OFFCURVE",
"78 284 OFFCURVE",
"127 284 CURVE SMOOTH",
"240 284 OFFCURVE",
"283 395 OFFCURVE",
"320 476 CURVE SMOOTH"
);
},
{
closed = 1;
nodes = (
"180 473 OFFCURVE",
"127 460 OFFCURVE",
"109 460 CURVE",
"118 477 OFFCURVE",
"143 521 OFFCURVE",
"169 553 CURVE SMOOTH",
"292 704 OFFCURVE",
"297 574 OFFCURVE",
"216 504 CURVE SMOOTH"
);
},
{
closed = 1;
nodes = (
"288 694 OFFCURVE",
"142 813 OFFCURVE",
"123 813 CURVE SMOOTH",
"111 813 OFFCURVE",
"103 804 OFFCURVE",
"103 792 CURVE SMOOTH",
"103 771 OFFCURVE",
"123 756 OFFCURVE",
"141 746 CURVE SMOOTH",
"159 738 OFFCURVE",
"269 678 OFFCURVE",
"279 678 CURVE SMOOTH",
"284 678 OFFCURVE",
"288 681 OFFCURVE",
"288 686 CURVE SMOOTH"
);
}
);
width = 248;
}
);
note = egrave;
unicode = 00E8;
},
{
glyphname = ecircumflex;
lastChange = "2021-04-19 01:04:02 +0000";
layers = (
{
hints = (
{
horizontal = 1;
place = "{-4, 21}";
type = Stem;
}
);
layerId = "61E7180A-0B32-4047-B910-001D8BB62225";
paths = (
{
closed = 1;
nodes = (
"330 497 OFFCURVE",
"310 494 OFFCURVE",
"302 477 CURVE SMOOTH",
"279 423 OFFCURVE",
"224 304 OFFCURVE",
"135 304 CURVE SMOOTH",
"70 304 OFFCURVE",
"87 406 OFFCURVE",
"102 442 CURVE",
"129 442 OFFCURVE",
"194 464 OFFCURVE",
"225 486 CURVE SMOOTH",
"289 536 OFFCURVE",
"319 604 OFFCURVE",
"280 634 CURVE SMOOTH",
"236 666 OFFCURVE",
"159 628 OFFCURVE",
"109 568 CURVE SMOOTH",
"64 516 OFFCURVE",
"31 441 OFFCURVE",
"31 381 CURVE SMOOTH",
"32 316 OFFCURVE",
"78 284 OFFCURVE",
"127 284 CURVE SMOOTH",
"240 284 OFFCURVE",
"283 395 OFFCURVE",
"320 476 CURVE SMOOTH"
);
},
{
closed = 1;
nodes = (
"180 473 OFFCURVE",
"127 460 OFFCURVE",
"109 460 CURVE",
"118 477 OFFCURVE",
"143 521 OFFCURVE",
"169 553 CURVE SMOOTH",
"292 704 OFFCURVE",
"297 574 OFFCURVE",
"216 504 CURVE SMOOTH"
);
},
{
closed = 1;
nodes = (
"332 807 LINE",
"331 811 OFFCURVE",
"293 807 OFFCURVE",
"293 807 CURVE",
"143 699 LINE SMOOTH",
"135 694 OFFCURVE",
"159 690 OFFCURVE",
"169 699 CURVE",
"182 706 OFFCURVE",
"302 771 OFFCURVE",
"302 771 CURVE",
"348 699 LINE SMOOTH",
"352 693 OFFCURVE",
"373 690 OFFCURVE",
"369 699 CURVE"
);
}
);
width = 248;
}
);
note = ecircumflex;
unicode = 00EA;
},
{
glyphname = edieresis;
lastChange = "2021-04-19 01:04:02 +0000";
layers = (
{
hints = (
{
horizontal = 1;
place = "{409, 67}";
type = Stem;
},
{
place = "{162, 67}";
type = Stem;
},
{
place = "{292, 67}";
type = Stem;
}
);
layerId = "61E7180A-0B32-4047-B910-001D8BB62225";
paths = (
{
closed = 1;
nodes = (
"330 497 OFFCURVE",
"310 494 OFFCURVE",
"302 477 CURVE SMOOTH",
"279 423 OFFCURVE",
"224 304 OFFCURVE",
"135 304 CURVE SMOOTH",
"70 304 OFFCURVE",
"87 406 OFFCURVE",
"102 442 CURVE",
"129 442 OFFCURVE",
"194 464 OFFCURVE",
"225 486 CURVE SMOOTH",
"289 536 OFFCURVE",
"319 604 OFFCURVE",
"280 634 CURVE SMOOTH",
"236 666 OFFCURVE",
"159 628 OFFCURVE",
"109 568 CURVE SMOOTH",
"64 516 OFFCURVE",
"31 441 OFFCURVE",
"31 381 CURVE SMOOTH",
"32 316 OFFCURVE",
"78 284 OFFCURVE",
"127 284 CURVE SMOOTH",
"240 284 OFFCURVE",
"283 395 OFFCURVE",
"320 476 CURVE SMOOTH"
);
},
{
closed = 1;
nodes = (
"180 473 OFFCURVE",
"127 460 OFFCURVE",
"109 460 CURVE",
"118 477 OFFCURVE",
"143 521 OFFCURVE",
"169 553 CURVE SMOOTH",
"292 704 OFFCURVE",
"297 574 OFFCURVE",
"216 504 CURVE SMOOTH"
);
},
{
closed = 1;
nodes = (
"358 750 OFFCURVE",
"343 762 OFFCURVE",
"324 762 CURVE SMOOTH",
"304 762 OFFCURVE",
"292 749 OFFCURVE",
"292 730 CURVE SMOOTH",
"292 710 OFFCURVE",
"307 697 OFFCURVE",
"326 697 CURVE SMOOTH",
"344 697 OFFCURVE",
"358 710 OFFCURVE",
"358 730 CURVE SMOOTH"
);
},
{
closed = 1;
nodes = (
"228 750 OFFCURVE",
"213 762 OFFCURVE",
"194 762 CURVE SMOOTH",
"176 762 OFFCURVE",
"162 749 OFFCURVE",
"162 730 CURVE SMOOTH",
"162 710 OFFCURVE",
"177 697 OFFCURVE",
"196 697 CURVE SMOOTH",
"216 697 OFFCURVE",
"228 710 OFFCURVE",
"228 730 CURVE SMOOTH"
);
}
);
width = 248;
}
);
note = edieresis;
unicode = 00EB;
},
{
glyphname = iacute;
lastChange = "2021-04-19 01:04:02 +0000";
layers = (
{
hints = (
{
horizontal = 1;
place = "{0, 21}";
type = Stem;
},
{
place = "{11, 48}";
type = Stem;
},
{
horizontal = 1;
place = "{417, 20}";
type = Stem;
}
);
layerId = "61E7180A-0B32-4047-B910-001D8BB62225";
paths = (
{
closed = 1;
nodes = (
"248 492 OFFCURVE",
"233 498 OFFCURVE",
"224 481 CURVE SMOOTH",
"197 425 OFFCURVE",
"163 362 OFFCURVE",
"130 328 CURVE SMOOTH",
"119 319 OFFCURVE",
"101 308 OFFCURVE",
"86 310 CURVE SMOOTH",
"56 312 OFFCURVE",
"55 340 OFFCURVE",
"64 373 CURVE SMOOTH",
"67 381 OFFCURVE",
"76 402 OFFCURVE",
"76 402 CURVE",
"103 472 OFFCURVE",
"181 598 OFFCURVE",
"181 598 CURVE",
"192 618 OFFCURVE",
"210 626 OFFCURVE",
"218 634 CURVE",
"168 634 LINE SMOOTH",
"135 634 OFFCURVE",
"138 634 OFFCURVE",
"113 586 CURVE SMOOTH",
"25 418 LINE SMOOTH",
"-1 369 OFFCURVE",
"5 288 OFFCURVE",
"79 288 CURVE SMOOTH",
"155 288 OFFCURVE",
"212 415 OFFCURVE",
"237 472 CURVE SMOOTH"
);
},
{
closed = 1;
nodes = (
"385 804 OFFCURVE",
"381 816 OFFCURVE",
"371 821 CURVE SMOOTH",
"351 831 OFFCURVE",
"328 821 OFFCURVE",
"312 809 CURVE SMOOTH",
"296 796 OFFCURVE",
"193 726 OFFCURVE",
"189 718 CURVE",
"186 714 OFFCURVE",
"188 708 OFFCURVE",
"192 705 CURVE SMOOTH",
"200 702 OFFCURVE",
"373 777 OFFCURVE",
"381 795 CURVE SMOOTH"
);
}
);
width = 169;
}
);
note = iacute;
unicode = 00ED;
},
{
glyphname = igrave;
lastChange = "2021-04-19 01:04:02 +0000";
layers = (
{
hints = (
{
horizontal = 1;
place = "{0, 21}";
type = Stem;
},
{
place = "{11, 48}";
type = Stem;
}
);
layerId = "61E7180A-0B32-4047-B910-001D8BB62225";
paths = (
{
closed = 1;
nodes = (
"248 492 OFFCURVE",
"233 498 OFFCURVE",
"224 481 CURVE SMOOTH",
"197 425 OFFCURVE",
"163 362 OFFCURVE",
"130 328 CURVE SMOOTH",
"119 319 OFFCURVE",
"101 308 OFFCURVE",
"86 310 CURVE SMOOTH",
"56 312 OFFCURVE",
"55 340 OFFCURVE",
"64 373 CURVE SMOOTH",
"67 381 OFFCURVE",
"76 402 OFFCURVE",
"76 402 CURVE",
"103 472 OFFCURVE",
"181 598 OFFCURVE",
"181 598 CURVE",
"192 618 OFFCURVE",
"210 626 OFFCURVE",
"218 634 CURVE",
"168 634 LINE SMOOTH",
"135 634 OFFCURVE",
"138 634 OFFCURVE",
"113 586 CURVE SMOOTH",
"25 418 LINE SMOOTH",
"-1 369 OFFCURVE",
"5 288 OFFCURVE",
"79 288 CURVE SMOOTH",
"155 288 OFFCURVE",
"212 415 OFFCURVE",
"237 472 CURVE SMOOTH"
);
},
{
closed = 1;
nodes = (
"240 705 OFFCURVE",
"92 824 OFFCURVE",
"74 824 CURVE SMOOTH",
"63 824 OFFCURVE",
"55 815 OFFCURVE",
"55 803 CURVE SMOOTH",
"55 781 OFFCURVE",
"74 766 OFFCURVE",
"91 758 CURVE SMOOTH",
"111 749 OFFCURVE",
"220 689 OFFCURVE",
"229 689 CURVE SMOOTH",
"235 689 OFFCURVE",
"240 691 OFFCURVE",
"240 698 CURVE SMOOTH"
);
}
);
width = 169;
}
);
note = igrave;
unicode = 00EC;
},
{
glyphname = icircumflex;
lastChange = "2021-04-19 01:04:02 +0000";
layers = (
{
hints = (
{
horizontal = 1;
place = "{0, 21}";
type = Stem;
},
{
place = "{11, 48}";
type = Stem;
}
);
layerId = "61E7180A-0B32-4047-B910-001D8BB62225";
paths = (
{
closed = 1;
nodes = (
"248 492 OFFCURVE",
"233 498 OFFCURVE",
"224 481 CURVE SMOOTH",
"197 425 OFFCURVE",
"163 362 OFFCURVE",
"130 328 CURVE SMOOTH",
"119 319 OFFCURVE",
"101 308 OFFCURVE",
"86 310 CURVE SMOOTH",
"56 312 OFFCURVE",
"55 340 OFFCURVE",
"64 373 CURVE SMOOTH",
"67 381 OFFCURVE",
"76 402 OFFCURVE",
"76 402 CURVE",
"103 472 OFFCURVE",
"181 598 OFFCURVE",
"181 598 CURVE",
"192 618 OFFCURVE",
"210 626 OFFCURVE",
"218 634 CURVE",
"168 634 LINE SMOOTH",
"135 634 OFFCURVE",
"138 634 OFFCURVE",
"113 586 CURVE SMOOTH",
"25 418 LINE SMOOTH",
"-1 369 OFFCURVE",
"5 288 OFFCURVE",
"79 288 CURVE SMOOTH",
"155 288 OFFCURVE",
"212 415 OFFCURVE",
"237 472 CURVE SMOOTH"
);
},
{
closed = 1;
nodes = (
"281 803 LINE",
"280 807 OFFCURVE",
"244 803 OFFCURVE",
"244 803 CURVE",
"94 695 LINE SMOOTH",
"86 690 OFFCURVE",
"109 686 OFFCURVE",
"119 695 CURVE",
"131 702 OFFCURVE",
"252 766 OFFCURVE",
"252 766 CURVE",
"297 695 LINE SMOOTH",
"302 689 OFFCURVE",
"322 686 OFFCURVE",
"318 695 CURVE"
);
}
);
width = 169;
}
);
note = icircumflex;
unicode = 00EE;
},
{
glyphname = idieresis;
lastChange = "2021-04-19 01:04:02 +0000";
layers = (
{
hints = (
{
horizontal = 1;
place = "{0, 21}";
type = Stem;
},
{
place = "{11, 48}";
type = Stem;
},
{
horizontal = 1;
place = "{398, 67}";
type = Stem;
},
{
place = "{107, 67}";
type = Stem;
},
{
place = "{237, 67}";
type = Stem;
}
);
layerId = "61E7180A-0B32-4047-B910-001D8BB62225";
paths = (
{
closed = 1;
nodes = (
"248 492 OFFCURVE",
"233 498 OFFCURVE",
"224 481 CURVE SMOOTH",
"197 425 OFFCURVE",
"163 362 OFFCURVE",
"130 328 CURVE SMOOTH",
"119 319 OFFCURVE",
"101 308 OFFCURVE",
"86 310 CURVE SMOOTH",
"56 312 OFFCURVE",
"55 340 OFFCURVE",
"64 373 CURVE SMOOTH",
"67 381 OFFCURVE",
"76 402 OFFCURVE",
"76 402 CURVE",
"103 472 OFFCURVE",
"181 598 OFFCURVE",
"181 598 CURVE",
"192 618 OFFCURVE",
"210 626 OFFCURVE",
"218 634 CURVE",
"168 634 LINE SMOOTH",
"135 634 OFFCURVE",
"138 634 OFFCURVE",
"113 586 CURVE SMOOTH",
"25 418 LINE SMOOTH",
"-1 369 OFFCURVE",
"5 288 OFFCURVE",
"79 288 CURVE SMOOTH",
"155 288 OFFCURVE",
"212 415 OFFCURVE",
"237 472 CURVE SMOOTH"
);
},
{
closed = 1;
nodes = (
"304 738 OFFCURVE",
"288 752 OFFCURVE",
"269 752 CURVE SMOOTH",
"251 752 OFFCURVE",
"237 738 OFFCURVE",
"237 718 CURVE SMOOTH",
"237 698 OFFCURVE",
"252 686 OFFCURVE",
"272 686 CURVE SMOOTH",
"291 686 OFFCURVE",
"304 699 OFFCURVE",
"304 718 CURVE SMOOTH"
);
},
{
closed = 1;
nodes = (
"174 738 OFFCURVE",
"159 752 OFFCURVE",
"139 752 CURVE SMOOTH",
"121 752 OFFCURVE",
"107 738 OFFCURVE",
"107 718 CURVE SMOOTH",
"107 698 OFFCURVE",
"123 686 OFFCURVE",
"142 686 CURVE SMOOTH",
"161 686 OFFCURVE",
"174 699 OFFCURVE",
"174 718 CURVE SMOOTH"
);
}
);
width = 169;
}
);
note = idieresis;
unicode = 00EF;
},
{
glyphname = ntilde;
lastChange = "2021-04-19 01:04:02 +0000";
layers = (
{
hints = (
{
horizontal = 1;
place = "{450, 44}";
type = Stem;
}
);
layerId = "61E7180A-0B32-4047-B910-001D8BB62225";
paths = (
{
closed = 1;
nodes = (
"418 493 OFFCURVE",
"402 500 OFFCURVE",
"394 481 CURVE SMOOTH",
"373 440 OFFCURVE",
"308 308 OFFCURVE",
"256 308 CURVE SMOOTH",
"244 308 OFFCURVE",
"232 316 OFFCURVE",
"240 358 CURVE SMOOTH",
"253 429 OFFCURVE",
"360 618 OFFCURVE",
"360 618 CURVE",
"327 630 OFFCURVE",
"224 565 OFFCURVE",
"176 523 CURVE SMOOTH",
"143 496 OFFCURVE",
"111 457 OFFCURVE",
"91 433 CURVE",
"127 505 OFFCURVE",
"184 606 OFFCURVE",
"213 622 CURVE",
"200 618 OFFCURVE",
"184 624 OFFCURVE",
"172 626 CURVE SMOOTH",
"139 627 OFFCURVE",
"126 610 OFFCURVE",
"99 561 CURVE SMOOTH",
"51 472 OFFCURVE",
"9 377 OFFCURVE",
"-39 280 CURVE",
"-29 287 OFFCURVE",
"-20 285 OFFCURVE",
"-5 287 CURVE SMOOTH",
"16 287 OFFCURVE",
"25 288 OFFCURVE",
"34 302 CURVE SMOOTH",
"90 413 OFFCURVE",
"139 469 OFFCURVE",
"173 501 CURVE SMOOTH",
"251 574 OFFCURVE",
"268 545 OFFCURVE",
"244 507 CURVE SMOOTH",
"216 461 OFFCURVE",
"197 427 OFFCURVE",
"189 401 CURVE SMOOTH",
"159 308 OFFCURVE",
"208 284 OFFCURVE",
"243 284 CURVE SMOOTH",
"320 284 OFFCURVE",
"378 411 OFFCURVE",
"409 473 CURVE SMOOTH"
);
},
{
closed = 1;
nodes = (
"441 783 OFFCURVE",
"421 787 OFFCURVE",
"418 781 CURVE SMOOTH",
"407 758 OFFCURVE",
"390 742 OFFCURVE",
"363 746 CURVE SMOOTH",
"323 749 OFFCURVE",
"284 779 OFFCURVE",
"241 783 CURVE SMOOTH",
"196 787 OFFCURVE",
"162 741 OFFCURVE",
"143 706 CURVE",
"141 702 OFFCURVE",
"163 698 OFFCURVE",
"166 705 CURVE",
"176 724 OFFCURVE",
"194 740 OFFCURVE",
"218 738 CURVE SMOOTH",
"260 734 OFFCURVE",
"297 702 OFFCURVE",
"340 698 CURVE SMOOTH",
"387 694 OFFCURVE",
"421 742 OFFCURVE",
"440 779 CURVE SMOOTH"
);
}
);
width = 336;
}
);
note = ntilde;
unicode = 00F1;
},
